<?xml version="1.0" encoding="UTF-8" standalone="no"?>
<svg
   width="904.33594"
   height="1122.0382"
   viewBox="0 0 239.27168 296.87156"
   version="1.1"
   id="svg8"
   sodipodi:docname="24wpilib-vert-indiv.svg"
   inkscape:version="1.3.2 (091e20e, 2023-11-25, custom)"
   xmlns:inkscape="http://www.inkscape.org/namespaces/inkscape"
   xmlns:sodipodi="http://sodipodi.sourceforge.net/DTD/sodipodi-0.dtd"
   xmlns="http://www.w3.org/2000/svg"
   xmlns:svg="http://www.w3.org/2000/svg">
  <defs
     id="defs1" />
  <sodipodi:namedview
     id="namedview1"
     pagecolor="#ffffff"
     bordercolor="#000000"
     borderopacity="0.25"
     inkscape:showpageshadow="2"
     inkscape:pageopacity="0.0"
     inkscape:pagecheckerboard="0"
     inkscape:deskcolor="#d1d1d1"
     inkscape:zoom="0.77091849"
     inkscape:cx="452.05817"
     inkscape:cy="561.66768"
     inkscape:window-width="3200"
     inkscape:window-height="1721"
     inkscape:window-x="1911"
     inkscape:window-y="-9"
     inkscape:window-maximized="1"
     inkscape:current-layer="svg8" />
  <g
     id="text19"
     style="font-style:normal;font-variant:normal;font-weight:normal;font-stretch:normal;font-size:25.4px;line-height:125%;font-family:sans-serif;-inkscape-font-specification:sans-serif;letter-spacing:0px;word-spacing:0px;fill:#000000;fill-opacity:1;stroke:none;stroke-width:0.264583px;stroke-linecap:butt;stroke-linejoin:miter;stroke-opacity:1"
     transform="translate(-1.5669633,102.61871)" />
  <g
     id="text29"
     style="font-style:normal;font-variant:normal;font-weight:normal;font-stretch:normal;font-size:25.4px;line-height:125%;font-family:sans-serif;-inkscape-font-specification:sans-serif;letter-spacing:0px;word-spacing:0px;fill:#000000;fill-opacity:1;stroke:none;stroke-width:0.264583px;stroke-linecap:butt;stroke-linejoin:miter;stroke-opacity:1"
     transform="translate(-1.5669633,102.61871)" />
  <g
     id="text35"
     style="font-style:normal;font-variant:normal;font-weight:normal;font-stretch:normal;font-size:25.4px;line-height:125%;font-family:sans-serif;-inkscape-font-specification:sans-serif;letter-spacing:0px;word-spacing:0px;fill:#000000;fill-opacity:1;stroke:none;stroke-width:0.264583px;stroke-linecap:butt;stroke-linejoin:miter;stroke-opacity:1"
     transform="translate(-1.5669633,102.61871)" />
  <g
     id="text52"
     style="font-style:normal;font-variant:normal;font-weight:bold;font-stretch:normal;font-size:25.3999px;line-height:125%;font-family:sans-serif;-inkscape-font-specification:'sans-serif Bold';letter-spacing:0px;word-spacing:0px;fill:#000000;fill-opacity:1;stroke:none;stroke-width:0.264583px;stroke-linecap:butt;stroke-linejoin:miter;stroke-opacity:1"
     transform="translate(-1.5669633,102.61871)" />
  <g
     id="flowRoot66"
     style="font-style:normal;font-variant:normal;font-weight:normal;font-stretch:normal;font-size:96px;line-height:125%;font-family:sans-serif;-inkscape-font-specification:sans-serif;letter-spacing:0px;word-spacing:0px;fill:#000000;fill-opacity:1;stroke:none;stroke-width:1px;stroke-linecap:butt;stroke-linejoin:miter;stroke-opacity:1"
     transform="translate(-1.5669633,102.61871)" />
  <g
     id="text4514"
     style="font-style:normal;font-variant:normal;font-weight:normal;font-stretch:normal;font-size:25.3999px;line-height:125%;font-family:sans-serif;-inkscape-font-specification:sans-serif;letter-spacing:0px;word-spacing:0px;fill:#000000;fill-opacity:1;stroke:none;stroke-width:0.264583px;stroke-linecap:butt;stroke-linejoin:miter;stroke-opacity:1"
     transform="translate(-1.5669633,102.61871)" />
  <g
     id="text4518"
     style="font-style:normal;font-variant:normal;font-weight:normal;font-stretch:normal;font-size:25.3999px;line-height:125%;font-family:sans-serif;-inkscape-font-specification:sans-serif;letter-spacing:0px;word-spacing:0px;fill:#4d4e4e;fill-opacity:1;stroke:none;stroke-width:0.264583px;stroke-linecap:butt;stroke-linejoin:miter;stroke-opacity:1"
     aria-label="Developer"
     transform="translate(-0.19414507,70.700686)">
    <path
       id="path55"
       style="font-weight:bold;font-size:42.3332px;letter-spacing:-0.529166px;fill:#4d4e4e;fill-opacity:1;stroke-width:0.264583px"
       d="m 11.429911,160.60142 v 18.83084 h 2.852533 q 4.878244,0 7.441389,-2.41845 2.583816,-2.41845 2.583816,-7.02798 0,-4.58885 -2.563146,-6.98663 -2.563145,-2.39778 -7.462059,-2.39778 z m -7.9581523,-6.01513 h 8.3922333 q 7.027979,0 10.459286,1.01286 3.451978,0.99218 5.911771,3.38996 2.170405,2.08773 3.224602,4.81624 1.054196,2.72851 1.054196,6.18048 0,3.49332 -1.054196,6.2425 -1.054197,2.72851 -3.224602,4.81624 -2.480464,2.39778 -5.953112,3.41063 -3.472648,0.99219 -10.417945,0.99219 H 3.4717587 Z" />
    <path
       id="path57"
       style="font-weight:bold;font-size:42.3332px;letter-spacing:-0.529166px;fill:#4d4e4e;fill-opacity:1;stroke-width:0.264583px"
       d="m 60.861403,173.80988 v 2.1084 h -17.30123 q 0.268717,2.60448 1.881018,3.90672 1.612301,1.30225 4.506175,1.30225 2.335769,0 4.774891,-0.68213 2.459793,-0.7028 5.043609,-2.10839 v 5.70506 q -2.625157,0.99219 -5.250314,1.48828 -2.625157,0.51676 -5.250313,0.51676 -6.28384,0 -9.777159,-3.18326 -3.472648,-3.20393 -3.472648,-8.97101 0,-5.66372 3.410636,-8.90899 3.431308,-3.24528 9.42576,-3.24528 5.457019,0 8.722962,3.28662 3.286613,3.28661 3.286613,8.78497 z m -7.606753,-2.45979 q 0,-2.10839 -1.240232,-3.38997 -1.219561,-1.30224 -3.203931,-1.30224 -2.149735,0 -3.493319,1.21956 -1.343584,1.19889 -1.674312,3.47265 z" />
    <path
       id="path59"
       style="font-weight:bold;font-size:42.3332px;letter-spacing:-0.529166px;fill:#4d4e4e;fill-opacity:1;stroke-width:0.264583px"
       d="m 62.998737,162.2964 h 7.400049 l 5.767076,15.99899 5.746406,-15.99899 h 7.420719 l -9.115702,23.15099 h -8.123516 z" />
    <path
       id="path61"
       style="font-weight:bold;font-size:42.3332px;letter-spacing:-0.529166px;fill:#4d4e4e;fill-opacity:1;stroke-width:0.264583px"
       d="m 116.10959,173.80988 v 2.1084 H 98.808358 q 0.268716,2.60448 1.881022,3.90672 1.6123,1.30225 4.50617,1.30225 2.33577,0 4.77489,-0.68213 2.45979,-0.7028 5.04361,-2.10839 v 5.70506 q -2.62516,0.99219 -5.25031,1.48828 -2.62516,0.51676 -5.25032,0.51676 -6.283837,0 -9.777156,-3.18326 -3.472648,-3.20393 -3.472648,-8.97101 0,-5.66372 3.410637,-8.90899 3.431307,-3.24528 9.425757,-3.24528 5.45702,0 8.72296,3.28662 3.28662,3.28661 3.28662,8.78497 z m -7.60676,-2.45979 q 0,-2.10839 -1.24023,-3.38997 -1.21956,-1.30224 -3.20393,-1.30224 -2.14973,0 -3.49332,1.21956 -1.343582,1.19889 -1.67431,3.47265 z" />
    <path
       id="path63"
       style="font-weight:bold;font-size:42.3332px;letter-spacing:-0.529166px;fill:#4d4e4e;fill-opacity:1;stroke-width:0.264583px"
       d="m 121.16146,153.28405 h 7.40005 v 32.16334 h -7.40005 z" />
    <path
       id="path65"
       style="font-weight:bold;font-size:42.3332px;letter-spacing:-0.529166px;fill:#4d4e4e;fill-opacity:1;stroke-width:0.264583px"
       d="m 146.20174,167.02995 q -2.45979,0 -3.76204,1.77766 -1.28157,1.757 -1.28157,5.08495 0,3.32796 1.28157,5.10562 1.30225,1.757 3.76204,1.757 2.41845,0 3.70002,-1.757 1.28158,-1.77766 1.28158,-5.10562 0,-3.32795 -1.28158,-5.08495 -1.28157,-1.77766 -3.70002,-1.77766 z m 0,-5.29166 q 5.97378,0 9.32241,3.22461 3.36929,3.2246 3.36929,8.92966 0,5.70507 -3.36929,8.92967 -3.34863,3.2246 -9.32241,3.2246 -5.99445,0 -9.38442,-3.2246 -3.36929,-3.2246 -3.36929,-8.92967 0,-5.70506 3.36929,-8.92966 3.38997,-3.22461 9.38442,-3.22461 z" />
    <path
       id="path67"
       style="font-weight:bold;font-size:42.3332px;letter-spacing:-0.529166px;fill:#4d4e4e;fill-opacity:1;stroke-width:0.264583px"
       d="m 171.15933,182.09876 v 12.15427 h -7.40004 V 162.2964 h 7.40004 v 3.38997 q 1.52962,-2.02572 3.38997,-2.97656 1.86035,-0.97152 4.2788,-0.97152 4.2788,0 7.02798,3.41064 2.74918,3.38997 2.74918,8.74363 0,5.35367 -2.74918,8.76431 -2.74918,3.38996 -7.02798,3.38996 -2.41845,0 -4.2788,-0.95084 -1.86035,-0.97152 -3.38997,-2.99723 z m 4.91959,-14.98613 q -2.37711,0 -3.65868,1.757 -1.26091,1.73632 -1.26091,5.02293 0,3.28662 1.26091,5.04361 1.28157,1.73633 3.65868,1.73633 2.37711,0 3.61734,-1.73633 1.2609,-1.73632 1.2609,-5.04361 0,-3.30728 -1.2609,-5.0436 -1.24023,-1.73633 -3.61734,-1.73633 z" />
    <path
       id="path69"
       style="font-weight:bold;font-size:42.3332px;letter-spacing:-0.529166px;fill:#4d4e4e;fill-opacity:1;stroke-width:0.264583px"
       d="m 216.68409,173.80988 v 2.1084 h -17.30123 q 0.26872,2.60448 1.88102,3.90672 1.6123,1.30225 4.50617,1.30225 2.33577,0 4.77489,-0.68213 2.4598,-0.7028 5.04361,-2.10839 v 5.70506 q -2.62516,0.99219 -5.25031,1.48828 -2.62516,0.51676 -5.25032,0.51676 -6.28384,0 -9.77715,-3.18326 -3.47265,-3.20393 -3.47265,-8.97101 0,-5.66372 3.41063,-8.90899 3.43131,-3.24528 9.42576,-3.24528 5.45702,0 8.72297,3.28662 3.28661,3.28661 3.28661,8.78497 z m -7.60675,-2.45979 q 0,-2.10839 -1.24024,-3.38997 -1.21956,-1.30224 -3.20393,-1.30224 -2.14973,0 -3.49332,1.21956 -1.34358,1.19889 -1.67431,3.47265 z" />
    <path
       id="path71"
       style="font-weight:bold;font-size:42.3332px;letter-spacing:-0.529166px;fill:#4d4e4e;fill-opacity:1;stroke-width:0.264583px"
       d="m 238.93385,168.60091 q -0.97152,-0.45475 -1.94303,-0.66146 -0.95085,-0.22737 -1.92236,-0.22737 -2.85253,0 -4.40282,1.83967 -1.52962,1.81901 -1.52962,5.22965 v 10.66599 h -7.40005 V 162.2964 h 7.40005 v 3.80338 q 1.42626,-2.27376 3.26594,-3.30729 1.86035,-1.0542 4.44416,-1.0542 0.37207,0 0.80616,0.0413 0.43408,0.0207 1.2609,0.12402 z" />
  </g>
  <g
     id="g11"
     transform="matrix(1.5098278,0,0,1.5098278,28.359371,41.300999)"
     style="display:inline">
	<g
   id="g3">
		<path
   class="st0"
   d="m 116.49,2.66 0.26,-0.02 V 0 H 97.44 v 2.64 l 0.26,0.02 c 4.82,0.44 5.35,0.67 5.35,6.11 v 25.45 c 0,5.44 -0.53,5.67 -5.35,6.11 l -0.26,0.02 V 43 h 19.31 v -2.64 l -0.26,-0.02 C 111.65,39.9 111.2,39.7 111.2,34.23 V 8.77 c 0,-5.47 0.45,-5.67 5.29,-6.11 z"
   id="path1"
   style="fill:#aa182c" />

		<g
   id="g2">
			<path
   class="st0"
   d="M 91.04,2.6 C 88.51,0.83 84.87,0 79.58,0 H 47.05 v 2.64 c 2.76,0.13 4.94,1.5 4.94,3.17 0,0.16 -0.01,0.3 -0.05,0.44 -0.06,0.43 -0.17,0.93 -0.3,1.49 -0.92,3.82 -3.8,14.57 -6.4,22.87 L 34.3,0.46 H 31.13 L 21.51,30.42 14.3,5.83 c 0,0 -1.05,-2.83 4.35,-3.2 V 0 H 0 v 2.62 c 0,0 4.43,-0.14 5.72,3.69 l 11.45,37.4 h 3.36 l 9.92,-29.9 10.81,29.9 h 3.36 C 50.27,24.63 54.1,13.04 55.45,9.31 56.3,6.79 56.92,5.29 57.81,4.36 c 0.98,-1.01 2.42,-1.64 4.03,-1.64 2.93,0 5.31,1.85 5.31,4.19 v 27.31 c 0,5.44 -0.53,5.67 -5.35,6.11 l -0.26,0.03 V 43 H 81.5 v -2.64 l -0.27,-0.03 c -5.49,-0.44 -5.99,-0.65 -5.99,-6.11 v -8.36 c 0.48,0.09 0.96,0.17 1.45,0.22 0.98,0.14 2.05,0.14 2.83,0.14 0.79,0 1.85,0 2.84,-0.14 C 88.86,25.33 95.8,21.33 95.8,12.36 95.8,8.18 94.19,4.9 91.04,2.6 Z m -12.1,20.18 c -1.69,0 -3.01,-0.32 -3.69,-0.62 V 5.77 c 0,-1.2 0.17,-1.86 0.57,-2.21 0.31,-0.31 1.16,-0.63 2.67,-0.63 5.28,0 8.45,3.6 8.45,9.64 -0.01,9.72 -6.67,10.21 -8,10.21 z"
   id="path2"
   style="fill:#aa182c" />

		</g>

	</g>

	<g
   id="g6">
		<g
   id="g5">
			<path
   class="st1"
   d="M 66.36,94.17 V 65.56 h -4.43 v 32.1 h 19.02 v -3.5 H 66.36 Z"
   id="path3"
   style="fill:#4d4e4e" />

			<path
   class="st1"
   d="m 85.7,74.64 v 23.03 h 4.43 V 74.64 Z m 2.23,-9.13 c -1.64,0 -2.77,1.17 -2.77,2.61 0,1.42 1.07,2.6 2.69,2.6 1.77,0 2.83,-1.18 2.83,-2.6 -0.02,-1.47 -1.09,-2.61 -2.75,-2.61 z"
   id="path4"
   style="fill:#4d4e4e" />

			<path
   class="st1"
   d="m 110.42,74.11 c -3.95,0 -6.79,1.63 -8.35,4.22 h -0.11 V 65.51 h -4.43 v 26.22 c 0,2.05 -0.08,4.35 -0.21,5.94 h 3.84 l 0.22,-3.78 h 0.13 c 1.84,3 4.67,4.31 8.2,4.31 5.46,0 11.03,-4.09 11.03,-12.36 0.03,-6.98 -4.24,-11.73 -10.32,-11.73 z m -1.59,20.75 c -3.22,0 -5.85,-1.99 -6.68,-4.91 -0.13,-0.47 -0.19,-1 -0.19,-1.51 V 84.3 c 0,-0.67 0.12,-1.23 0.26,-1.74 0.89,-3.16 3.72,-5.15 6.74,-5.15 4.76,0 7.3,3.96 7.3,8.59 0.01,5.29 -2.75,8.86 -7.43,8.86 z"
   id="path5"
   style="fill:#4d4e4e" />

		</g>

	</g>

	<g
   id="g10">
		<polygon
   class="st0"
   points="23.79,65.51 23.79,68.54 14.04,68.54 3.89,81.59 14.04,94.63 22.01,94.63 24.6,83.14 27.71,83.14 24.44,97.67 12.55,97.67 0.04,81.59 12.55,65.51 "
   id="polygon6"
   style="fill:#aa182c" />

		<polygon
   class="st1"
   points="49.1,81.59 38.95,68.54 30.99,68.54 28.4,80.04 25.29,80.04 28.56,65.51 40.44,65.51 52.94,81.59 40.44,97.67 29.2,97.67 29.2,94.63 38.95,94.63 "
   id="polygon7"
   style="fill:#4d4e4e" />

		<g
   id="g9">
			<polygon
   class="st0"
   points="15.51,91.53 7.82,81.59 15.51,71.64 19.34,71.64 11.66,81.59 19.23,91.38 19.04,91.53 "
   id="polygon8"
   style="fill:#aa182c" />

			<polygon
   class="st1"
   points="37.48,91.53 45.17,81.59 37.48,71.64 33.66,71.64 41.34,81.59 33.76,91.38 33.96,91.53 "
   id="polygon9"
   style="fill:#4d4e4e" />

		</g>

	</g>

</g>
</svg>
