<?xml version="1.0" encoding="UTF-8" standalone="no"?>
<svg
   width="1123.0781"
   height="898.95343"
   viewBox="0 0 297.14708 237.84725"
   version="1.1"
   id="svg8"
   sodipodi:docname="24wpilib-vert-team.svg"
   inkscape:version="1.3.2 (091e20e, 2023-11-25, custom)"
   xmlns:inkscape="http://www.inkscape.org/namespaces/inkscape"
   xmlns:sodipodi="http://sodipodi.sourceforge.net/DTD/sodipodi-0.dtd"
   xmlns="http://www.w3.org/2000/svg"
   xmlns:svg="http://www.w3.org/2000/svg">
  <defs
     id="defs1" />
  <sodipodi:namedview
     id="namedview1"
     pagecolor="#ffffff"
     bordercolor="#000000"
     borderopacity="0.25"
     inkscape:showpageshadow="2"
     inkscape:pageopacity="0.0"
     inkscape:pagecheckerboard="0"
     inkscape:deskcolor="#d1d1d1"
     inkscape:zoom="0.96223005"
     inkscape:cx="561.71599"
     inkscape:cy="448.95709"
     inkscape:window-width="3200"
     inkscape:window-height="1721"
     inkscape:window-x="1911"
     inkscape:window-y="-9"
     inkscape:window-maximized="1"
     inkscape:current-layer="text4529" />
  <g
     id="text4529"
     style="font-style:normal;font-variant:normal;font-weight:normal;font-stretch:normal;font-size:25.3999px;line-height:125%;font-family:sans-serif;-inkscape-font-specification:sans-serif;letter-spacing:0px;word-spacing:0px;fill:#000000;fill-opacity:1;stroke:none;stroke-width:0.264583px;stroke-linecap:butt;stroke-linejoin:miter;stroke-opacity:1"
     aria-label="WPILib Development Team"
     transform="translate(21.56947,93.269849)">
    <g
       id="g1"
       transform="translate(-46.469638,-4.1245241)"
       style="fill:#4d4e4e;fill-opacity:1">
      <path
         id="path45"
         style="font-style:normal;font-variant:normal;font-weight:bold;font-stretch:normal;font-size:25.3999px;font-family:'DejaVu Sans';-inkscape-font-specification:'DejaVu Sans Bold';text-align:center;text-anchor:middle;fill:#4d4e4e;fill-opacity:1;stroke-width:0.264583px"
         d="m 86.780187,88.211473 v 11.29851 h 1.711519 q 2.926947,0 4.464834,-1.451071 1.550289,-1.451071 1.550289,-4.216787 0,-2.753314 -1.537887,-4.191983 -1.537887,-1.438669 -4.477236,-1.438669 z m -4.774892,-3.609074 h 5.03534 q 4.216788,0 6.275572,0.607714 2.071187,0.595311 3.547062,2.03398 1.302244,1.252634 1.934762,2.889739 0.632518,1.637106 0.632518,3.708293 0,2.095991 -0.632518,3.745499 -0.632518,1.637106 -1.934762,2.889736 -1.488277,1.43867 -3.571866,2.04639 -2.083589,0.59531 -6.250768,0.59531 h -5.03534 z" />
      <path
         id="path47"
         style="font-style:normal;font-variant:normal;font-weight:bold;font-stretch:normal;font-size:25.3999px;font-family:'DejaVu Sans';-inkscape-font-specification:'DejaVu Sans Bold';text-align:center;text-anchor:middle;fill:#4d4e4e;fill-opacity:1;stroke-width:0.264583px"
         d="m 116.75658,96.136553 v 1.265036 h -10.38074 q 0.16123,1.562692 1.12861,2.344038 0.96738,0.781343 2.70371,0.781343 1.40146,0 2.86493,-0.40927 1.47588,-0.421682 3.02617,-1.26504 v 3.42304 q -1.5751,0.59531 -3.15019,0.89297 -1.5751,0.31005 -3.15019,0.31005 -3.7703,0 -5.8663,-1.90995 -2.08359,-1.922362 -2.08359,-5.382608 0,-3.398234 2.04639,-5.345398 2.05878,-1.947163 5.65545,-1.947163 3.27421,0 5.23378,1.971968 1.97197,1.971968 1.97197,5.270984 z m -4.56405,-1.475876 q 0,-1.265036 -0.74414,-2.033979 -0.73174,-0.781346 -1.92236,-0.781346 -1.28984,0 -2.09599,0.731736 -0.80615,0.719335 -1.00459,2.083589 z" />
      <path
         id="path49"
         style="font-style:normal;font-variant:normal;font-weight:bold;font-stretch:normal;font-size:25.3999px;font-family:'DejaVu Sans';-inkscape-font-specification:'DejaVu Sans Bold';text-align:center;text-anchor:middle;fill:#4d4e4e;fill-opacity:1;stroke-width:0.264583px"
         d="m 118.35648,89.228463 h 4.44003 l 3.46024,9.599392 3.44785,-9.599392 h 4.45243 l -5.46942,13.890597 h -4.87411 z" />
      <path
         id="path51"
         style="font-style:normal;font-variant:normal;font-weight:bold;font-stretch:normal;font-size:25.3999px;font-family:'DejaVu Sans';-inkscape-font-specification:'DejaVu Sans Bold';text-align:center;text-anchor:middle;fill:#4d4e4e;fill-opacity:1;stroke-width:0.264583px"
         d="m 150.5405,96.136553 v 1.265036 h -10.38074 q 0.16123,1.562692 1.12861,2.344038 0.96738,0.781343 2.70371,0.781343 1.40146,0 2.86493,-0.40927 1.47588,-0.421682 3.02617,-1.26504 v 3.42304 q -1.5751,0.59531 -3.15019,0.89297 -1.5751,0.31005 -3.15019,0.31005 -3.7703,0 -5.8663,-1.90995 -2.08358,-1.922362 -2.08358,-5.382608 0,-3.398234 2.04638,-5.345398 2.05878,-1.947163 5.65545,-1.947163 3.27421,0 5.23378,1.971968 1.97197,1.971968 1.97197,5.270984 z m -4.56405,-1.475876 q 0,-1.265036 -0.74414,-2.033979 -0.73174,-0.781346 -1.92236,-0.781346 -1.28984,0 -2.09599,0.731736 -0.80615,0.719335 -1.00459,2.083589 z" />
      <path
         id="path53"
         style="font-style:normal;font-variant:normal;font-weight:bold;font-stretch:normal;font-size:25.3999px;font-family:'DejaVu Sans';-inkscape-font-specification:'DejaVu Sans Bold';text-align:center;text-anchor:middle;fill:#4d4e4e;fill-opacity:1;stroke-width:0.264583px"
         d="m 153.88913,83.821054 h 4.44003 v 19.298006 h -4.44003 z" />
      <path
         id="path55"
         style="font-style:normal;font-variant:normal;font-weight:bold;font-stretch:normal;font-size:25.3999px;font-family:'DejaVu Sans';-inkscape-font-specification:'DejaVu Sans Bold';text-align:center;text-anchor:middle;fill:#4d4e4e;fill-opacity:1;stroke-width:0.264583px"
         d="m 169.23078,92.068593 q -1.47588,0 -2.25722,1.0666 -0.76895,1.054196 -0.76895,3.050969 0,1.996773 0.76895,3.063372 0.78134,1.054196 2.25722,1.054196 1.45107,0 2.22001,-1.054196 0.76894,-1.066599 0.76894,-3.063372 0,-1.996773 -0.76894,-3.050969 -0.76894,-1.0666 -2.22001,-1.0666 z m 0,-3.174992 q 3.58427,0 5.59344,1.934761 2.02158,1.934761 2.02158,5.3578 0,3.423039 -2.02158,5.357798 -2.00917,1.93476 -5.59344,1.93476 -3.59667,0 -5.63065,-1.93476 -2.02158,-1.934759 -2.02158,-5.357798 0,-3.423039 2.02158,-5.3578 2.03398,-1.934761 5.63065,-1.934761 z" />
      <path
         id="path57"
         style="font-style:normal;font-variant:normal;font-weight:bold;font-stretch:normal;font-size:25.3999px;font-family:'DejaVu Sans';-inkscape-font-specification:'DejaVu Sans Bold';text-align:center;text-anchor:middle;fill:#4d4e4e;fill-opacity:1;stroke-width:0.264583px"
         d="m 184.52283,101.10988 v 7.29256 h -4.44002 V 89.228463 h 4.44002 v 2.03398 q 0.91778,-1.215427 2.03398,-1.785933 1.11621,-0.582909 2.56728,-0.582909 2.56728,0 4.21679,2.046382 1.64951,2.03398 1.64951,5.246179 0,3.2122 -1.64951,5.258578 -1.64951,2.03398 -4.21679,2.03398 -1.45107,0 -2.56728,-0.5705 -1.1162,-0.58291 -2.03398,-1.79834 z m 2.95176,-8.991677 q -1.42627,0 -2.19521,1.054197 -0.75655,1.041794 -0.75655,3.013762 0,1.971968 0.75655,3.026165 0.76894,1.041793 2.19521,1.041793 1.42626,0 2.1704,-1.041793 0.75654,-1.041794 0.75654,-3.026165 0,-1.98437 -0.75654,-3.026165 -0.74414,-1.041794 -2.1704,-1.041794 z" />
      <path
         id="path59"
         style="font-style:normal;font-variant:normal;font-weight:bold;font-stretch:normal;font-size:25.3999px;font-family:'DejaVu Sans';-inkscape-font-specification:'DejaVu Sans Bold';text-align:center;text-anchor:middle;fill:#4d4e4e;fill-opacity:1;stroke-width:0.264583px"
         d="m 211.16301,91.535294 q 0.84336,-1.289841 1.99678,-1.959566 1.16581,-0.682127 2.55487,-0.682127 2.39365,0 3.64628,1.475875 1.25264,1.475876 1.25264,4.291201 v 8.458383 h -4.46484 v -7.242956 q 0.0124,-0.16123 0.0124,-0.334862 0.0124,-0.173633 0.0124,-0.496093 0,-1.475875 -0.43408,-2.133198 -0.43408,-0.669725 -1.40146,-0.669725 -1.26504,0 -1.95957,1.041794 -0.68213,1.041795 -0.70693,3.013763 v 6.821277 h -4.46484 v -7.242956 q 0,-2.30683 -0.39687,-2.964153 -0.39687,-0.669725 -1.41386,-0.669725 -1.27744,0 -1.97197,1.054197 -0.69453,1.041794 -0.69453,2.988958 v 6.833679 H 198.2646 V 89.228463 h 4.46483 v 2.03398 q 0.81855,-1.17822 1.87275,-1.773531 1.0666,-0.595311 2.34404,-0.595311 1.43866,0 2.54247,0.694529 1.10381,0.69453 1.67431,1.947164 z" />
      <path
         id="path61"
         style="font-style:normal;font-variant:normal;font-weight:bold;font-stretch:normal;font-size:25.3999px;font-family:'DejaVu Sans';-inkscape-font-specification:'DejaVu Sans Bold';text-align:center;text-anchor:middle;fill:#4d4e4e;fill-opacity:1;stroke-width:0.264583px"
         d="m 238.64655,96.136553 v 1.265036 h -10.38074 q 0.16123,1.562692 1.12861,2.344038 0.96738,0.781343 2.7037,0.781343 1.40147,0 2.86494,-0.40927 1.47587,-0.421682 3.02616,-1.26504 v 3.42304 q -1.57509,0.59531 -3.15018,0.89297 -1.5751,0.31005 -3.15019,0.31005 -3.77031,0 -5.8663,-1.90995 -2.08359,-1.922362 -2.08359,-5.382608 0,-3.398234 2.04639,-5.345398 2.05878,-1.947163 5.65545,-1.947163 3.27421,0 5.23378,1.971968 1.97197,1.971968 1.97197,5.270984 z m -4.56406,-1.475876 q 0,-1.265036 -0.74413,-2.033979 -0.73174,-0.781346 -1.92236,-0.781346 -1.28984,0 -2.09599,0.731736 -0.80615,0.719335 -1.00459,2.083589 z" />
      <path
         id="path63"
         style="font-style:normal;font-variant:normal;font-weight:bold;font-stretch:normal;font-size:25.3999px;font-family:'DejaVu Sans';-inkscape-font-specification:'DejaVu Sans Bold';text-align:center;text-anchor:middle;fill:#4d4e4e;fill-opacity:1;stroke-width:0.264583px"
         d="m 255.96017,94.660677 v 8.458383 h -4.46484 v -1.37666 -5.097352 q 0,-1.798336 -0.0868,-2.480463 -0.0744,-0.682128 -0.27285,-1.004588 -0.26045,-0.434081 -0.70694,-0.669725 -0.44648,-0.248046 -1.01699,-0.248046 -1.38906,0 -2.1828,1.079001 -0.79375,1.0666 -0.79375,2.964154 v 6.833679 h -4.44003 V 89.228463 h 4.44003 v 2.03398 q 1.00459,-1.215427 2.1332,-1.785933 1.12861,-0.582909 2.49286,-0.582909 2.40605,0 3.64628,1.475875 1.25264,1.475876 1.25264,4.291201 z" />
      <path
         id="path65"
         style="font-style:normal;font-variant:normal;font-weight:bold;font-stretch:normal;font-size:25.3999px;font-family:'DejaVu Sans';-inkscape-font-specification:'DejaVu Sans Bold';text-align:center;text-anchor:middle;fill:#4d4e4e;fill-opacity:1;stroke-width:0.264583px"
         d="m 264.95186,85.284527 v 3.943936 h 4.57645 v 3.174993 h -4.57645 v 5.8911 q 0,0.967381 0.38447,1.314645 0.38447,0.334863 1.52548,0.334863 h 2.28203 v 3.174996 h -3.80751 q -2.62929,0 -3.7331,-1.09141 -1.0914,-1.1038 -1.0914,-3.733094 v -5.8911 h -2.20762 v -3.174993 h 2.20762 v -3.943936 z" />
    </g>
    <g
       id="g4"
       transform="translate(3.024651,-3.8495558)"
       style="fill:#4d4e4e;fill-opacity:1">
      <path
         id="path67"
         style="font-style:normal;font-variant:normal;font-weight:bold;font-stretch:normal;font-size:25.3999px;font-family:'DejaVu Sans';-inkscape-font-specification:'DejaVu Sans Bold';text-align:center;text-anchor:middle;fill:#4d4e4e;fill-opacity:1;stroke-width:0.264583px"
         d="m 83.592792,116.35233 h 17.065588 v 3.60907 h -6.139148 v 14.90758 H 89.744341 V 119.9614 h -6.151549 z" />
      <path
         id="path69"
         style="font-style:normal;font-variant:normal;font-weight:bold;font-stretch:normal;font-size:25.3999px;font-family:'DejaVu Sans';-inkscape-font-specification:'DejaVu Sans Bold';text-align:center;text-anchor:middle;fill:#4d4e4e;fill-opacity:1;stroke-width:0.264583px"
         d="m 113.40796,127.88648 v 1.26504 h -10.38074 q 0.16123,1.56269 1.12861,2.34403 0.96738,0.78135 2.70371,0.78135 1.40146,0 2.86493,-0.40928 1.47588,-0.42167 3.02617,-1.26503 v 3.42304 q -1.5751,0.59531 -3.15019,0.89296 -1.5751,0.31006 -3.15019,0.31006 -3.7703,0 -5.8663,-1.90995 -2.083584,-1.92236 -2.083584,-5.38261 0,-3.39823 2.046384,-5.3454 2.05878,-1.94716 5.65545,-1.94716 3.27422,0 5.23378,1.97197 1.97197,1.97197 1.97197,5.27098 z m -4.56405,-1.47587 q 0,-1.26504 -0.74414,-2.03398 -0.73174,-0.78135 -1.92236,-0.78135 -1.28984,0 -2.09599,0.73174 -0.80615,0.71933 -1.00459,2.08359 z" />
      <path
         id="path71"
         style="font-style:normal;font-variant:normal;font-weight:bold;font-stretch:normal;font-size:25.3999px;font-family:'DejaVu Sans';-inkscape-font-specification:'DejaVu Sans Bold';text-align:center;text-anchor:middle;fill:#4d4e4e;fill-opacity:1;stroke-width:0.264583px"
         d="m 122.98255,128.61822 q -1.38906,0 -2.09599,0.47129 -0.69453,0.47128 -0.69453,1.38905 0,0.84336 0.5581,1.32705 0.57051,0.47129 1.57509,0.47129 1.25264,0 2.1084,-0.89297 0.85576,-0.90537 0.85576,-2.25722 v -0.50849 z m 6.78406,-1.67431 v 7.92507 h -4.47723 v -2.05878 q -0.89297,1.26504 -2.00918,1.84795 -1.11621,0.5705 -2.7161,0.5705 -2.15801,0 -3.50986,-1.25263 -1.33945,-1.26504 -1.33945,-3.27421 0,-2.44326 1.67431,-3.58427 1.68672,-1.14102 5.28339,-1.14102 h 2.61689 v -0.34726 q 0,-1.0542 -0.83096,-1.53789 -0.83095,-0.49609 -2.59208,-0.49609 -1.42627,0 -2.6541,0.28525 -1.22783,0.28526 -2.28202,0.85576 v -3.38583 q 1.42626,-0.34726 2.86493,-0.5209 1.43867,-0.18603 2.87734,-0.18603 3.7579,0 5.41981,1.48828 1.67431,1.47587 1.67431,4.8121 z" />
      <path
         id="path73"
         style="font-style:normal;font-variant:normal;font-weight:bold;font-stretch:normal;font-size:25.3999px;font-family:'DejaVu Sans';-inkscape-font-specification:'DejaVu Sans Bold';text-align:center;text-anchor:middle;fill:#4d4e4e;fill-opacity:1;stroke-width:0.264583px"
         d="m 146.79499,123.28522 q 0.84336,-1.28984 1.99677,-1.95956 1.16582,-0.68213 2.55488,-0.68213 2.39365,0 3.64628,1.47587 1.25264,1.47588 1.25264,4.29121 v 8.45837 h -4.46484 v -7.24295 q 0.0124,-0.16123 0.0124,-0.33486 0.0124,-0.17363 0.0124,-0.49609 0,-1.47588 -0.43408,-2.1332 -0.43409,-0.66973 -1.40147,-0.66973 -1.26503,0 -1.95956,1.0418 -0.68213,1.04179 -0.70693,3.01376 v 6.82127 h -4.46484 v -7.24295 q 0,-2.30683 -0.39687,-2.96415 -0.39688,-0.66973 -1.41387,-0.66973 -1.27743,0 -1.97196,1.0542 -0.69453,1.0418 -0.69453,2.98896 v 6.83367 h -4.46484 v -13.89059 h 4.46484 v 2.03398 q 0.81855,-1.17822 1.87275,-1.77353 1.0666,-0.59531 2.34403,-0.59531 1.43867,0 2.54248,0.69453 1.1038,0.69453 1.67431,1.94716 z" />
    </g>
  </g>
  <g
     id="text19"
     style="font-style:normal;font-variant:normal;font-weight:normal;font-stretch:normal;font-size:25.4px;line-height:125%;font-family:sans-serif;-inkscape-font-specification:sans-serif;letter-spacing:0px;word-spacing:0px;fill:#000000;fill-opacity:1;stroke:none;stroke-width:0.264583px;stroke-linecap:butt;stroke-linejoin:miter;stroke-opacity:1"
     transform="translate(27.618772,102.61877)" />
  <g
     id="text29"
     style="font-style:normal;font-variant:normal;font-weight:normal;font-stretch:normal;font-size:25.4px;line-height:125%;font-family:sans-serif;-inkscape-font-specification:sans-serif;letter-spacing:0px;word-spacing:0px;fill:#000000;fill-opacity:1;stroke:none;stroke-width:0.264583px;stroke-linecap:butt;stroke-linejoin:miter;stroke-opacity:1"
     transform="translate(27.618772,102.61877)" />
  <g
     id="text35"
     style="font-style:normal;font-variant:normal;font-weight:normal;font-stretch:normal;font-size:25.4px;line-height:125%;font-family:sans-serif;-inkscape-font-specification:sans-serif;letter-spacing:0px;word-spacing:0px;fill:#000000;fill-opacity:1;stroke:none;stroke-width:0.264583px;stroke-linecap:butt;stroke-linejoin:miter;stroke-opacity:1"
     transform="translate(27.618772,102.61877)" />
  <g
     id="text52"
     style="font-style:normal;font-variant:normal;font-weight:bold;font-stretch:normal;font-size:25.3999px;line-height:125%;font-family:sans-serif;-inkscape-font-specification:'sans-serif Bold';letter-spacing:0px;word-spacing:0px;fill:#000000;fill-opacity:1;stroke:none;stroke-width:0.264583px;stroke-linecap:butt;stroke-linejoin:miter;stroke-opacity:1"
     transform="translate(27.618772,102.61877)" />
  <g
     id="flowRoot66"
     style="font-style:normal;font-variant:normal;font-weight:normal;font-stretch:normal;font-size:96px;line-height:125%;font-family:sans-serif;-inkscape-font-specification:sans-serif;letter-spacing:0px;word-spacing:0px;fill:#000000;fill-opacity:1;stroke:none;stroke-width:1px;stroke-linecap:butt;stroke-linejoin:miter;stroke-opacity:1"
     transform="translate(27.618772,102.61877)" />
  <g
     id="g11"
     transform="matrix(1.5098278,0,0,1.5098278,54.778515,10.214718)"
     style="display:inline">
	<g
   id="g3">
		<path
   class="st0"
   d="m 116.49,2.66 0.26,-0.02 V 0 H 97.44 v 2.64 l 0.26,0.02 c 4.82,0.44 5.35,0.67 5.35,6.11 v 25.45 c 0,5.44 -0.53,5.67 -5.35,6.11 l -0.26,0.02 V 43 h 19.31 v -2.64 l -0.26,-0.02 C 111.65,39.9 111.2,39.7 111.2,34.23 V 8.77 c 0,-5.47 0.45,-5.67 5.29,-6.11 z"
   id="path1"
   style="fill:#aa182c" />

		<g
   id="g2">
			<path
   class="st0"
   d="M 91.04,2.6 C 88.51,0.83 84.87,0 79.58,0 H 47.05 v 2.64 c 2.76,0.13 4.94,1.5 4.94,3.17 0,0.16 -0.01,0.3 -0.05,0.44 -0.06,0.43 -0.17,0.93 -0.3,1.49 -0.92,3.82 -3.8,14.57 -6.4,22.87 L 34.3,0.46 H 31.13 L 21.51,30.42 14.3,5.83 c 0,0 -1.05,-2.83 4.35,-3.2 V 0 H 0 v 2.62 c 0,0 4.43,-0.14 5.72,3.69 l 11.45,37.4 h 3.36 l 9.92,-29.9 10.81,29.9 h 3.36 C 50.27,24.63 54.1,13.04 55.45,9.31 56.3,6.79 56.92,5.29 57.81,4.36 c 0.98,-1.01 2.42,-1.64 4.03,-1.64 2.93,0 5.31,1.85 5.31,4.19 v 27.31 c 0,5.44 -0.53,5.67 -5.35,6.11 l -0.26,0.03 V 43 H 81.5 v -2.64 l -0.27,-0.03 c -5.49,-0.44 -5.99,-0.65 -5.99,-6.11 v -8.36 c 0.48,0.09 0.96,0.17 1.45,0.22 0.98,0.14 2.05,0.14 2.83,0.14 0.79,0 1.85,0 2.84,-0.14 C 88.86,25.33 95.8,21.33 95.8,12.36 95.8,8.18 94.19,4.9 91.04,2.6 Z m -12.1,20.18 c -1.69,0 -3.01,-0.32 -3.69,-0.62 V 5.77 c 0,-1.2 0.17,-1.86 0.57,-2.21 0.31,-0.31 1.16,-0.63 2.67,-0.63 5.28,0 8.45,3.6 8.45,9.64 -0.01,9.72 -6.67,10.21 -8,10.21 z"
   id="path2"
   style="fill:#aa182c" />

		</g>

	</g>

	<g
   id="g6">
		<g
   id="g5">
			<path
   class="st1"
   d="M 66.36,94.17 V 65.56 h -4.43 v 32.1 h 19.02 v -3.5 H 66.36 Z"
   id="path3"
   style="fill:#4d4e4e" />

			<path
   class="st1"
   d="m 85.7,74.64 v 23.03 h 4.43 V 74.64 Z m 2.23,-9.13 c -1.64,0 -2.77,1.17 -2.77,2.61 0,1.42 1.07,2.6 2.69,2.6 1.77,0 2.83,-1.18 2.83,-2.6 -0.02,-1.47 -1.09,-2.61 -2.75,-2.61 z"
   id="path4"
   style="fill:#4d4e4e" />

			<path
   class="st1"
   d="m 110.42,74.11 c -3.95,0 -6.79,1.63 -8.35,4.22 h -0.11 V 65.51 h -4.43 v 26.22 c 0,2.05 -0.08,4.35 -0.21,5.94 h 3.84 l 0.22,-3.78 h 0.13 c 1.84,3 4.67,4.31 8.2,4.31 5.46,0 11.03,-4.09 11.03,-12.36 0.03,-6.98 -4.24,-11.73 -10.32,-11.73 z m -1.59,20.75 c -3.22,0 -5.85,-1.99 -6.68,-4.91 -0.13,-0.47 -0.19,-1 -0.19,-1.51 V 84.3 c 0,-0.67 0.12,-1.23 0.26,-1.74 0.89,-3.16 3.72,-5.15 6.74,-5.15 4.76,0 7.3,3.96 7.3,8.59 0.01,5.29 -2.75,8.86 -7.43,8.86 z"
   id="path5"
   style="fill:#4d4e4e" />

		</g>

	</g>

	<g
   id="g10">
		<polygon
   class="st0"
   points="23.79,65.51 23.79,68.54 14.04,68.54 3.89,81.59 14.04,94.63 22.01,94.63 24.6,83.14 27.71,83.14 24.44,97.67 12.55,97.67 0.04,81.59 12.55,65.51 "
   id="polygon6"
   style="fill:#aa182c" />

		<polygon
   class="st1"
   points="49.1,81.59 38.95,68.54 30.99,68.54 28.4,80.04 25.29,80.04 28.56,65.51 40.44,65.51 52.94,81.59 40.44,97.67 29.2,97.67 29.2,94.63 38.95,94.63 "
   id="polygon7"
   style="fill:#4d4e4e" />

		<g
   id="g9">
			<polygon
   class="st0"
   points="15.51,91.53 7.82,81.59 15.51,71.64 19.34,71.64 11.66,81.59 19.23,91.38 19.04,91.53 "
   id="polygon8"
   style="fill:#aa182c" />

			<polygon
   class="st1"
   points="37.48,91.53 45.17,81.59 37.48,71.64 33.66,71.64 41.34,81.59 33.76,91.38 33.96,91.53 "
   id="polygon9"
   style="fill:#4d4e4e" />

		</g>

	</g>

</g>
</svg>
