<?xml version="1.0" encoding="UTF-8" standalone="no"?>
<svg
   xmlns:dc="http://purl.org/dc/elements/1.1/"
   xmlns:cc="http://creativecommons.org/ns#"
   xmlns:rdf="http://www.w3.org/1999/02/22-rdf-syntax-ns#"
   xmlns:svg="http://www.w3.org/2000/svg"
   xmlns="http://www.w3.org/2000/svg"
   width="904.33594"
   height="1122.0382"
   viewBox="0 0 239.27168 296.87156"
   version="1.1"
   id="svg8">
  <g
     style="display:inline"
     id="layer1"
     transform="translate(-7.9122613,-2.3895986)">
    <path
       style="fill:#ac2b37;fill-opacity:1;stroke-width:0.27816623"
       id="path32"
       d="m 176.7689,173.82025 -98.975642,-10e-6 -49.487815,-85.715417 49.487824,-85.7154156 98.975643,4.9e-6 49.48781,85.7154207 z" />
  </g>
  <g
     transform="translate(-7.9122613,82.94368)"
     style="display:inline"
     id="layer2">
    <g
       transform="translate(127.28108,2.7714802)"
       id="g848">
      <path
         d="m 72.90834,-5.32467 5.30845,1.2255 5.3119,2.41189 v 3.37456 l -5.3119,2.41189 -5.30845,1.2255 -0.48616,4.62552 4.93765,2.3024 4.69437,3.46359 -0.70161,3.30082 -5.69729,1.25478 -5.44724,0.09503 -1.43724,4.42336 4.35105,3.27869 3.87167,4.36391 -1.37256,3.08282 -5.83367,0.04282 -5.34796,-1.03959 -2.3255,4.02788 3.57429,4.11168 2.87975,5.07352 -1.98352,2.73007 -5.71509,-1.171 -5.01495,-2.12878 -3.11213,3.45637 2.64132,4.76496 1.76198,5.56139 -2.50779,2.25802 -5.34674,-2.33365 -4.46277,-3.12493 -3.76273,2.73379 1.59291,5.21 0.5672,5.80619 -2.92246,1.68728 -4.74471,-3.3943 -3.71554,-3.9845 -4.24889,1.89173 0.47488,5.42733 -0.65237,5.79724 -3.2094,1.0428 -3.93531,-4.30661 -2.80592,-4.66994 -4.54937,0.967 -0.6639,5.40747 -1.84343,5.53492 -3.35607,0.35274 -2.95392,-5.0307 -1.77367,-5.15127 h -4.651 l -1.77367,5.15127 -2.95392,5.0307 -3.35607,-0.35274 -1.84343,-5.53492 -0.6639,-5.40747 -4.54937,-0.967 -2.80592,4.66994 -3.93531,4.30661 -3.2094,-1.0428 -0.65237,-5.79724 0.47488,-5.42733 -4.24889,-1.89173 -3.71554,3.9845 -4.74471,3.3943 -2.92246,-1.68728 0.5672,-5.80619 1.59291,-5.21 -3.76273,-2.73379 -4.46277,3.12493 -5.34674,2.33365 -2.50779,-2.25802 1.76198,-5.56139 2.64132,-4.76496 -3.11213,-3.45637 -5.01495,2.12878 -5.71509,1.171 -1.98352,-2.73007 2.87975,-5.07352 3.57429,-4.11168 -2.3255,-4.02788 -5.34796,1.03959 -5.83367,-0.04282 -1.37256,-3.08282 3.87167,-4.36391 4.35105,-3.27869 -1.43724,-4.42336 -5.44724,-0.09503 -5.69729,-1.25478 -0.70161,-3.30082 4.69437,-3.46359 4.93765,-2.3024 -0.48616,-4.62552 -5.30845,-1.2255 -5.3119,-2.41189 v -3.37456 l 5.3119,-2.41189 5.30845,-1.2255 0.48616,-4.62552 -4.93765,-2.3024 -4.69437,-3.46359 0.70161,-3.30082 5.69729,-1.25478 5.44724,-0.09503 1.43724,-4.42336 -4.35105,-3.27869 -3.87167,-4.36391 1.37256,-3.08282 5.83367,-0.04282 5.34796,1.03959 2.3255,-4.02788 -3.57429,-4.11168 -2.87975,-5.07352 1.98352,-2.73007 5.71509,1.171 5.01495,2.12878 3.11213,-3.45637 -2.64132,-4.76496 -1.76198,-5.56139 2.50779,-2.25802 5.34674,2.33365 4.46277,3.12493 3.76273,-2.73379 -1.59291,-5.21 -0.5672,-5.80619 2.92246,-1.68728 4.74471,3.3943 3.71554,3.9845 4.24889,-1.89173 -0.47488,-5.42733 0.65237,-5.79724 3.2094,-1.0428 3.93531,4.30661 2.80592,4.66994 4.54937,-0.967 0.6639,-5.40747 1.84343,-5.53492 3.35607,-0.35274 2.95392,5.0307 1.77367,5.15127 h 4.651 l 1.77367,-5.15127 2.95392,-5.0307 3.35607,0.35274 1.84343,5.53492 0.6639,5.40747 4.54937,0.967 2.80592,-4.66994 3.93531,-4.30661 3.2094,1.0428 0.65237,5.79724 -0.47488,5.42733 4.24889,1.89173 3.71554,-3.9845 4.74471,-3.3943 2.92246,1.68728 -0.5672,5.80619 -1.59291,5.21 3.76273,2.73379 4.46277,-3.12493 5.34674,-2.33365 2.50779,2.25802 -1.76198,5.56139 -2.64132,4.76496 3.11213,3.45637 5.01495,-2.12878 5.71509,-1.171 1.98352,2.73007 -2.87975,5.07352 -3.57429,4.11168 2.3255,4.02788 5.34796,-1.03959 5.83367,0.04282 1.37256,3.08282 -3.87167,4.36391 -4.35105,3.27869 1.43724,4.42336 5.44724,0.09503 5.69729,1.25478 0.70161,3.30082 -4.69437,3.46359 -4.93765,2.3024 z"
         style="fill:#262626;fill-opacity:1;stroke:#000000;stroke-width:0.26458332"
         id="path844" />
    </g>
  </g>
  <g
     style="display:inline"
     transform="translate(-1.5669633,102.61871)"
     id="layer3">
    <g
       id="text4529"
       style="font-style:normal;font-variant:normal;font-weight:normal;font-stretch:normal;font-size:25.3999424px;line-height:125%;font-family:sans-serif;-inkscape-font-specification:sans-serif;letter-spacing:0px;word-spacing:0px;fill:#000000;fill-opacity:1;stroke:none;stroke-width:0.26458272px;stroke-linecap:butt;stroke-linejoin:miter;stroke-opacity:1"
       aria-label="WPILib">
      <path
         id="path4524"
         style="font-style:normal;font-variant:normal;font-weight:bold;font-stretch:normal;font-size:63.49985886px;line-height:100%;font-family:'DejaVu Sans';-inkscape-font-specification:'DejaVu Sans Bold';text-align:center;letter-spacing:-0.79374826px;text-anchor:middle;fill:#262626;fill-opacity:1;stroke-width:0.26458272px"
         d="M 1.5669633,94.347088 H 13.0081 l 7.999494,33.641282 7.937482,-33.641282 h 11.503149 l 7.937482,33.641282 7.999494,-33.641282 H 67.73332 L 56.819282,140.63873 H 43.052711 L 34.650142,105.44716 26.34059,140.63873 H 12.574019 Z" />
      <path
         id="path4526"
         style="font-style:normal;font-variant:normal;font-weight:bold;font-stretch:normal;font-size:63.49985886px;line-height:100%;font-family:'DejaVu Sans';-inkscape-font-specification:'DejaVu Sans Bold';text-align:center;letter-spacing:-0.79374826px;text-anchor:middle;fill:#262626;fill-opacity:1;stroke-width:0.26458272px"
         d="m 74.784041,94.347088 h 19.8127 q 8.836649,0 13.549529,3.937735 4.74389,3.906727 4.74389,11.162087 0,7.28636 -4.74389,11.22409 -4.71288,3.90673 -13.549529,3.90673 h -7.87547 v 16.061 h -11.93723 z m 11.93723,8.650612 v 12.92942 h 6.604233 q 3.472649,0 5.364002,-1.67431 1.891354,-1.70532 1.891354,-4.8059 0,-3.10058 -1.891354,-4.77489 -1.891353,-1.67432 -5.364002,-1.67432 z" />
      <path
         id="path4528"
         style="font-style:normal;font-variant:normal;font-weight:bold;font-stretch:normal;font-size:63.49985886px;line-height:100%;font-family:'DejaVu Sans';-inkscape-font-specification:'DejaVu Sans Bold';text-align:center;letter-spacing:-0.79374826px;text-anchor:middle;fill:#262626;fill-opacity:1;stroke-width:0.26458272px"
         d="m 120.49898,94.347088 h 11.93723 v 46.291642 h -11.93723 z" />
      <path
         id="path4530"
         style="font-style:normal;font-variant:normal;font-weight:bold;font-stretch:normal;font-size:63.49985886px;line-height:100%;font-family:'DejaVu Sans';-inkscape-font-specification:'DejaVu Sans Bold';text-align:center;letter-spacing:-0.79374826px;text-anchor:middle;fill:#262626;fill-opacity:1;stroke-width:0.26458272px"
         d="m 143.39365,94.347088 h 11.93722 v 37.268962 h 20.95992 v 9.02268 h -32.89714 z" />
      <path
         id="path4532"
         style="font-style:normal;font-variant:normal;font-weight:bold;font-stretch:normal;font-size:63.49985886px;line-height:100%;font-family:'DejaVu Sans';-inkscape-font-specification:'DejaVu Sans Bold';text-align:center;letter-spacing:-0.79374826px;text-anchor:middle;fill:#262626;fill-opacity:1;stroke-width:0.26458272px"
         d="m 182.53535,105.91225 h 11.10008 v 34.72648 h -11.10008 z m 0,-13.518527 h 11.10008 v 9.053687 h -11.10008 z" />
      <path
         id="path4534"
         style="font-style:normal;font-variant:normal;font-weight:bold;font-stretch:normal;font-size:63.49985886px;line-height:100%;font-family:'DejaVu Sans';-inkscape-font-specification:'DejaVu Sans Bold';text-align:center;letter-spacing:-0.79374826px;text-anchor:middle;fill:#262626;fill-opacity:1;stroke-width:0.26458272px"
         d="m 222.04914,133.4764 q 3.56566,0 5.42601,-2.60449 1.89135,-2.60449 1.89135,-7.56541 0,-4.96093 -1.89135,-7.56542 -1.86035,-2.60448 -5.42601,-2.60448 -3.56567,0 -5.48803,2.63549 -1.89135,2.60449 -1.89135,7.53441 0,4.92992 1.89135,7.56541 1.92236,2.60449 5.48803,2.60449 z m -7.37938,-22.4792 q 2.29443,-3.03857 5.08495,-4.46484 2.79052,-1.45727 6.4182,-1.45727 6.4182,0 10.54197,5.11596 4.12377,5.08495 4.12377,13.11545 0,8.0305 -4.12377,13.14645 -4.12377,5.08495 -10.54197,5.08495 -3.62768,0 -6.4182,-1.42627 -2.79052,-1.45727 -5.08495,-4.49584 v 5.02294 H 203.56969 V 92.393723 h 11.10007 z" />
    </g>
    <g
       id="g7"
       style="display:inline"
       transform="translate(15.614844,-122.29229)">
      <path
         id="path4489"
         style="font-weight:bold;fill:#a9b0b7;fill-opacity:1;stroke-width:1.0990752px"
         d="M 50.350001,69.576383 H 69.360568 L 82.652509,125.47466 95.841412,69.576383 h 19.113608 l 13.1889,55.898277 13.29194,-55.898277 h 18.85601 l -18.13474,76.918097 h -22.8745 L 105.32094,88.020239 91.513803,146.49448 H 68.6393 Z" />
    </g>
    <text
       id="text19"
       y="83.777885"
       x="13.001038"
       style="font-style:normal;font-variant:normal;font-weight:normal;font-stretch:normal;font-size:25.40000153px;line-height:125%;font-family:sans-serif;-inkscape-font-specification:sans-serif;letter-spacing:0px;word-spacing:0px;fill:#000000;fill-opacity:1;stroke:none;stroke-width:0.26458335px;stroke-linecap:butt;stroke-linejoin:miter;stroke-opacity:1"
       xml:space="preserve"><tspan
         id="tspan21"
         style="font-weight:bold;stroke-width:0.26458335px"
         y="106.25093"
         x="13.001038" /></text>
    <text
       id="text29"
       y="89.9207"
       x="59.884418"
       style="font-style:normal;font-variant:normal;font-weight:normal;font-stretch:normal;font-size:25.40000153px;line-height:125%;font-family:sans-serif;-inkscape-font-specification:sans-serif;letter-spacing:0px;word-spacing:0px;fill:#000000;fill-opacity:1;stroke:none;stroke-width:0.26458335px;stroke-linecap:butt;stroke-linejoin:miter;stroke-opacity:1"
       xml:space="preserve"><tspan
         style="stroke-width:0.26458335px"
         y="112.39375"
         x="59.884418"
         id="tspan27" /></text>
    <text
       id="text35"
       y="71.622688"
       x="24.951841"
       style="font-style:normal;font-variant:normal;font-weight:normal;font-stretch:normal;font-size:25.40000153px;line-height:125%;font-family:sans-serif;-inkscape-font-specification:sans-serif;letter-spacing:0px;word-spacing:0px;fill:#000000;fill-opacity:1;stroke:none;stroke-width:0.26458335px;stroke-linecap:butt;stroke-linejoin:miter;stroke-opacity:1"
       xml:space="preserve"><tspan
         style="stroke-width:0.26458335px"
         y="94.095734"
         x="24.951841"
         id="tspan33" /></text>
    <text
       id="text52"
       y="84.370041"
       x="3.4738271"
       style="font-style:normal;font-variant:normal;font-weight:bold;font-stretch:normal;font-size:25.3999424px;line-height:125%;font-family:sans-serif;-inkscape-font-specification:'sans-serif Bold';letter-spacing:0px;word-spacing:0px;fill:#000000;fill-opacity:1;stroke:none;stroke-width:0.26458272px;stroke-linecap:butt;stroke-linejoin:miter;stroke-opacity:1"
       xml:space="preserve"><tspan
         style="font-style:normal;font-variant:normal;font-weight:bold;font-stretch:normal;font-family:sans-serif;-inkscape-font-specification:'sans-serif Bold';stroke-width:0.26458272px"
         y="106.84304"
         x="3.4738271"
         id="tspan49" /></text>
    <flowRoot
       style="font-style:normal;font-variant:normal;font-weight:normal;font-stretch:normal;font-size:96px;line-height:125%;font-family:sans-serif;-inkscape-font-specification:sans-serif;letter-spacing:0px;word-spacing:0px;fill:#000000;fill-opacity:1;stroke:none;stroke-width:1px;stroke-linecap:butt;stroke-linejoin:miter;stroke-opacity:1"
       id="flowRoot66"
       xml:space="preserve"><flowRegion
         id="flowRegion68"><rect
           y="631.19177"
           x="-421.44186"
           height="291.31927"
           width="225.2869"
           id="rect70" /></flowRegion><flowPara
         id="flowPara72" /></flowRoot>    <text
       id="text4514"
       y="206.60857"
       x="8.3889551"
       style="font-style:normal;font-variant:normal;font-weight:normal;font-stretch:normal;font-size:25.3999424px;line-height:125%;font-family:sans-serif;-inkscape-font-specification:sans-serif;letter-spacing:0px;word-spacing:0px;fill:#000000;fill-opacity:1;stroke:none;stroke-width:0.26458272px;stroke-linecap:butt;stroke-linejoin:miter;stroke-opacity:1"
       xml:space="preserve"><tspan
         style="stroke-width:0.26458272px"
         y="229.08156"
         x="8.3889551"
         id="tspan4512"></tspan></text>
    <g
       id="text4518"
       style="font-style:normal;font-variant:normal;font-weight:normal;font-stretch:normal;font-size:25.3999424px;line-height:125%;font-family:sans-serif;-inkscape-font-specification:sans-serif;letter-spacing:0px;word-spacing:0px;fill:#000000;fill-opacity:1;stroke:none;stroke-width:0.26458272px;stroke-linecap:butt;stroke-linejoin:miter;stroke-opacity:1"
       aria-label="Developer">
      <path
         id="path4537"
         style="font-weight:bold;font-size:42.33323669px;letter-spacing:-0.52916551px;fill:#262626;fill-opacity:1;stroke-width:0.26458272px"
         d="m 11.429911,160.60142 v 18.83084 h 2.852533 q 4.878244,0 7.441389,-2.41845 2.583816,-2.41845 2.583816,-7.02798 0,-4.58885 -2.563146,-6.98663 -2.563145,-2.39778 -7.462059,-2.39778 z m -7.9581523,-6.01513 h 8.3922333 q 7.027979,0 10.459286,1.01286 3.451978,0.99218 5.911771,3.38996 2.170405,2.08773 3.224602,4.81624 1.054196,2.72851 1.054196,6.18048 0,3.49332 -1.054196,6.2425 -1.054197,2.72851 -3.224602,4.81624 -2.480464,2.39778 -5.953112,3.41063 -3.472648,0.99219 -10.417945,0.99219 H 3.4717587 Z" />
      <path
         id="path4539"
         style="font-weight:bold;font-size:42.33323669px;letter-spacing:-0.52916551px;fill:#262626;fill-opacity:1;stroke-width:0.26458272px"
         d="m 60.861403,173.80988 v 2.1084 h -17.30123 q 0.268717,2.60448 1.881018,3.90672 1.612301,1.30225 4.506175,1.30225 2.335769,0 4.774891,-0.68213 2.459793,-0.7028 5.043609,-2.10839 v 5.70506 q -2.625157,0.99219 -5.250314,1.48828 -2.625157,0.51676 -5.250313,0.51676 -6.28384,0 -9.777159,-3.18326 -3.472648,-3.20393 -3.472648,-8.97101 0,-5.66372 3.410636,-8.90899 3.431308,-3.24528 9.42576,-3.24528 5.457019,0 8.722962,3.28662 3.286613,3.28661 3.286613,8.78497 z m -7.606753,-2.45979 q 0,-2.10839 -1.240232,-3.38997 -1.219561,-1.30224 -3.203931,-1.30224 -2.149735,0 -3.493319,1.21956 -1.343584,1.19889 -1.674312,3.47265 z" />
      <path
         id="path4541"
         style="font-weight:bold;font-size:42.33323669px;letter-spacing:-0.52916551px;fill:#262626;fill-opacity:1;stroke-width:0.26458272px"
         d="m 62.998737,162.2964 h 7.400049 l 5.767076,15.99899 5.746406,-15.99899 h 7.420719 l -9.115702,23.15099 h -8.123516 z" />
      <path
         id="path4543"
         style="font-weight:bold;font-size:42.33323669px;letter-spacing:-0.52916551px;fill:#262626;fill-opacity:1;stroke-width:0.26458272px"
         d="m 116.10959,173.80988 v 2.1084 H 98.808358 q 0.268716,2.60448 1.881022,3.90672 1.6123,1.30225 4.50617,1.30225 2.33577,0 4.77489,-0.68213 2.45979,-0.7028 5.04361,-2.10839 v 5.70506 q -2.62516,0.99219 -5.25031,1.48828 -2.62516,0.51676 -5.25032,0.51676 -6.283837,0 -9.777156,-3.18326 -3.472648,-3.20393 -3.472648,-8.97101 0,-5.66372 3.410637,-8.90899 3.431307,-3.24528 9.425757,-3.24528 5.45702,0 8.72296,3.28662 3.28662,3.28661 3.28662,8.78497 z m -7.60676,-2.45979 q 0,-2.10839 -1.24023,-3.38997 -1.21956,-1.30224 -3.20393,-1.30224 -2.14973,0 -3.49332,1.21956 -1.343582,1.19889 -1.67431,3.47265 z" />
      <path
         id="path4545"
         style="font-weight:bold;font-size:42.33323669px;letter-spacing:-0.52916551px;fill:#262626;fill-opacity:1;stroke-width:0.26458272px"
         d="m 121.16146,153.28405 h 7.40005 v 32.16334 h -7.40005 z" />
      <path
         id="path4547"
         style="font-weight:bold;font-size:42.33323669px;letter-spacing:-0.52916551px;fill:#262626;fill-opacity:1;stroke-width:0.26458272px"
         d="m 146.20174,167.02995 q -2.45979,0 -3.76204,1.77766 -1.28157,1.757 -1.28157,5.08495 0,3.32796 1.28157,5.10562 1.30225,1.757 3.76204,1.757 2.41845,0 3.70002,-1.757 1.28158,-1.77766 1.28158,-5.10562 0,-3.32795 -1.28158,-5.08495 -1.28157,-1.77766 -3.70002,-1.77766 z m 0,-5.29166 q 5.97378,0 9.32241,3.22461 3.36929,3.2246 3.36929,8.92966 0,5.70507 -3.36929,8.92967 -3.34863,3.2246 -9.32241,3.2246 -5.99445,0 -9.38442,-3.2246 -3.36929,-3.2246 -3.36929,-8.92967 0,-5.70506 3.36929,-8.92966 3.38997,-3.22461 9.38442,-3.22461 z" />
      <path
         id="path4549"
         style="font-weight:bold;font-size:42.33323669px;letter-spacing:-0.52916551px;fill:#262626;fill-opacity:1;stroke-width:0.26458272px"
         d="m 171.15933,182.09876 v 12.15427 h -7.40004 V 162.2964 h 7.40004 v 3.38997 q 1.52962,-2.02572 3.38997,-2.97656 1.86035,-0.97152 4.2788,-0.97152 4.2788,0 7.02798,3.41064 2.74918,3.38997 2.74918,8.74363 0,5.35367 -2.74918,8.76431 -2.74918,3.38996 -7.02798,3.38996 -2.41845,0 -4.2788,-0.95084 -1.86035,-0.97152 -3.38997,-2.99723 z m 4.91959,-14.98613 q -2.37711,0 -3.65868,1.757 -1.26091,1.73632 -1.26091,5.02293 0,3.28662 1.26091,5.04361 1.28157,1.73633 3.65868,1.73633 2.37711,0 3.61734,-1.73633 1.2609,-1.73632 1.2609,-5.04361 0,-3.30728 -1.2609,-5.0436 -1.24023,-1.73633 -3.61734,-1.73633 z" />
      <path
         id="path4551"
         style="font-weight:bold;font-size:42.33323669px;letter-spacing:-0.52916551px;fill:#262626;fill-opacity:1;stroke-width:0.26458272px"
         d="m 216.68409,173.80988 v 2.1084 h -17.30123 q 0.26872,2.60448 1.88102,3.90672 1.6123,1.30225 4.50617,1.30225 2.33577,0 4.77489,-0.68213 2.4598,-0.7028 5.04361,-2.10839 v 5.70506 q -2.62516,0.99219 -5.25031,1.48828 -2.62516,0.51676 -5.25032,0.51676 -6.28384,0 -9.77715,-3.18326 -3.47265,-3.20393 -3.47265,-8.97101 0,-5.66372 3.41063,-8.90899 3.43131,-3.24528 9.42576,-3.24528 5.45702,0 8.72297,3.28662 3.28661,3.28661 3.28661,8.78497 z m -7.60675,-2.45979 q 0,-2.10839 -1.24024,-3.38997 -1.21956,-1.30224 -3.20393,-1.30224 -2.14973,0 -3.49332,1.21956 -1.34358,1.19889 -1.67431,3.47265 z" />
      <path
         id="path4553"
         style="font-weight:bold;font-size:42.33323669px;letter-spacing:-0.52916551px;fill:#262626;fill-opacity:1;stroke-width:0.26458272px"
         d="m 238.93385,168.60091 q -0.97152,-0.45475 -1.94303,-0.66146 -0.95085,-0.22737 -1.92236,-0.22737 -2.85253,0 -4.40282,1.83967 -1.52962,1.81901 -1.52962,5.22965 v 10.66599 h -7.40005 V 162.2964 h 7.40005 v 3.80338 q 1.42626,-2.27376 3.26594,-3.30729 1.86035,-1.0542 4.44416,-1.0542 0.37207,0 0.80616,0.0413 0.43408,0.0207 1.2609,0.12402 z" />
    </g>
  </g>
</svg>
