<?xml version="1.0" encoding="UTF-8" standalone="no"?>
<svg
   xmlns:dc="http://purl.org/dc/elements/1.1/"
   xmlns:cc="http://creativecommons.org/ns#"
   xmlns:rdf="http://www.w3.org/1999/02/22-rdf-syntax-ns#"
   xmlns:svg="http://www.w3.org/2000/svg"
   xmlns="http://www.w3.org/2000/svg"
   xmlns:sodipodi="http://sodipodi.sourceforge.net/DTD/sodipodi-0.dtd"
   xmlns:inkscape="http://www.inkscape.org/namespaces/inkscape"
   width="3893.5864"
   height="647.92755"
   viewBox="0 0 1030.177 171.43084"
   version="1.1"
   id="svg8">
  <g
     style="display:inline"
     inkscape:label="Hexagon"
     inkscape:groupmode="layer"
     id="layer1"
     transform="translate(-6.3457294,-91.747318)">
    <path
       d="m 154.80875,263.17816 -98.975636,-10e-6 -49.4878152,-85.71542 49.4878242,-85.715412 98.975637,4e-6 49.48782,85.715418 z"
       inkscape:transform-center-y="-6.945032e-06"
       inkscape:transform-center-x="1.0148083e-05"
       style="fill:#ac2b37;fill-opacity:1;stroke-width:0.278166"
       id="path32" />
  </g>
  <g
     transform="translate(-6.3457294,-6.4139226)"
     style="display:inline"
     inkscape:label="Gear"
     id="layer2"
     inkscape:groupmode="layer">
    <g
       transform="translate(105.32094,92.129391)"
       inkscape:label="Gear30"
       id="g848">
      <path
         inkscape:connector-curvature="0"
         d="m 72.90834,-5.32467 5.30845,1.2255 5.3119,2.41189 v 3.37456 l -5.3119,2.41189 -5.30845,1.2255 -0.48616,4.62552 4.93765,2.3024 4.69437,3.46359 -0.70161,3.30082 -5.69729,1.25478 -5.44724,0.09503 -1.43724,4.42336 4.35105,3.27869 3.87167,4.36391 -1.37256,3.08282 -5.83367,0.04282 -5.34796,-1.03959 -2.3255,4.02788 3.57429,4.11168 2.87975,5.07352 -1.98352,2.73007 -5.71509,-1.171 -5.01495,-2.12878 -3.11213,3.45637 2.64132,4.76496 1.76198,5.56139 -2.50779,2.25802 -5.34674,-2.33365 -4.46277,-3.12493 -3.76273,2.73379 1.59291,5.21 0.5672,5.80619 -2.92246,1.68728 -4.74471,-3.3943 -3.71554,-3.9845 -4.24889,1.89173 0.47488,5.42733 -0.65237,5.79724 -3.2094,1.0428 -3.93531,-4.30661 -2.80592,-4.66994 -4.54937,0.967 -0.6639,5.40747 -1.84343,5.53492 -3.35607,0.35274 -2.95392,-5.0307 -1.77367,-5.15127 h -4.651 l -1.77367,5.15127 -2.95392,5.0307 -3.35607,-0.35274 -1.84343,-5.53492 -0.6639,-5.40747 -4.54937,-0.967 -2.80592,4.66994 -3.93531,4.30661 -3.2094,-1.0428 -0.65237,-5.79724 0.47488,-5.42733 -4.24889,-1.89173 -3.71554,3.9845 -4.74471,3.3943 -2.92246,-1.68728 0.5672,-5.80619 1.59291,-5.21 -3.76273,-2.73379 -4.46277,3.12493 -5.34674,2.33365 -2.50779,-2.25802 1.76198,-5.56139 2.64132,-4.76496 -3.11213,-3.45637 -5.01495,2.12878 -5.71509,1.171 -1.98352,-2.73007 2.87975,-5.07352 3.57429,-4.11168 -2.3255,-4.02788 -5.34796,1.03959 -5.83367,-0.04282 -1.37256,-3.08282 3.87167,-4.36391 4.35105,-3.27869 -1.43724,-4.42336 -5.44724,-0.09503 -5.69729,-1.25478 -0.70161,-3.30082 4.69437,-3.46359 4.93765,-2.3024 -0.48616,-4.62552 -5.30845,-1.2255 -5.3119,-2.41189 v -3.37456 l 5.3119,-2.41189 5.30845,-1.2255 0.48616,-4.62552 -4.93765,-2.3024 -4.69437,-3.46359 0.70161,-3.30082 5.69729,-1.25478 5.44724,-0.09503 1.43724,-4.42336 -4.35105,-3.27869 -3.87167,-4.36391 1.37256,-3.08282 5.83367,-0.04282 5.34796,1.03959 2.3255,-4.02788 -3.57429,-4.11168 -2.87975,-5.07352 1.98352,-2.73007 5.71509,1.171 5.01495,2.12878 3.11213,-3.45637 -2.64132,-4.76496 -1.76198,-5.56139 2.50779,-2.25802 5.34674,2.33365 4.46277,3.12493 3.76273,-2.73379 -1.59291,-5.21 -0.5672,-5.80619 2.92246,-1.68728 4.74471,3.3943 3.71554,3.9845 4.24889,-1.89173 -0.47488,-5.42733 0.65237,-5.79724 3.2094,-1.0428 3.93531,4.30661 2.80592,4.66994 4.54937,-0.967 0.6639,-5.40747 1.84343,-5.53492 3.35607,-0.35274 2.95392,5.0307 1.77367,5.15127 h 4.651 l 1.77367,-5.15127 2.95392,-5.0307 3.35607,0.35274 1.84343,5.53492 0.6639,5.40747 4.54937,0.967 2.80592,-4.66994 3.93531,-4.30661 3.2094,1.0428 0.65237,5.79724 -0.47488,5.42733 4.24889,1.89173 3.71554,-3.9845 4.74471,-3.3943 2.92246,1.68728 -0.5672,5.80619 -1.59291,5.21 3.76273,2.73379 4.46277,-3.12493 5.34674,-2.33365 2.50779,2.25802 -1.76198,5.56139 -2.64132,4.76496 3.11213,3.45637 5.01495,-2.12878 5.71509,-1.171 1.98352,2.73007 -2.87975,5.07352 -3.57429,4.11168 2.3255,4.02788 5.34796,-1.03959 5.83367,0.04282 1.37256,3.08282 -3.87167,4.36391 -4.35105,3.27869 1.43724,4.42336 5.44724,0.09503 5.69729,1.25478 0.70161,3.30082 -4.69437,3.46359 -4.93765,2.3024 z"
         style="fill:#262626;fill-opacity:1;stroke:#000000;stroke-width:0.264583"
         id="path844" />
    </g>
  </g>
  <g
     style="display:inline"
     transform="translate(-4.3060808e-4,13.260212)"
     inkscape:label="Text"
     id="layer3"
     inkscape:groupmode="layer">
    <g
       id="g7"
       style="display:inline"
       transform="translate(-6.3452965,-32.934384)">
      <path
         id="path4489"
         style="font-weight:bold;fill:#a9b0b7;fill-opacity:1;stroke-width:1.09908px"
         d="M 50.350001,69.576383 H 69.360568 L 82.652509,125.47466 95.841412,69.576383 h 19.113608 l 13.1889,55.898277 13.29194,-55.898277 h 18.85601 l -18.13474,76.918097 h -22.8745 L 105.32094,88.020239 91.513803,146.49448 H 68.6393 Z"
         inkscape:connector-curvature="0" />
    </g>
    <g
       transform="matrix(2.8559643,0,0,2.8559643,-420.30366,58.191905)"
       id="text3692"
       style="font-style:normal;font-variant:normal;font-weight:normal;font-stretch:normal;font-size:25.4px;line-height:125%;font-family:sans-serif;-inkscape-font-specification:sans-serif;letter-spacing:0px;word-spacing:0px;fill:#000000;fill-opacity:1;stroke:none;stroke-width:0.264583px;stroke-linecap:butt;stroke-linejoin:miter;stroke-opacity:1"
       aria-label="WPILib Software Development">
      <g
         style="font-style:normal;font-variant:normal;font-weight:normal;font-stretch:normal;font-size:8.89367px;line-height:125%;font-family:sans-serif;-inkscape-font-specification:sans-serif;letter-spacing:0px;word-spacing:0px;fill:#000000;fill-opacity:1;stroke:none;stroke-width:0.0926424px;stroke-linecap:butt;stroke-linejoin:miter;stroke-opacity:1"
         id="text45" />
      <g
         style="font-style:normal;font-variant:normal;font-weight:normal;font-stretch:normal;font-size:8.89367px;line-height:125%;font-family:sans-serif;-inkscape-font-specification:sans-serif;letter-spacing:0px;word-spacing:0px;fill:#262626;fill-opacity:1;stroke:none;stroke-width:0.0926424px;stroke-linecap:butt;stroke-linejoin:miter;stroke-opacity:1"
         id="text49"
         aria-label="WPILib
Development Team">
        <path
           id="path25"
           style="font-style:normal;font-variant:normal;font-weight:bold;font-stretch:normal;font-size:26.681px;line-height:125%;font-family:'DejaVu Sans';-inkscape-font-specification:'DejaVu Sans Bold';fill:#262626;fill-opacity:1;stroke-width:0.0926424px"
           d="m 222.89422,-23.771238 h 4.80727 l 3.36118,14.1351977 3.33512,-14.1351977 h 4.83333 l 3.33512,14.1351977 3.36118,-14.1351977 h 4.76819 l -4.5858,19.4505531 h -5.78436 l -3.53054,-14.7865891 -3.49146,14.7865891 h -5.78435 z" />
        <path
           id="path27"
           style="font-style:normal;font-variant:normal;font-weight:bold;font-stretch:normal;font-size:26.681px;line-height:125%;font-family:'DejaVu Sans';-inkscape-font-specification:'DejaVu Sans Bold';fill:#262626;fill-opacity:1;stroke-width:0.0926424px"
           d="m 253.97862,-23.771238 h 8.32479 q 3.71293,0 5.69316,1.654535 1.99326,1.641507 1.99326,4.690019 0,3.061541 -1.99326,4.716075 -1.98023,1.641507 -5.69316,1.641507 h -3.30907 v 6.7484171 h -5.01572 z m 5.01572,3.634765 v 5.432606 h 2.77493 q 1.45911,0 2.25381,-0.703503 0.7947,-0.716531 0.7947,-2.019314 0,-1.302783 -0.7947,-2.006286 -0.7947,-0.703503 -2.25381,-0.703503 z" />
        <path
           id="path29"
           style="font-style:normal;font-variant:normal;font-weight:bold;font-stretch:normal;font-size:26.681px;line-height:125%;font-family:'DejaVu Sans';-inkscape-font-specification:'DejaVu Sans Bold';fill:#262626;fill-opacity:1;stroke-width:0.0926424px"
           d="m 273.5334,-23.771238 h 5.01572 v 19.4505531 h -5.01572 z" />
        <path
           id="path31"
           style="font-style:normal;font-variant:normal;font-weight:bold;font-stretch:normal;font-size:26.681px;line-height:125%;font-family:'DejaVu Sans';-inkscape-font-specification:'DejaVu Sans Bold';fill:#262626;fill-opacity:1;stroke-width:0.0926424px"
           d="m 283.46061,-23.771238 h 5.01571 v 15.659454 h 8.80682 v 3.7910991 h -13.82253 z" />
        <path
           id="path33"
           style="font-style:normal;font-variant:normal;font-weight:bold;font-stretch:normal;font-size:26.681px;line-height:125%;font-family:'DejaVu Sans';-inkscape-font-specification:'DejaVu Sans Bold';fill:#262626;fill-opacity:1;stroke-width:0.0926424px"
           d="m 300.25348,-18.911857 h 4.66397 v 14.5911721 h -4.66397 z m 0,-5.680134 h 4.66397 v 3.804127 h -4.66397 z" />
        <path
           id="path35"
           style="font-style:normal;font-variant:normal;font-weight:bold;font-stretch:normal;font-size:26.681px;line-height:125%;font-family:'DejaVu Sans';-inkscape-font-specification:'DejaVu Sans Bold';fill:#262626;fill-opacity:1;stroke-width:0.0926424px"
           d="m 317.16361,-7.3301141 q 1.4982,0 2.27987,-1.0943379 0.7947,-1.0943378 0.7947,-3.178791 0,-2.084453 -0.7947,-3.178791 -0.78167,-1.094338 -2.27987,-1.094338 -1.4982,0 -2.30593,1.107366 -0.7947,1.094338 -0.7947,3.165763 0,2.0714253 0.7947,3.178791 0.80773,1.0943379 2.30593,1.0943379 z m -3.10063,-9.4451779 q 0.96406,-1.276728 2.13657,-1.876008 1.1725,-0.612308 2.69676,-0.612308 2.69676,0 4.42946,2.149592 1.7327,2.136565 1.7327,5.510773 0,3.3742085 -1.7327,5.5238008 -1.7327,2.1365644 -4.42946,2.1365644 -1.52426,0 -2.69676,-0.5992803 -1.17251,-0.6123081 -2.13657,-1.8890356 v 2.1105088 h -4.66396 V -24.591991 h 4.66396 z" />
        <path
           id="path37"
           style="font-style:normal;font-variant:normal;font-weight:bold;font-stretch:normal;font-size:26.681px;line-height:125%;font-family:'DejaVu Sans';-inkscape-font-specification:'DejaVu Sans Bold';fill:#262626;fill-opacity:1;stroke-width:0.0926424px"
           d="m 229.56447,13.371111 v 11.868355 h 1.79784 q 3.07456,0 4.69002,-1.524257 1.62847,-1.524256 1.62847,-4.429462 0,-2.892179 -1.61545,-4.403408 -1.61545,-1.511228 -4.70304,-1.511228 z m -5.01572,-3.7910993 h 5.2893 q 4.42946,0 6.59208,0.6383643 2.17565,0.625335 3.72596,2.136564 1.36793,1.315811 2.03234,3.035485 0.66442,1.719674 0.66442,3.895322 0,2.201703 -0.66442,3.934405 -0.66441,1.719674 -2.03234,3.035485 -1.56334,1.511228 -3.75201,2.149592 -2.18868,0.625336 -6.56603,0.625336 h -5.2893 z" />
        <path
           id="path39"
           style="font-style:normal;font-variant:normal;font-weight:bold;font-stretch:normal;font-size:26.681px;line-height:125%;font-family:'DejaVu Sans';-inkscape-font-specification:'DejaVu Sans Bold';fill:#262626;fill-opacity:1;stroke-width:0.0926424px"
           d="m 261.05274,21.695895 v 1.328839 h -10.9043 q 0.16936,1.641507 1.18553,2.462261 1.01617,0.820753 2.84007,0.820753 1.47214,0 3.00943,-0.429919 1.55031,-0.442946 3.17879,-1.328838 v 3.595681 q -1.65453,0.625336 -3.30907,0.938004 -1.65453,0.325696 -3.30907,0.325696 -3.96046,0 -6.16216,-2.006286 -2.18868,-2.019314 -2.18868,-5.654079 0,-3.569626 2.14959,-5.614996 2.16262,-2.045369 5.94069,-2.045369 3.43935,0 5.49775,2.071425 2.07143,2.071425 2.07143,5.536828 z m -4.79425,-1.550312 q 0,-1.328838 -0.78167,-2.136564 -0.76864,-0.820753 -2.01931,-0.820753 -1.3549,0 -2.2017,0.768642 -0.84681,0.755614 -1.05526,2.188675 z" />
        <path
           id="path41"
           style="font-style:normal;font-variant:normal;font-weight:bold;font-stretch:normal;font-size:26.681px;line-height:125%;font-family:'DejaVu Sans';-inkscape-font-specification:'DejaVu Sans Bold';fill:#262626;fill-opacity:1;stroke-width:0.0926424px"
           d="m 262.74635,14.439393 h 4.66397 l 3.63476,10.083542 3.62174,-10.083542 h 4.67699 l -5.74527,14.591172 h -5.11994 z" />
        <path
           id="path43"
           style="font-style:normal;font-variant:normal;font-weight:bold;font-stretch:normal;font-size:26.681px;line-height:125%;font-family:'DejaVu Sans';-inkscape-font-specification:'DejaVu Sans Bold';fill:#262626;fill-opacity:1;stroke-width:0.0926424px"
           d="m 296.54055,21.695895 v 1.328839 h -10.9043 q 0.16937,1.641507 1.18554,2.462261 1.01617,0.820753 2.84006,0.820753 1.47215,0 3.00943,-0.429919 1.55031,-0.442946 3.17879,-1.328838 v 3.595681 q -1.65453,0.625336 -3.30907,0.938004 -1.65453,0.325696 -3.30906,0.325696 -3.96047,0 -6.16217,-2.006286 -2.18867,-2.019314 -2.18867,-5.654079 0,-3.569626 2.14959,-5.614996 2.16262,-2.045369 5.94069,-2.045369 3.43935,0 5.49774,2.071425 2.07143,2.071425 2.07143,5.536828 z m -4.79424,-1.550312 q 0,-1.328838 -0.78167,-2.136564 -0.76865,-0.820753 -2.01932,-0.820753 -1.35489,0 -2.2017,0.768642 -0.84681,0.755614 -1.05525,2.188675 z" />
        <path
           id="path45"
           style="font-style:normal;font-variant:normal;font-weight:bold;font-stretch:normal;font-size:26.681px;line-height:125%;font-family:'DejaVu Sans';-inkscape-font-specification:'DejaVu Sans Bold';fill:#262626;fill-opacity:1;stroke-width:0.0926424px"
           d="m 300.07109,8.7592583 h 4.66397 V 29.030565 h -4.66397 z" />
        <path
           id="path47"
           style="font-style:normal;font-variant:normal;font-weight:bold;font-stretch:normal;font-size:26.681px;line-height:125%;font-family:'DejaVu Sans';-inkscape-font-specification:'DejaVu Sans Bold';fill:#262626;fill-opacity:1;stroke-width:0.0926424px"
           d="m 316.16047,17.422767 q -1.55032,0 -2.37107,1.120393 -0.80772,1.107366 -0.80772,3.204847 0,2.097481 0.80772,3.217874 0.82075,1.107366 2.37107,1.107366 1.52425,0 2.33198,-1.107366 0.80772,-1.120393 0.80772,-3.217874 0,-2.097481 -0.80772,-3.204847 -0.80773,-1.120393 -2.33198,-1.120393 z m 0,-3.335125 q 3.76504,0 5.87555,2.032341 2.12354,2.032342 2.12354,5.628024 0,3.595681 -2.12354,5.628023 -2.11051,2.032342 -5.87555,2.032342 -3.77807,0 -5.91464,-2.032342 -2.12354,-2.032342 -2.12354,-5.628023 0,-3.595682 2.12354,-5.628024 2.13657,-2.032341 5.91464,-2.032341 z" />
        <path
           id="path49"
           style="font-style:normal;font-variant:normal;font-weight:bold;font-stretch:normal;font-size:26.681px;line-height:125%;font-family:'DejaVu Sans';-inkscape-font-specification:'DejaVu Sans Bold';fill:#262626;fill-opacity:1;stroke-width:0.0926424px"
           d="m 332.21075,26.920056 v 7.660365 h -4.66396 V 14.439393 h 4.66396 v 2.136564 q 0.96406,-1.276727 2.13657,-1.876007 1.1725,-0.612308 2.69676,-0.612308 2.69676,0 4.42946,2.149592 1.7327,2.136564 1.7327,5.510773 0,3.374208 -1.7327,5.5238 -1.7327,2.136565 -4.42946,2.136565 -1.52426,0 -2.69676,-0.59928 -1.17251,-0.612308 -2.13657,-1.889036 z m 3.10062,-9.445178 q -1.4982,0 -2.30592,1.107366 -0.7947,1.094337 -0.7947,3.165763 0,2.071425 0.7947,3.178791 0.80772,1.094338 2.30592,1.094338 1.49821,0 2.27988,-1.094338 0.79469,-1.094338 0.79469,-3.178791 0,-2.084453 -0.79469,-3.178791 -0.78167,-1.094338 -2.27988,-1.094338 z" />
        <path
           id="path51"
           style="font-style:normal;font-variant:normal;font-weight:bold;font-stretch:normal;font-size:26.681px;line-height:125%;font-family:'DejaVu Sans';-inkscape-font-specification:'DejaVu Sans Bold';fill:#262626;fill-opacity:1;stroke-width:0.0926424px"
           d="m 360.16848,16.86257 q 0.88589,-1.354895 2.09748,-2.058398 1.22461,-0.71653 2.68373,-0.71653 2.51437,0 3.83018,1.550312 1.31581,1.550312 1.31581,4.507629 v 8.884982 h -4.69001 v -7.608254 q 0.013,-0.169362 0.013,-0.351752 0.013,-0.182389 0.013,-0.521113 0,-1.550312 -0.45597,-2.240787 -0.45598,-0.703503 -1.47215,-0.703503 -1.32884,0 -2.0584,1.094338 -0.71653,1.094338 -0.74258,3.165763 v 7.165308 h -4.69002 v -7.608254 q 0,-2.423177 -0.41689,-3.113652 -0.41689,-0.703503 -1.48517,-0.703503 -1.34187,0 -2.07143,1.107366 -0.72956,1.094338 -0.72956,3.139707 v 7.178336 h -4.69002 V 14.439393 h 4.69002 v 2.136564 q 0.85984,-1.237644 1.9672,-1.862979 1.1204,-0.625336 2.46226,-0.625336 1.51123,0 2.67071,0.729558 1.15948,0.729559 1.75876,2.04537 z" />
        <path
           id="path53"
           style="font-style:normal;font-variant:normal;font-weight:bold;font-stretch:normal;font-size:26.681px;line-height:125%;font-family:'DejaVu Sans';-inkscape-font-specification:'DejaVu Sans Bold';fill:#262626;fill-opacity:1;stroke-width:0.0926424px"
           d="m 389.0121,21.695895 v 1.328839 h -10.9043 q 0.16936,1.641507 1.18553,2.462261 1.01617,0.820753 2.84007,0.820753 1.47214,0 3.00943,-0.429919 1.55031,-0.442946 3.17879,-1.328838 v 3.595681 q -1.65453,0.625336 -3.30907,0.938004 -1.65453,0.325696 -3.30907,0.325696 -3.96046,0 -6.16216,-2.006286 -2.18868,-2.019314 -2.18868,-5.654079 0,-3.569626 2.14959,-5.614996 2.16262,-2.045369 5.94069,-2.045369 3.43935,0 5.49775,2.071425 2.07143,2.071425 2.07143,5.536828 z m -4.79425,-1.550312 q 0,-1.328838 -0.78167,-2.136564 -0.76864,-0.820753 -2.01931,-0.820753 -1.3549,0 -2.2017,0.768642 -0.84681,0.755614 -1.05526,2.188675 z" />
        <path
           id="path55"
           style="font-style:normal;font-variant:normal;font-weight:bold;font-stretch:normal;font-size:26.681px;line-height:125%;font-family:'DejaVu Sans';-inkscape-font-specification:'DejaVu Sans Bold';fill:#262626;fill-opacity:1;stroke-width:0.0926424px"
           d="m 407.21198,20.145583 v 8.884982 h -4.69002 v -1.44609 -5.354438 q 0,-1.889036 -0.0912,-2.605567 -0.0782,-0.716531 -0.28661,-1.055254 -0.27359,-0.455974 -0.74259,-0.703503 -0.469,-0.260557 -1.06828,-0.260557 -1.45912,0 -2.2929,1.133422 -0.83378,1.120393 -0.83378,3.113651 v 7.178336 h -4.66396 V 14.439393 h 4.66396 v 2.136564 q 1.05525,-1.276727 2.24079,-1.876007 1.18553,-0.612308 2.61859,-0.612308 2.5274,0 3.83018,1.550312 1.31582,1.550312 1.31582,4.507629 z" />
        <path
           id="path57"
           style="font-style:normal;font-variant:normal;font-weight:bold;font-stretch:normal;font-size:26.681px;line-height:125%;font-family:'DejaVu Sans';-inkscape-font-specification:'DejaVu Sans Bold';fill:#262626;fill-opacity:1;stroke-width:0.0926424px"
           d="m 416.6311,10.296542 v 4.142851 h 4.80727 v 3.335125 h -4.80727 v 6.18822 q 0,1.016171 0.40386,1.38095 0.40387,0.351752 1.60243,0.351752 h 2.39712 v 3.335125 h -3.99955 q -2.7619,0 -3.92137,-1.146449 -1.14645,-1.159477 -1.14645,-3.921378 v -6.18822 h -2.31896 v -3.335125 h 2.31896 v -4.142851 z" />
        <path
           id="path59"
           style="font-style:normal;font-variant:normal;font-weight:bold;font-stretch:normal;font-size:26.681px;line-height:125%;font-family:'DejaVu Sans';-inkscape-font-specification:'DejaVu Sans Bold';fill:#262626;fill-opacity:1;stroke-width:0.0926424px"
           d="m 431.4698,9.5800117 h 17.9263 v 3.7910993 h -6.44878 v 15.659454 h -5.01571 V 13.371111 h -6.46181 z" />
        <path
           id="path61"
           style="font-style:normal;font-variant:normal;font-weight:bold;font-stretch:normal;font-size:26.681px;line-height:125%;font-family:'DejaVu Sans';-inkscape-font-specification:'DejaVu Sans Bold';fill:#262626;fill-opacity:1;stroke-width:0.0926424px"
           d="m 462.80174,21.695895 v 1.328839 h -10.9043 q 0.16936,1.641507 1.18553,2.462261 1.01618,0.820753 2.84007,0.820753 1.47215,0 3.00943,-0.429919 1.55031,-0.442946 3.17879,-1.328838 v 3.595681 q -1.65453,0.625336 -3.30907,0.938004 -1.65453,0.325696 -3.30907,0.325696 -3.96046,0 -6.16216,-2.006286 -2.18868,-2.019314 -2.18868,-5.654079 0,-3.569626 2.1496,-5.614996 2.16262,-2.045369 5.94069,-2.045369 3.43934,0 5.49774,2.071425 2.07143,2.071425 2.07143,5.536828 z m -4.79424,-1.550312 q 0,-1.328838 -0.78167,-2.136564 -0.76865,-0.820753 -2.01932,-0.820753 -1.35489,0 -2.2017,0.768642 -0.84681,0.755614 -1.05526,2.188675 z" />
        <path
           id="path63"
           style="font-style:normal;font-variant:normal;font-weight:bold;font-stretch:normal;font-size:26.681px;line-height:125%;font-family:'DejaVu Sans';-inkscape-font-specification:'DejaVu Sans Bold';fill:#262626;fill-opacity:1;stroke-width:0.0926424px"
           d="m 472.87225,22.464538 q -1.45912,0 -2.2017,0.495057 -0.72956,0.495058 -0.72956,1.459117 0,0.885893 0.58625,1.393978 0.59928,0.495058 1.65454,0.495058 1.31581,0 2.21473,-0.938004 0.89892,-0.951032 0.89892,-2.371065 v -0.534141 z m 7.12622,-1.758758 v 8.324785 h -4.70304 v -2.16262 q -0.93801,1.328839 -2.11051,1.941147 -1.17251,0.59928 -2.8531,0.59928 -2.26684,0 -3.68687,-1.315811 -1.40701,-1.328839 -1.40701,-3.439348 0,-2.566483 1.75876,-3.765043 1.77178,-1.198561 5.54985,-1.198561 h 2.74888 V 19.32483 q 0,-1.107366 -0.87287,-1.615451 -0.87286,-0.521113 -2.72281,-0.521113 -1.49821,0 -2.78796,0.29964 -1.28976,0.29964 -2.39712,0.89892 v -3.556598 q 1.4982,-0.364779 3.00943,-0.547169 1.51123,-0.195417 3.02245,-0.195417 3.94744,0 5.69317,1.563339 1.75875,1.550312 1.75875,5.054799 z" />
        <path
           id="path65"
           style="font-style:normal;font-variant:normal;font-weight:bold;font-stretch:normal;font-size:26.681px;line-height:125%;font-family:'DejaVu Sans';-inkscape-font-specification:'DejaVu Sans Bold';fill:#262626;fill-opacity:1;stroke-width:0.0926424px"
           d="m 497.85962,16.86257 q 0.8859,-1.354895 2.09748,-2.058398 1.22462,-0.71653 2.68374,-0.71653 2.51437,0 3.83018,1.550312 1.31581,1.550312 1.31581,4.507629 v 8.884982 h -4.69002 v -7.608254 q 0.013,-0.169362 0.013,-0.351752 0.013,-0.182389 0.013,-0.521113 0,-1.550312 -0.45598,-2.240787 -0.45597,-0.703503 -1.47214,-0.703503 -1.32884,0 -2.0584,1.094338 -0.71653,1.094338 -0.74259,3.165763 v 7.165308 h -4.69001 v -7.608254 q 0,-2.423177 -0.4169,-3.113652 -0.41689,-0.703503 -1.48517,-0.703503 -1.34186,0 -2.07142,1.107366 -0.72956,1.094338 -0.72956,3.139707 v 7.178336 h -4.69002 V 14.439393 h 4.69002 v 2.136564 q 0.85984,-1.237644 1.9672,-1.862979 1.12039,-0.625336 2.46226,-0.625336 1.51123,0 2.67071,0.729558 1.15947,0.729559 1.75875,2.04537 z" />
      </g>
    </g>
  </g>
</svg>
