<?xml version="1.0" encoding="UTF-8" standalone="no"?>
<svg
   xmlns:dc="http://purl.org/dc/elements/1.1/"
   xmlns:cc="http://creativecommons.org/ns#"
   xmlns:rdf="http://www.w3.org/1999/02/22-rdf-syntax-ns#"
   xmlns:svg="http://www.w3.org/2000/svg"
   xmlns="http://www.w3.org/2000/svg"
   width="3351.4321"
   height="647.92755"
   viewBox="0 0 886.73212 171.43084"
   version="1.1"
   id="svg8">
  <g
     style="display:inline"
     id="layer1"
     transform="translate(-6.3458039,-91.747318)">
    <path
       style="fill:#ac2b37;fill-opacity:1;stroke-width:0.27816623"
       id="path32"
       d="m 154.80875,263.17816 -98.975636,-10e-6 -49.4878152,-85.71542 49.4878242,-85.715412 98.975637,4e-6 49.48782,85.715418 z" />
  </g>
  <g
     transform="translate(-6.3458039,-6.4139234)"
     style="display:inline"
     id="layer2">
    <g
       transform="translate(105.32094,92.129391)"
       id="g848">
      <path
         d="m 72.90834,-5.32467 5.30845,1.2255 5.3119,2.41189 v 3.37456 l -5.3119,2.41189 -5.30845,1.2255 -0.48616,4.62552 4.93765,2.3024 4.69437,3.46359 -0.70161,3.30082 -5.69729,1.25478 -5.44724,0.09503 -1.43724,4.42336 4.35105,3.27869 3.87167,4.36391 -1.37256,3.08282 -5.83367,0.04282 -5.34796,-1.03959 -2.3255,4.02788 3.57429,4.11168 2.87975,5.07352 -1.98352,2.73007 -5.71509,-1.171 -5.01495,-2.12878 -3.11213,3.45637 2.64132,4.76496 1.76198,5.56139 -2.50779,2.25802 -5.34674,-2.33365 -4.46277,-3.12493 -3.76273,2.73379 1.59291,5.21 0.5672,5.80619 -2.92246,1.68728 -4.74471,-3.3943 -3.71554,-3.9845 -4.24889,1.89173 0.47488,5.42733 -0.65237,5.79724 -3.2094,1.0428 -3.93531,-4.30661 -2.80592,-4.66994 -4.54937,0.967 -0.6639,5.40747 -1.84343,5.53492 -3.35607,0.35274 -2.95392,-5.0307 -1.77367,-5.15127 h -4.651 l -1.77367,5.15127 -2.95392,5.0307 -3.35607,-0.35274 -1.84343,-5.53492 -0.6639,-5.40747 -4.54937,-0.967 -2.80592,4.66994 -3.93531,4.30661 -3.2094,-1.0428 -0.65237,-5.79724 0.47488,-5.42733 -4.24889,-1.89173 -3.71554,3.9845 -4.74471,3.3943 -2.92246,-1.68728 0.5672,-5.80619 1.59291,-5.21 -3.76273,-2.73379 -4.46277,3.12493 -5.34674,2.33365 -2.50779,-2.25802 1.76198,-5.56139 2.64132,-4.76496 -3.11213,-3.45637 -5.01495,2.12878 -5.71509,1.171 -1.98352,-2.73007 2.87975,-5.07352 3.57429,-4.11168 -2.3255,-4.02788 -5.34796,1.03959 -5.83367,-0.04282 -1.37256,-3.08282 3.87167,-4.36391 4.35105,-3.27869 -1.43724,-4.42336 -5.44724,-0.09503 -5.69729,-1.25478 -0.70161,-3.30082 4.69437,-3.46359 4.93765,-2.3024 -0.48616,-4.62552 -5.30845,-1.2255 -5.3119,-2.41189 v -3.37456 l 5.3119,-2.41189 5.30845,-1.2255 0.48616,-4.62552 -4.93765,-2.3024 -4.69437,-3.46359 0.70161,-3.30082 5.69729,-1.25478 5.44724,-0.09503 1.43724,-4.42336 -4.35105,-3.27869 -3.87167,-4.36391 1.37256,-3.08282 5.83367,-0.04282 5.34796,1.03959 2.3255,-4.02788 -3.57429,-4.11168 -2.87975,-5.07352 1.98352,-2.73007 5.71509,1.171 5.01495,2.12878 3.11213,-3.45637 -2.64132,-4.76496 -1.76198,-5.56139 2.50779,-2.25802 5.34674,2.33365 4.46277,3.12493 3.76273,-2.73379 -1.59291,-5.21 -0.5672,-5.80619 2.92246,-1.68728 4.74471,3.3943 3.71554,3.9845 4.24889,-1.89173 -0.47488,-5.42733 0.65237,-5.79724 3.2094,-1.0428 3.93531,4.30661 2.80592,4.66994 4.54937,-0.967 0.6639,-5.40747 1.84343,-5.53492 3.35607,-0.35274 2.95392,5.0307 1.77367,5.15127 h 4.651 l 1.77367,-5.15127 2.95392,-5.0307 3.35607,0.35274 1.84343,5.53492 0.6639,5.40747 4.54937,0.967 2.80592,-4.66994 3.93531,-4.30661 3.2094,1.0428 0.65237,5.79724 -0.47488,5.42733 4.24889,1.89173 3.71554,-3.9845 4.74471,-3.3943 2.92246,1.68728 -0.5672,5.80619 -1.59291,5.21 3.76273,2.73379 4.46277,-3.12493 5.34674,-2.33365 2.50779,2.25802 -1.76198,5.56139 -2.64132,4.76496 3.11213,3.45637 5.01495,-2.12878 5.71509,-1.171 1.98352,2.73007 -2.87975,5.07352 -3.57429,4.11168 2.3255,4.02788 5.34796,-1.03959 5.83367,0.04282 1.37256,3.08282 -3.87167,4.36391 -4.35105,3.27869 1.43724,4.42336 5.44724,0.09503 5.69729,1.25478 0.70161,3.30082 -4.69437,3.46359 -4.93765,2.3024 z"
         style="fill:#262626;fill-opacity:1;stroke:#000000;stroke-width:0.26458332"
         id="path844" />
    </g>
  </g>
  <g
     style="display:inline"
     transform="translate(-5.0512814e-4,13.260212)"
     id="layer3">
    <g
       id="g7"
       style="display:inline"
       transform="translate(-6.3452965,-32.934384)">
      <path
         id="path4489"
         style="font-weight:bold;fill:#a9b0b7;fill-opacity:1;stroke-width:1.0990752px"
         d="M 50.350001,69.576383 H 69.360568 L 82.652509,125.47466 95.841412,69.576383 h 19.113608 l 13.1889,55.898277 13.29194,-55.898277 h 18.85601 l -18.13474,76.918097 h -22.8745 L 105.32094,88.020239 91.513803,146.49448 H 68.6393 Z" />
    </g>
    <g
       transform="matrix(2.8559643,0,0,2.8559643,-420.30366,58.191905)"
       id="text3692"
       style="font-style:normal;font-variant:normal;font-weight:normal;font-stretch:normal;font-size:25.40000153px;line-height:125%;font-family:sans-serif;-inkscape-font-specification:sans-serif;letter-spacing:0px;word-spacing:0px;fill:#000000;fill-opacity:1;stroke:none;stroke-width:0.26458335px;stroke-linecap:butt;stroke-linejoin:miter;stroke-opacity:1"
       aria-label="WPILib Software Development">
      <path
         id="path4552"
         style="font-weight:bold;fill:#a9b0b7;fill-opacity:1;stroke-width:0.26458335px"
         d="m 222.19314,-22.390158 h 4.57647 l 3.1998,13.4565443 3.175,-13.4565443 h 4.60127 l 3.175,13.4565443 3.19981,-13.4565443 h 4.53926 l -4.36563,18.5167008 h -5.50664 l -3.36104,-14.0766608 -3.32382,14.0766608 h -5.50664 z" />
      <path
         id="path4554"
         style="font-weight:bold;fill:#a9b0b7;fill-opacity:1;stroke-width:0.26458335px"
         d="m 251.79754,-22.390158 h 7.9251 q 3.53467,0 5.41982,1.575098 1.89756,1.562696 1.89756,4.464844 0,2.914551 -1.89756,4.489649 -1.88515,1.562695 -5.41982,1.562695 h -3.1502 v 6.4244148 h -4.7749 z m 4.7749,3.460255 v 5.171777 h 2.6417 q 1.38906,0 2.14561,-0.669726 0.75654,-0.682129 0.75654,-1.922364 0,-1.240234 -0.75654,-1.909961 -0.75655,-0.669726 -2.14561,-0.669726 z" />
      <path
         id="path4556"
         style="font-weight:bold;fill:#a9b0b7;fill-opacity:1;stroke-width:0.26458335px"
         d="m 270.40106,-22.390158 h 4.7749 v 18.5167008 h -4.7749 z" />
      <path
         id="path4558"
         style="font-weight:bold;fill:#a9b0b7;fill-opacity:1;stroke-width:0.26458335px"
         d="m 279.87645,-22.390158 h 4.7749 v 14.9076186 h 8.38399 v 3.6090822 h -13.15889 z" />
      <path
         id="path4560"
         style="font-weight:bold;fill:#a9b0b7;fill-opacity:1;stroke-width:0.26458335px"
         d="m 295.85067,-17.764083 h 4.44004 v 13.8906258 h -4.44004 z m 0,-5.407422 h 4.44004 v 3.621484 h -4.44004 z" />
      <path
         id="path4562"
         style="font-weight:bold;fill:#a9b0b7;fill-opacity:1;stroke-width:0.26458335px"
         d="m 311.97372,-6.7383988 q 1.42627,0 2.17041,-1.0417969 0.75654,-1.0417969 0.75654,-3.0261723 0,-1.984375 -0.75654,-3.026172 -0.74414,-1.041797 -2.17041,-1.041797 -1.42627,0 -2.19522,1.0542 -0.75654,1.041796 -0.75654,3.013769 0,1.971973 0.75654,3.0261723 0.76895,1.0417969 2.19522,1.0417969 z m -2.95176,-8.9917002 q 0.91777,-1.215429 2.03398,-1.785937 1.11621,-0.58291 2.56729,-0.58291 2.56728,0 4.21679,2.046387 1.64952,2.033984 1.64952,5.246191 0,3.2122075 -1.64952,5.2585943 -1.64951,2.0339845 -4.21679,2.0339845 -1.45108,0 -2.56729,-0.5705078 -1.11621,-0.5829102 -2.03398,-1.79834 v 2.0091798 h -4.44004 V -23.171505 h 4.44004 z" />
      <path
         id="path4564"
         style="font-weight:bold;fill:#a9b0b7;fill-opacity:1;stroke-width:0.26458335px"
         d="m 344.7035,-21.807247 v 3.919141 q -1.52549,-0.682129 -2.97656,-1.029395 -1.45108,-0.347266 -2.74092,-0.347266 -1.71152,0 -2.53008,0.471289 -0.81855,0.471289 -0.81855,1.463477 0,0.744141 0.5457,1.16582 0.55811,0.409278 2.00918,0.706934 l 2.03398,0.409277 q 3.08819,0.620118 4.39043,1.885157 1.30225,1.265039 1.30225,3.5966797 0,3.0633791 -1.82314,4.5640628 -1.81075,1.4882813 -5.54385,1.4882813 -1.76113,0 -3.53467,-0.3348633 -1.77354,-0.3348633 -3.54707,-0.9921876 V -8.871602 q 1.77353,0.9425782 3.42305,1.4262696 1.66191,0.4712891 3.1998,0.4712891 1.5627,0 2.39365,-0.5208985 0.83096,-0.5208985 0.83096,-1.4882813 0,-0.8681641 -0.57051,-1.3394529 -0.5581,-0.471289 -2.24482,-0.84336 l -1.84795,-0.409277 q -2.77813,-0.595313 -4.06797,-1.897559 -1.27744,-1.302246 -1.27744,-3.509863 0,-2.765723 1.78594,-4.254004 1.78593,-1.488282 5.13457,-1.488282 1.52549,0 3.13779,0.235645 1.61231,0.223242 3.33623,0.682129 z" />
      <path
         id="path4566"
         style="font-weight:bold;fill:#a9b0b7;fill-opacity:1;stroke-width:0.26458335px"
         d="m 356.53534,-14.923946 q -1.47588,0 -2.25723,1.066601 -0.76894,1.0542 -0.76894,3.050977 0,1.9967777 0.76894,3.0633793 0.78135,1.0541993 2.25723,1.0541993 1.45107,0 2.22002,-1.0541993 0.76894,-1.0666016 0.76894,-3.0633793 0,-1.996777 -0.76894,-3.050977 -0.76895,-1.066601 -2.22002,-1.066601 z m 0,-3.175 q 3.58428,0 5.59346,1.934765 2.02158,1.934766 2.02158,5.357813 0,3.4230473 -2.02158,5.3578131 -2.00918,1.9347657 -5.59346,1.9347657 -3.59668,0 -5.63066,-1.9347657 -2.02159,-1.9347658 -2.02159,-5.3578131 0,-3.423047 2.02159,-5.357813 2.03398,-1.934765 5.63066,-1.934765 z" />
      <path
         id="path4568"
         style="font-weight:bold;fill:#a9b0b7;fill-opacity:1;stroke-width:0.26458335px"
         d="m 376.52793,-23.171505 v 2.914551 h -2.45567 q -0.94258,0 -1.31465,0.347265 -0.37207,0.334864 -0.37207,1.178223 v 0.967383 h 3.79512 v 3.175 h -3.79512 V -3.8734572 H 367.9455 V -14.589083 h -2.20761 v -3.175 h 2.20761 v -0.967383 q 0,-2.269629 1.26504,-3.348633 1.26504,-1.091406 3.91914,-1.091406 z" />
      <path
         id="path4570"
         style="font-weight:bold;fill:#a9b0b7;fill-opacity:1;stroke-width:0.26458335px"
         d="m 383.2996,-21.708029 v 3.943946 h 4.57646 v 3.175 h -4.57646 v 5.8911138 q 0,0.9673829 0.38447,1.3146485 0.38447,0.3348633 1.52549,0.3348633 h 2.28203 v 3.1750002 h -3.80752 q -2.6293,0 -3.73311,-1.0914063 -1.0914,-1.1038087 -1.0914,-3.7331057 v -5.8911138 h -2.20762 v -3.175 h 2.20762 v -3.943946 z" />
      <path
         id="path4572"
         style="font-weight:bold;fill:#a9b0b7;fill-opacity:1;stroke-width:0.26458335px"
         d="m 389.36434,-17.764083 h 4.31602 l 2.33164,9.5746099 2.34404,-9.5746099 h 3.7083 l 2.33164,9.4753912 2.34405,-9.4753912 h 4.31601 l -3.65869,13.8906258 h -4.84931 l -2.34405,-9.5498048 -2.33164,9.5498048 h -4.84932 z" />
      <path
         id="path4574"
         style="font-weight:bold;fill:#a9b0b7;fill-opacity:1;stroke-width:0.26458335px"
         d="m 420.2958,-10.124239 q -1.38907,0 -2.096,0.4712893 -0.69453,0.4712891 -0.69453,1.3890626 0,0.8433594 0.5581,1.3270508 0.57051,0.4712891 1.5751,0.4712891 1.25264,0 2.1084,-0.8929688 0.85576,-0.9053711 0.85576,-2.2572267 v -0.5084963 z m 6.78408,-1.674316 v 7.9250978 h -4.47725 v -2.0587892 q -0.89297,1.2650392 -2.00918,1.8479494 -1.11621,0.5705078 -2.71611,0.5705078 -2.15801,0 -3.50987,-1.2526368 -1.33945,-1.2650391 -1.33945,-3.2742189 0,-2.4432621 1.67432,-3.5842781 1.68672,-1.141015 5.2834,-1.141015 h 2.61689 v -0.347266 q 0,-1.054199 -0.83096,-1.537891 -0.83095,-0.496093 -2.59209,-0.496093 -1.42627,0 -2.6541,0.285254 -1.22783,0.285254 -2.28203,0.855761 v -3.38584 q 1.42627,-0.347265 2.86494,-0.520898 1.43867,-0.186035 2.87735,-0.186035 3.75791,0 5.41982,1.488281 1.67432,1.475879 1.67432,4.81211 z" />
      <path
         id="path4576"
         style="font-weight:bold;fill:#a9b0b7;fill-opacity:1;stroke-width:0.26458335px"
         d="m 441.55341,-13.981368 q -0.58291,-0.272852 -1.16582,-0.396875 -0.57051,-0.136426 -1.15342,-0.136426 -1.71152,0 -2.6417,1.103809 -0.91777,1.091406 -0.91777,3.137793 v 6.3996098 h -4.44004 V -17.764083 h 4.44004 v 2.282031 q 0.85576,-1.364258 1.95957,-1.984375 1.11621,-0.632519 2.6665,-0.632519 0.22324,0 0.48369,0.0248 0.26045,0.0124 0.75655,0.07441 z" />
      <path
         id="path4578"
         style="font-weight:bold;fill:#a9b0b7;fill-opacity:1;stroke-width:0.26458335px"
         d="m 457.65166,-10.855977 v 1.265039 H 447.2709 q 0.16123,1.5626954 1.12861,2.3440431 0.96738,0.7813477 2.70371,0.7813477 1.40147,0 2.86494,-0.4092774 1.47588,-0.4216797 3.02617,-1.2650391 v 3.4230471 q -1.57509,0.5953125 -3.15019,0.8929688 -1.5751,0.3100586 -3.1502,0.3100586 -3.77031,0 -5.86631,-1.9099611 -2.08359,-1.9223634 -2.08359,-5.3826177 0,-3.398242 2.04639,-5.34541 2.05879,-1.947168 5.65547,-1.947168 3.27421,0 5.23379,1.971972 1.97197,1.971973 1.97197,5.270997 z m -4.56406,-1.475879 q 0,-1.265039 -0.74415,-2.033985 -0.73173,-0.781347 -1.92236,-0.781347 -1.28984,0 -2.09599,0.731738 -0.80616,0.719336 -1.00459,2.083594 z" />
      <path
         id="path4580"
         style="font-weight:bold;fill:#a9b0b7;fill-opacity:1;stroke-width:0.26458335px"
         d="m 228.54314,12.968927 v 11.298535 h 1.71153 q 2.92695,0 4.46484,-1.451074 1.55029,-1.451074 1.55029,-4.216797 0,-2.75332 -1.53789,-4.191992 -1.53789,-1.438672 -4.47724,-1.438672 z m -4.7749,-3.6090826 h 5.03535 q 4.2168,0 6.27559,0.6077149 2.07119,0.5953127 3.54707,2.0339847 1.30225,1.252637 1.93476,2.889746 0.63252,1.63711 0.63252,3.708301 0,2.095996 -0.63252,3.745508 -0.63251,1.63711 -1.93476,2.889746 -1.48828,1.438672 -3.57188,2.046387 -2.08359,0.595313 -6.25078,0.595313 h -5.03535 z" />
      <path
         id="path4582"
         style="font-weight:bold;fill:#a9b0b7;fill-opacity:1;stroke-width:0.26458335px"
         d="m 258.51961,20.894025 v 1.265039 h -10.38076 q 0.16123,1.562695 1.12861,2.344043 0.96738,0.781348 2.70371,0.781348 1.40147,0 2.86494,-0.409278 1.47588,-0.421679 3.02618,-1.265039 v 3.423047 q -1.5751,0.595313 -3.1502,0.892969 -1.5751,0.310059 -3.15019,0.310059 -3.77032,0 -5.86631,-1.909961 -2.0836,-1.922364 -2.0836,-5.382618 0,-3.398242 2.04639,-5.34541 2.05879,-1.947168 5.65547,-1.947168 3.27422,0 5.23379,1.971972 1.97197,1.971973 1.97197,5.270997 z m -4.56406,-1.475879 q 0,-1.265039 -0.74414,-2.033985 -0.73174,-0.781347 -1.92237,-0.781347 -1.28984,0 -2.09599,0.731738 -0.80616,0.719336 -1.00459,2.083594 z" />
      <path
         id="path4584"
         style="font-weight:bold;fill:#a9b0b7;fill-opacity:1;stroke-width:0.26458335px"
         d="m 260.11951,13.985919 h 4.44004 l 3.46025,9.599415 3.44786,-9.599415 h 4.45244 l -5.46944,13.890626 h -4.87412 z" />
      <path
         id="path4586"
         style="font-weight:bold;fill:#a9b0b7;fill-opacity:1;stroke-width:0.26458335px"
         d="m 292.3036,20.894025 v 1.265039 h -10.38076 q 0.16123,1.562695 1.12861,2.344043 0.96738,0.781348 2.70371,0.781348 1.40146,0 2.86494,-0.409278 1.47588,-0.421679 3.02617,-1.265039 v 3.423047 q -1.57509,0.595313 -3.15019,0.892969 -1.5751,0.310059 -3.1502,0.310059 -3.77031,0 -5.86631,-1.909961 -2.08359,-1.922364 -2.08359,-5.382618 0,-3.398242 2.04639,-5.34541 2.05879,-1.947168 5.65547,-1.947168 3.27421,0 5.23378,1.971972 1.97198,1.971973 1.97198,5.270997 z m -4.56407,-1.475879 q 0,-1.265039 -0.74414,-2.033985 -0.73173,-0.781347 -1.92236,-0.781347 -1.28984,0 -2.096,0.731738 -0.80615,0.719336 -1.00459,2.083594 z" />
      <path
         id="path4588"
         style="font-weight:bold;fill:#a9b0b7;fill-opacity:1;stroke-width:0.26458335px"
         d="m 295.65223,8.5784967 h 4.44004 V 27.876545 h -4.44004 z" />
      <path
         id="path4590"
         style="font-weight:bold;fill:#a9b0b7;fill-opacity:1;stroke-width:0.26458335px"
         d="m 310.99393,16.826056 q -1.47588,0 -2.25723,1.066601 -0.76894,1.0542 -0.76894,3.050977 0,1.996778 0.76894,3.063379 0.78135,1.0542 2.25723,1.0542 1.45107,0 2.22002,-1.0542 0.76894,-1.066601 0.76894,-3.063379 0,-1.996777 -0.76894,-3.050977 -0.76895,-1.066601 -2.22002,-1.066601 z m 0,-3.175 q 3.58428,0 5.59345,1.934765 2.02159,1.934766 2.02159,5.357813 0,3.423047 -2.02159,5.357813 -2.00917,1.934766 -5.59345,1.934766 -3.59668,0 -5.63067,-1.934766 -2.02158,-1.934766 -2.02158,-5.357813 0,-3.423047 2.02158,-5.357813 2.03399,-1.934765 5.63067,-1.934765 z" />
      <path
         id="path4592"
         style="font-weight:bold;fill:#a9b0b7;fill-opacity:1;stroke-width:0.26458335px"
         d="m 326.28603,25.867365 v 7.292578 h -4.44004 V 13.985919 h 4.44004 v 2.033984 q 0.91777,-1.215429 2.03398,-1.785937 1.11621,-0.58291 2.56729,-0.58291 2.56728,0 4.21679,2.046386 1.64952,2.033985 1.64952,5.246192 0,3.212207 -1.64952,5.258594 -1.64951,2.033985 -4.21679,2.033985 -1.45108,0 -2.56729,-0.570508 -1.11621,-0.58291 -2.03398,-1.79834 z m 2.95175,-8.9917 q -1.42627,0 -2.19521,1.054199 -0.75654,1.041797 -0.75654,3.01377 0,1.971973 0.75654,3.026172 0.76894,1.041797 2.19521,1.041797 1.42627,0 2.17041,-1.041797 0.75655,-1.041797 0.75655,-3.026172 0,-1.984375 -0.75655,-3.026172 -0.74414,-1.041797 -2.17041,-1.041797 z" />
      <path
         id="path4594"
         style="font-weight:bold;fill:#a9b0b7;fill-opacity:1;stroke-width:0.26458335px"
         d="m 352.92626,16.292755 q 0.84335,-1.289844 1.99677,-1.95957 1.16582,-0.682129 2.55489,-0.682129 2.39365,0 3.64628,1.475879 1.25264,1.475879 1.25264,4.291211 v 8.458399 H 357.912 v -7.242969 q 0.0124,-0.161231 0.0124,-0.334864 0.0124,-0.173633 0.0124,-0.496094 0,-1.475879 -0.43408,-2.133203 -0.43408,-0.669726 -1.40146,-0.669726 -1.26504,0 -1.95958,1.041797 -0.68212,1.041796 -0.70693,3.013769 v 6.82129 h -4.46484 v -7.242969 q 0,-2.306837 -0.39688,-2.964161 -0.39687,-0.669726 -1.41387,-0.669726 -1.27744,0 -1.97197,1.054199 -0.69453,1.041797 -0.69453,2.988965 v 6.833692 h -4.46484 V 13.985919 h 4.46484 v 2.033984 q 0.81856,-1.178222 1.87275,-1.773535 1.06661,-0.595312 2.34405,-0.595312 1.43867,0 2.54248,0.694531 1.10381,0.694531 1.67432,1.947168 z" />
      <path
         id="path4596"
         style="font-weight:bold;fill:#a9b0b7;fill-opacity:1;stroke-width:0.26458335px"
         d="m 380.40985,20.894025 v 1.265039 h -10.38076 q 0.16123,1.562695 1.12861,2.344043 0.96739,0.781348 2.70371,0.781348 1.40147,0 2.86495,-0.409278 1.47587,-0.421679 3.02617,-1.265039 v 3.423047 q -1.5751,0.595313 -3.1502,0.892969 -1.5751,0.310059 -3.15019,0.310059 -3.77032,0 -5.86631,-1.909961 -2.0836,-1.922364 -2.0836,-5.382618 0,-3.398242 2.04639,-5.34541 2.05879,-1.947168 5.65547,-1.947168 3.27422,0 5.23379,1.971972 1.97197,1.971973 1.97197,5.270997 z m -4.56406,-1.475879 q 0,-1.265039 -0.74414,-2.033985 -0.73174,-0.781347 -1.92236,-0.781347 -1.28985,0 -2.096,0.731738 -0.80615,0.719336 -1.00459,2.083594 z" />
      <path
         id="path4598"
         style="font-weight:bold;fill:#a9b0b7;fill-opacity:1;stroke-width:0.26458335px"
         d="m 397.72353,19.418146 v 8.458399 h -4.46484 v -1.376661 -5.097363 q 0,-1.79834 -0.0868,-2.480469 -0.0744,-0.682129 -0.27285,-1.00459 -0.26045,-0.434082 -0.70693,-0.669727 -0.44649,-0.248046 -1.01699,-0.248046 -1.38907,0 -2.18282,1.079004 -0.79375,1.066601 -0.79375,2.96416 v 6.833692 h -4.44004 V 13.985919 h 4.44004 v 2.033984 q 1.00459,-1.215429 2.13321,-1.785937 1.12861,-0.58291 2.49287,-0.58291 2.40605,0 3.64629,1.475879 1.25263,1.475879 1.25263,4.291211 z" />
      <path
         id="path4600"
         style="font-weight:bold;fill:#a9b0b7;fill-opacity:1;stroke-width:0.26458335px"
         d="m 406.71523,10.041973 v 3.943946 h 4.57647 v 3.175 h -4.57647 v 5.891114 q 0,0.967383 0.38447,1.314648 0.38448,0.334864 1.52549,0.334864 h 2.28203 v 3.175 h -3.80752 q -2.62929,0 -3.7331,-1.091407 -1.09141,-1.103808 -1.09141,-3.733105 v -5.891114 h -2.20761 v -3.175 h 2.20761 v -3.943946 z" />
    </g>
  </g>
</svg>
