<?xml version="1.0" encoding="UTF-8" standalone="no"?>
<svg
   xmlns:dc="http://purl.org/dc/elements/1.1/"
   xmlns:cc="http://creativecommons.org/ns#"
   xmlns:rdf="http://www.w3.org/1999/02/22-rdf-syntax-ns#"
   xmlns:svg="http://www.w3.org/2000/svg"
   xmlns="http://www.w3.org/2000/svg"
   xmlns:sodipodi="http://sodipodi.sourceforge.net/DTD/sodipodi-0.dtd"
   xmlns:inkscape="http://www.inkscape.org/namespaces/inkscape"
   width="904.33594"
   height="1122.0382"
   viewBox="0 0 239.27168 296.87156"
   version="1.1"
   id="svg8">
  <g
     style="display:inline"
     inkscape:label="Hexagon"
     inkscape:groupmode="layer"
     id="layer1"
     transform="translate(-7.9122613,-2.3895986)">
    <path
       d="m 176.7689,173.82025 -98.975642,-10e-6 -49.487815,-85.715417 49.487824,-85.7154156 98.975643,4.9e-6 49.48781,85.7154207 z"
       inkscape:transform-center-y="-6.945032e-06"
       inkscape:transform-center-x="1.0148083e-05"
       style="fill:#ac2b37;fill-opacity:1;stroke-width:0.278166"
       id="path32" />
  </g>
  <g
     transform="translate(-7.9122613,82.94368)"
     style="display:inline"
     inkscape:label="Gear"
     id="layer2"
     inkscape:groupmode="layer">
    <g
       transform="translate(127.28108,2.7714802)"
       inkscape:label="Gear30"
       id="g848">
      <path
         inkscape:connector-curvature="0"
         d="m 72.90834,-5.32467 5.30845,1.2255 5.3119,2.41189 v 3.37456 l -5.3119,2.41189 -5.30845,1.2255 -0.48616,4.62552 4.93765,2.3024 4.69437,3.46359 -0.70161,3.30082 -5.69729,1.25478 -5.44724,0.09503 -1.43724,4.42336 4.35105,3.27869 3.87167,4.36391 -1.37256,3.08282 -5.83367,0.04282 -5.34796,-1.03959 -2.3255,4.02788 3.57429,4.11168 2.87975,5.07352 -1.98352,2.73007 -5.71509,-1.171 -5.01495,-2.12878 -3.11213,3.45637 2.64132,4.76496 1.76198,5.56139 -2.50779,2.25802 -5.34674,-2.33365 -4.46277,-3.12493 -3.76273,2.73379 1.59291,5.21 0.5672,5.80619 -2.92246,1.68728 -4.74471,-3.3943 -3.71554,-3.9845 -4.24889,1.89173 0.47488,5.42733 -0.65237,5.79724 -3.2094,1.0428 -3.93531,-4.30661 -2.80592,-4.66994 -4.54937,0.967 -0.6639,5.40747 -1.84343,5.53492 -3.35607,0.35274 -2.95392,-5.0307 -1.77367,-5.15127 h -4.651 l -1.77367,5.15127 -2.95392,5.0307 -3.35607,-0.35274 -1.84343,-5.53492 -0.6639,-5.40747 -4.54937,-0.967 -2.80592,4.66994 -3.93531,4.30661 -3.2094,-1.0428 -0.65237,-5.79724 0.47488,-5.42733 -4.24889,-1.89173 -3.71554,3.9845 -4.74471,3.3943 -2.92246,-1.68728 0.5672,-5.80619 1.59291,-5.21 -3.76273,-2.73379 -4.46277,3.12493 -5.34674,2.33365 -2.50779,-2.25802 1.76198,-5.56139 2.64132,-4.76496 -3.11213,-3.45637 -5.01495,2.12878 -5.71509,1.171 -1.98352,-2.73007 2.87975,-5.07352 3.57429,-4.11168 -2.3255,-4.02788 -5.34796,1.03959 -5.83367,-0.04282 -1.37256,-3.08282 3.87167,-4.36391 4.35105,-3.27869 -1.43724,-4.42336 -5.44724,-0.09503 -5.69729,-1.25478 -0.70161,-3.30082 4.69437,-3.46359 4.93765,-2.3024 -0.48616,-4.62552 -5.30845,-1.2255 -5.3119,-2.41189 v -3.37456 l 5.3119,-2.41189 5.30845,-1.2255 0.48616,-4.62552 -4.93765,-2.3024 -4.69437,-3.46359 0.70161,-3.30082 5.69729,-1.25478 5.44724,-0.09503 1.43724,-4.42336 -4.35105,-3.27869 -3.87167,-4.36391 1.37256,-3.08282 5.83367,-0.04282 5.34796,1.03959 2.3255,-4.02788 -3.57429,-4.11168 -2.87975,-5.07352 1.98352,-2.73007 5.71509,1.171 5.01495,2.12878 3.11213,-3.45637 -2.64132,-4.76496 -1.76198,-5.56139 2.50779,-2.25802 5.34674,2.33365 4.46277,3.12493 3.76273,-2.73379 -1.59291,-5.21 -0.5672,-5.80619 2.92246,-1.68728 4.74471,3.3943 3.71554,3.9845 4.24889,-1.89173 -0.47488,-5.42733 0.65237,-5.79724 3.2094,-1.0428 3.93531,4.30661 2.80592,4.66994 4.54937,-0.967 0.6639,-5.40747 1.84343,-5.53492 3.35607,-0.35274 2.95392,5.0307 1.77367,5.15127 h 4.651 l 1.77367,-5.15127 2.95392,-5.0307 3.35607,0.35274 1.84343,5.53492 0.6639,5.40747 4.54937,0.967 2.80592,-4.66994 3.93531,-4.30661 3.2094,1.0428 0.65237,5.79724 -0.47488,5.42733 4.24889,1.89173 3.71554,-3.9845 4.74471,-3.3943 2.92246,1.68728 -0.5672,5.80619 -1.59291,5.21 3.76273,2.73379 4.46277,-3.12493 5.34674,-2.33365 2.50779,2.25802 -1.76198,5.56139 -2.64132,4.76496 3.11213,3.45637 5.01495,-2.12878 5.71509,-1.171 1.98352,2.73007 -2.87975,5.07352 -3.57429,4.11168 2.3255,4.02788 5.34796,-1.03959 5.83367,0.04282 1.37256,3.08282 -3.87167,4.36391 -4.35105,3.27869 1.43724,4.42336 5.44724,0.09503 5.69729,1.25478 0.70161,3.30082 -4.69437,3.46359 -4.93765,2.3024 z"
         style="fill:#262626;fill-opacity:1;stroke:#000000;stroke-width:0.264583"
         id="path844" />
    </g>
  </g>
  <g
     style="display:inline"
     transform="translate(-1.5669633,102.61871)"
     inkscape:label="Text"
     id="layer3"
     inkscape:groupmode="layer">
    <g
       style="font-style:normal;font-variant:normal;font-weight:normal;font-stretch:normal;font-size:25.3999px;line-height:125%;font-family:sans-serif;-inkscape-font-specification:sans-serif;letter-spacing:0px;word-spacing:0px;fill:#000000;fill-opacity:1;stroke:none;stroke-width:0.264583px;stroke-linecap:butt;stroke-linejoin:miter;stroke-opacity:1"
       id="text4529"
       aria-label="WPILib">
      <path
         id="path36"
         style="font-style:normal;font-variant:normal;font-weight:bold;font-stretch:normal;font-size:63.4999px;line-height:100%;font-family:'DejaVu Sans';-inkscape-font-specification:'DejaVu Sans Bold';text-align:center;letter-spacing:-0.793748px;text-anchor:middle;fill:#262626;fill-opacity:1;stroke-width:0.264583px"
         d="M 1.6443965,94.347057 H 13.085541 L 21.08504,127.98836 29.022528,94.347057 H 40.525683 L 48.463171,127.98836 56.46267,94.347057 H 67.810797 L 56.896752,140.63873 h -13.76658 l -8.402575,-35.19159 -8.309558,35.19159 h -13.76658 z" />
      <path
         id="path38"
         style="font-style:normal;font-variant:normal;font-weight:bold;font-stretch:normal;font-size:63.4999px;line-height:100%;font-family:'DejaVu Sans';-inkscape-font-specification:'DejaVu Sans Bold';text-align:center;letter-spacing:-0.793748px;text-anchor:middle;fill:#262626;fill-opacity:1;stroke-width:0.264583px"
         d="M 74.830517,94.347057 H 94.64323 q 8.83666,0 13.54954,3.937738 4.74389,3.906735 4.74389,11.162095 0,7.28636 -4.74389,11.2241 -4.71288,3.90673 -13.54954,3.90673 h -7.875476 v 16.06101 H 74.830517 Z m 11.937237,8.650623 v 12.92942 h 6.604238 q 3.472651,0 5.364005,-1.67431 1.891353,-1.70532 1.891353,-4.8059 0,-3.10058 -1.891353,-4.7749 -1.891354,-1.67431 -5.364005,-1.67431 z" />
      <path
         id="path40"
         style="font-style:normal;font-variant:normal;font-weight:bold;font-stretch:normal;font-size:63.4999px;line-height:100%;font-family:'DejaVu Sans';-inkscape-font-specification:'DejaVu Sans Bold';text-align:center;letter-spacing:-0.793748px;text-anchor:middle;fill:#262626;fill-opacity:1;stroke-width:0.264583px"
         d="m 120.57649,94.347057 h 11.93724 v 46.291673 h -11.93724 z" />
      <path
         id="path42"
         style="font-style:normal;font-variant:normal;font-weight:bold;font-stretch:normal;font-size:63.4999px;line-height:100%;font-family:'DejaVu Sans';-inkscape-font-specification:'DejaVu Sans Bold';text-align:center;letter-spacing:-0.793748px;text-anchor:middle;fill:#262626;fill-opacity:1;stroke-width:0.264583px"
         d="m 143.40918,94.347057 h 11.93723 v 37.268983 h 20.95993 v 9.02269 h -32.89716 z" />
      <path
         id="path44"
         style="font-style:normal;font-variant:normal;font-weight:bold;font-stretch:normal;font-size:63.4999px;line-height:100%;font-family:'DejaVu Sans';-inkscape-font-specification:'DejaVu Sans Bold';text-align:center;letter-spacing:-0.793748px;text-anchor:middle;fill:#262626;fill-opacity:1;stroke-width:0.264583px"
         d="m 182.58191,105.91222 h 11.10008 v 34.72651 h -11.10008 z m 0,-13.518529 h 11.10008 v 9.053699 h -11.10008 z" />
      <path
         id="path46"
         style="font-style:normal;font-variant:normal;font-weight:bold;font-stretch:normal;font-size:63.4999px;line-height:100%;font-family:'DejaVu Sans';-inkscape-font-specification:'DejaVu Sans Bold';text-align:center;letter-spacing:-0.793748px;text-anchor:middle;fill:#262626;fill-opacity:1;stroke-width:0.264583px"
         d="m 222.03371,133.47639 q 3.56566,0 5.42601,-2.60449 1.89136,-2.60449 1.89136,-7.56542 0,-4.96093 -1.89136,-7.56541 -1.86035,-2.60449 -5.42601,-2.60449 -3.56567,0 -5.48803,2.63549 -1.89136,2.60449 -1.89136,7.53441 0,4.92993 1.89136,7.56542 1.92236,2.60449 5.48803,2.60449 z m -7.37939,-22.47921 q 2.29443,-3.03857 5.08496,-4.46484 2.79052,-1.45727 6.4182,-1.45727 6.4182,0 10.54197,5.11596 4.12378,5.08495 4.12378,13.11545 0,8.03051 -4.12378,13.14647 -4.12377,5.08495 -10.54197,5.08495 -3.62768,0 -6.4182,-1.42627 -2.79053,-1.45727 -5.08496,-4.49584 v 5.02294 H 203.55424 V 92.393691 h 11.10008 z" />
    </g>
    <g
       id="g7"
       style="display:inline"
       transform="translate(15.614844,-122.29229)">
      <path
         id="path4489"
         style="font-weight:bold;fill:#a9b0b7;fill-opacity:1;stroke-width:1.09908px"
         d="M 50.350001,69.576383 H 69.360568 L 82.652509,125.47466 95.841412,69.576383 h 19.113608 l 13.1889,55.898277 13.29194,-55.898277 h 18.85601 l -18.13474,76.918097 h -22.8745 L 105.32094,88.020239 91.513803,146.49448 H 68.6393 Z"
         inkscape:connector-curvature="0" />
    </g>
    <g
       style="font-style:normal;font-variant:normal;font-weight:normal;font-stretch:normal;font-size:25.4px;line-height:125%;font-family:sans-serif;-inkscape-font-specification:sans-serif;letter-spacing:0px;word-spacing:0px;fill:#000000;fill-opacity:1;stroke:none;stroke-width:0.264583px;stroke-linecap:butt;stroke-linejoin:miter;stroke-opacity:1"
       id="text19" />
    <g
       style="font-style:normal;font-variant:normal;font-weight:normal;font-stretch:normal;font-size:25.4px;line-height:125%;font-family:sans-serif;-inkscape-font-specification:sans-serif;letter-spacing:0px;word-spacing:0px;fill:#000000;fill-opacity:1;stroke:none;stroke-width:0.264583px;stroke-linecap:butt;stroke-linejoin:miter;stroke-opacity:1"
       id="text29" />
    <g
       style="font-style:normal;font-variant:normal;font-weight:normal;font-stretch:normal;font-size:25.4px;line-height:125%;font-family:sans-serif;-inkscape-font-specification:sans-serif;letter-spacing:0px;word-spacing:0px;fill:#000000;fill-opacity:1;stroke:none;stroke-width:0.264583px;stroke-linecap:butt;stroke-linejoin:miter;stroke-opacity:1"
       id="text35" />
    <g
       style="font-style:normal;font-variant:normal;font-weight:bold;font-stretch:normal;font-size:25.3999px;line-height:125%;font-family:sans-serif;-inkscape-font-specification:'sans-serif Bold';letter-spacing:0px;word-spacing:0px;fill:#000000;fill-opacity:1;stroke:none;stroke-width:0.264583px;stroke-linecap:butt;stroke-linejoin:miter;stroke-opacity:1"
       id="text52" />
    <g
       style="font-style:normal;font-variant:normal;font-weight:normal;font-stretch:normal;font-size:96px;line-height:125%;font-family:sans-serif;-inkscape-font-specification:sans-serif;letter-spacing:0px;word-spacing:0px;fill:#000000;fill-opacity:1;stroke:none;stroke-width:1px;stroke-linecap:butt;stroke-linejoin:miter;stroke-opacity:1"
       id="flowRoot66" />
    <g
       style="font-style:normal;font-variant:normal;font-weight:normal;font-stretch:normal;font-size:25.3999px;line-height:125%;font-family:sans-serif;-inkscape-font-specification:sans-serif;letter-spacing:0px;word-spacing:0px;fill:#000000;fill-opacity:1;stroke:none;stroke-width:0.264583px;stroke-linecap:butt;stroke-linejoin:miter;stroke-opacity:1"
       id="text4514" />
    <g
       style="font-style:normal;font-variant:normal;font-weight:normal;font-stretch:normal;font-size:25.3999px;line-height:125%;font-family:sans-serif;-inkscape-font-specification:sans-serif;letter-spacing:0px;word-spacing:0px;fill:#000000;fill-opacity:1;stroke:none;stroke-width:0.264583px;stroke-linecap:butt;stroke-linejoin:miter;stroke-opacity:1"
       id="text4518"
       aria-label="Developer">
      <path
         id="path55"
         style="font-weight:bold;font-size:42.3332px;letter-spacing:-0.529166px;fill:#262626;fill-opacity:1;stroke-width:0.264583px"
         d="m 11.4299,160.60144 v 18.83083 h 2.85253 q 4.87824,0 7.441383,-2.41845 2.583813,-2.41845 2.583813,-7.02797 0,-4.58885 -2.563142,-6.98663 -2.563143,-2.39778 -7.462054,-2.39778 z m -7.9581448,-6.01512 h 8.3922258 q 7.027973,0 10.459277,1.01286 3.451974,0.99218 5.911765,3.38996 2.170403,2.08772 3.224599,4.81623 1.054196,2.7285 1.054196,6.18048 0,3.49331 -1.054196,6.24249 -1.054196,2.72851 -3.224599,4.81623 -2.480461,2.39778 -5.953106,3.41063 -3.472646,0.99219 -10.417936,0.99219 H 3.4717552 Z" />
      <path
         id="path57"
         style="font-weight:bold;font-size:42.3332px;letter-spacing:-0.529166px;fill:#262626;fill-opacity:1;stroke-width:0.264583px"
         d="m 60.861349,173.80989 v 2.10839 H 43.560134 q 0.268717,2.60449 1.881017,3.90673 1.612299,1.30224 4.50617,1.30224 2.335767,0 4.774887,-0.68213 2.459791,-0.70279 5.043604,-2.10839 v 5.70506 q -2.625154,0.99219 -5.250309,1.48828 -2.625154,0.51676 -5.250309,0.51676 -6.283834,0 -9.777149,-3.18326 -3.472646,-3.20392 -3.472646,-8.971 0,-5.66371 3.410634,-8.90898 3.431304,-3.24527 9.425751,-3.24527 5.457014,0 8.722954,3.28661 3.286611,3.28661 3.286611,8.78496 z m -7.606747,-2.45979 q 0,-2.10839 -1.24023,-3.38996 -1.21956,-1.30224 -3.203929,-1.30224 -2.149732,0 -3.493315,1.21956 -1.343583,1.19889 -1.674311,3.47264 z" />
      <path
         id="path59"
         style="font-weight:bold;font-size:42.3332px;letter-spacing:-0.529166px;fill:#262626;fill-opacity:1;stroke-width:0.264583px"
         d="m 63.019351,162.29642 h 7.400042 l 5.767071,15.99897 5.746401,-15.99897 h 7.420712 l -9.115693,23.15097 h -8.12351 z" />
      <path
         id="path61"
         style="font-weight:bold;font-size:42.3332px;letter-spacing:-0.529166px;fill:#262626;fill-opacity:1;stroke-width:0.264583px"
         d="m 116.10948,173.80989 v 2.10839 H 98.808265 q 0.268717,2.60449 1.881015,3.90673 1.6123,1.30224 4.50617,1.30224 2.33577,0 4.77489,-0.68213 2.45979,-0.70279 5.0436,-2.10839 v 5.70506 q -2.62515,0.99219 -5.25031,1.48828 -2.62515,0.51676 -5.2503,0.51676 -6.283839,0 -9.777155,-3.18326 -3.472645,-3.20392 -3.472645,-8.971 0,-5.66371 3.410634,-8.90898 3.431304,-3.24527 9.425756,-3.24527 5.45701,0 8.72295,3.28661 3.28661,3.28661 3.28661,8.78496 z m -7.60675,-2.45979 q 0,-2.10839 -1.24023,-3.38996 -1.21956,-1.30224 -3.20393,-1.30224 -2.14973,0 -3.49331,1.21956 -1.343585,1.19889 -1.674313,3.47264 z" />
      <path
         id="path63"
         style="font-weight:bold;font-size:42.3332px;letter-spacing:-0.529166px;fill:#262626;fill-opacity:1;stroke-width:0.264583px"
         d="m 121.18202,153.28408 h 7.40004 v 32.16331 h -7.40004 z" />
      <path
         id="path65"
         style="font-weight:bold;font-size:42.3332px;letter-spacing:-0.529166px;fill:#262626;fill-opacity:1;stroke-width:0.264583px"
         d="m 146.18093,167.02997 q -2.45979,0 -3.76203,1.77766 -1.28157,1.75699 -1.28157,5.08494 0,3.32796 1.28157,5.10562 1.30224,1.75699 3.76203,1.75699 2.41845,0 3.70002,-1.75699 1.28157,-1.77766 1.28157,-5.10562 0,-3.32795 -1.28157,-5.08494 -1.28157,-1.77766 -3.70002,-1.77766 z m 0,-5.29165 q 5.97378,0 9.3224,3.2246 3.36929,3.22459 3.36929,8.92965 0,5.70506 -3.36929,8.92966 -3.34862,3.2246 -9.3224,3.2246 -5.99445,0 -9.38441,-3.2246 -3.36929,-3.2246 -3.36929,-8.92966 0,-5.70506 3.36929,-8.92965 3.38996,-3.2246 9.38441,-3.2246 z" />
      <path
         id="path67"
         style="font-weight:bold;font-size:42.3332px;letter-spacing:-0.529166px;fill:#262626;fill-opacity:1;stroke-width:0.264583px"
         d="m 171.11784,182.09877 v 12.15425 h -7.40005 v -31.9566 h 7.40005 v 3.38996 q 1.52961,-2.02571 3.38996,-2.97655 1.86034,-0.97151 4.27879,-0.97151 4.2788,0 7.02798,3.41063 2.74917,3.38996 2.74917,8.74362 0,5.35367 -2.74917,8.7643 -2.74918,3.38996 -7.02798,3.38996 -2.41845,0 -4.27879,-0.95084 -1.86035,-0.97151 -3.38996,-2.99722 z m 4.91958,-14.98612 q -2.37711,0 -3.65868,1.75699 -1.2609,1.73632 -1.2609,5.02293 0,3.28661 1.2609,5.04361 1.28157,1.73632 3.65868,1.73632 2.3771,0 3.61734,-1.73632 1.2609,-1.73632 1.2609,-5.04361 0,-3.30728 -1.2609,-5.0436 -1.24024,-1.73632 -3.61734,-1.73632 z" />
      <path
         id="path69"
         style="font-weight:bold;font-size:42.3332px;letter-spacing:-0.529166px;fill:#262626;fill-opacity:1;stroke-width:0.264583px"
         d="m 216.60121,173.80989 v 2.10839 H 199.3 q 0.26871,2.60449 1.88101,3.90673 1.6123,1.30224 4.50617,1.30224 2.33577,0 4.77489,-0.68213 2.45979,-0.70279 5.0436,-2.10839 v 5.70506 q -2.62515,0.99219 -5.25031,1.48828 -2.62515,0.51676 -5.25031,0.51676 -6.28383,0 -9.77714,-3.18326 -3.47265,-3.20392 -3.47265,-8.971 0,-5.66371 3.41063,-8.90898 3.43131,-3.24527 9.42575,-3.24527 5.45702,0 8.72296,3.28661 3.28661,3.28661 3.28661,8.78496 z m -7.60675,-2.45979 q 0,-2.10839 -1.24023,-3.38996 -1.21956,-1.30224 -3.20393,-1.30224 -2.14973,0 -3.49331,1.21956 -1.34358,1.19889 -1.67431,3.47264 z" />
      <path
         id="path71"
         style="font-weight:bold;font-size:42.3332px;letter-spacing:-0.529166px;fill:#262626;fill-opacity:1;stroke-width:0.264583px"
         d="m 238.87162,168.60092 q -0.97151,-0.45475 -1.94303,-0.66145 -0.95084,-0.22738 -1.92236,-0.22738 -2.85253,0 -4.40281,1.83968 -1.52962,1.819 -1.52962,5.22964 v 10.66598 h -7.40004 v -23.15097 h 7.40004 v 3.80337 q 1.42626,-2.27375 3.26594,-3.30728 1.86034,-1.05419 4.44416,-1.05419 0.37207,0 0.80615,0.0413 0.43408,0.0207 1.2609,0.12402 z" />
    </g>
  </g>
</svg>
