<?xml version="1.0" encoding="UTF-8" standalone="no"?>
<svg
   id="svg8"
   version="1.1"
   viewBox="0 0 239.27168 296.87156"
   height="1122.0382"
   width="904.33594"
   xmlns:inkscape="http://www.inkscape.org/namespaces/inkscape"
   xmlns:sodipodi="http://sodipodi.sourceforge.net/DTD/sodipodi-0.dtd"
   xmlns="http://www.w3.org/2000/svg"
   xmlns:svg="http://www.w3.org/2000/svg">
  <g
     transform="translate(-7.9122613,-2.3895986)"
     id="layer1"
     inkscape:groupmode="layer"
     inkscape:label="Hexagon"
     style="display:inline">
    <path
       inkscape:transform-center-y="-6.945032e-06"
       inkscape:transform-center-x="1.0148083e-05"
       d="m 176.7689,173.82025 -98.975642,-10e-6 -49.487815,-85.715417 49.487824,-85.7154156 98.975643,4.9e-6 49.48781,85.7154207 z"
       inkscape:randomized="0"
       inkscape:rounded="0"
       inkscape:flatsided="true"
       sodipodi:arg2="1.5707963"
       sodipodi:arg1="1.0471976"
       sodipodi:r2="85.715424"
       sodipodi:r1="98.975639"
       sodipodi:cy="88.104828"
       sodipodi:cx="127.28108"
       sodipodi:sides="6"
       id="path32"
       style="fill:#ac2b37;fill-opacity:1;stroke-width:0.27816623"
       sodipodi:type="star" />
  </g>
  <g
     inkscape:groupmode="layer"
     id="layer2"
     inkscape:label="Gear"
     style="display:inline"
     transform="translate(-7.9122613,82.94368)">
    <g
       id="g848"
       inkscape:label="Gear30"
       transform="translate(127.28108,2.7714802)">
      <path
         id="path844"
         style="fill:#262626;fill-opacity:1;stroke:#000000;stroke-width:0.26458332"
         d="m 72.90834,-5.32467 5.30845,1.2255 5.3119,2.41189 v 3.37456 l -5.3119,2.41189 -5.30845,1.2255 -0.48616,4.62552 4.93765,2.3024 4.69437,3.46359 -0.70161,3.30082 -5.69729,1.25478 -5.44724,0.09503 -1.43724,4.42336 4.35105,3.27869 3.87167,4.36391 -1.37256,3.08282 -5.83367,0.04282 -5.34796,-1.03959 -2.3255,4.02788 3.57429,4.11168 2.87975,5.07352 -1.98352,2.73007 -5.71509,-1.171 -5.01495,-2.12878 -3.11213,3.45637 2.64132,4.76496 1.76198,5.56139 -2.50779,2.25802 -5.34674,-2.33365 -4.46277,-3.12493 -3.76273,2.73379 1.59291,5.21 0.5672,5.80619 -2.92246,1.68728 -4.74471,-3.3943 -3.71554,-3.9845 -4.24889,1.89173 0.47488,5.42733 -0.65237,5.79724 -3.2094,1.0428 -3.93531,-4.30661 -2.80592,-4.66994 -4.54937,0.967 -0.6639,5.40747 -1.84343,5.53492 -3.35607,0.35274 -2.95392,-5.0307 -1.77367,-5.15127 h -4.651 l -1.77367,5.15127 -2.95392,5.0307 -3.35607,-0.35274 -1.84343,-5.53492 -0.6639,-5.40747 -4.54937,-0.967 -2.80592,4.66994 -3.93531,4.30661 -3.2094,-1.0428 -0.65237,-5.79724 0.47488,-5.42733 -4.24889,-1.89173 -3.71554,3.9845 -4.74471,3.3943 -2.92246,-1.68728 0.5672,-5.80619 1.59291,-5.21 -3.76273,-2.73379 -4.46277,3.12493 -5.34674,2.33365 -2.50779,-2.25802 1.76198,-5.56139 2.64132,-4.76496 -3.11213,-3.45637 -5.01495,2.12878 -5.71509,1.171 -1.98352,-2.73007 2.87975,-5.07352 3.57429,-4.11168 -2.3255,-4.02788 -5.34796,1.03959 -5.83367,-0.04282 -1.37256,-3.08282 3.87167,-4.36391 4.35105,-3.27869 -1.43724,-4.42336 -5.44724,-0.09503 -5.69729,-1.25478 -0.70161,-3.30082 4.69437,-3.46359 4.93765,-2.3024 -0.48616,-4.62552 -5.30845,-1.2255 -5.3119,-2.41189 v -3.37456 l 5.3119,-2.41189 5.30845,-1.2255 0.48616,-4.62552 -4.93765,-2.3024 -4.69437,-3.46359 0.70161,-3.30082 5.69729,-1.25478 5.44724,-0.09503 1.43724,-4.42336 -4.35105,-3.27869 -3.87167,-4.36391 1.37256,-3.08282 5.83367,-0.04282 5.34796,1.03959 2.3255,-4.02788 -3.57429,-4.11168 -2.87975,-5.07352 1.98352,-2.73007 5.71509,1.171 5.01495,2.12878 3.11213,-3.45637 -2.64132,-4.76496 -1.76198,-5.56139 2.50779,-2.25802 5.34674,2.33365 4.46277,3.12493 3.76273,-2.73379 -1.59291,-5.21 -0.5672,-5.80619 2.92246,-1.68728 4.74471,3.3943 3.71554,3.9845 4.24889,-1.89173 -0.47488,-5.42733 0.65237,-5.79724 3.2094,-1.0428 3.93531,4.30661 2.80592,4.66994 4.54937,-0.967 0.6639,-5.40747 1.84343,-5.53492 3.35607,-0.35274 2.95392,5.0307 1.77367,5.15127 h 4.651 l 1.77367,-5.15127 2.95392,-5.0307 3.35607,0.35274 1.84343,5.53492 0.6639,5.40747 4.54937,0.967 2.80592,-4.66994 3.93531,-4.30661 3.2094,1.0428 0.65237,5.79724 -0.47488,5.42733 4.24889,1.89173 3.71554,-3.9845 4.74471,-3.3943 2.92246,1.68728 -0.5672,5.80619 -1.59291,5.21 3.76273,2.73379 4.46277,-3.12493 5.34674,-2.33365 2.50779,2.25802 -1.76198,5.56139 -2.64132,4.76496 3.11213,3.45637 5.01495,-2.12878 5.71509,-1.171 1.98352,2.73007 -2.87975,5.07352 -3.57429,4.11168 2.3255,4.02788 5.34796,-1.03959 5.83367,0.04282 1.37256,3.08282 -3.87167,4.36391 -4.35105,3.27869 1.43724,4.42336 5.44724,0.09503 5.69729,1.25478 0.70161,3.30082 -4.69437,3.46359 -4.93765,2.3024 z"
         inkscape:connector-curvature="0" />
    </g>
  </g>
  <g
     inkscape:groupmode="layer"
     id="layer3"
     inkscape:label="Text"
     transform="translate(-1.5669633,102.61871)"
     style="display:inline">
    <path
       style="font-weight:bold;font-size:63.4999px;line-height:100%;font-family:'DejaVu Sans';-inkscape-font-specification:'DejaVu Sans Bold';text-align:center;letter-spacing:-0.793748px;word-spacing:0px;text-anchor:middle;fill:#262626;stroke-width:0.264583px"
       d="M 1.6444778,94.347088 H 13.085614 l 7.999494,33.641282 7.937483,-33.641282 h 11.503148 l 7.937482,33.641282 7.999494,-33.641282 h 11.34812 L 56.896796,140.63873 H 43.130225 l -8.402569,-35.19157 -8.309552,35.19157 H 12.651533 Z m 73.1860722,0 h 19.8127 q 8.83665,0 13.54953,3.937735 4.74389,3.906727 4.74389,11.162087 0,7.28636 -4.74389,11.22409 -4.71288,3.90673 -13.54953,3.90673 h -7.875471 v 16.061 H 74.83055 Z m 11.937229,8.650612 v 12.92942 h 6.604234 q 3.472648,0 5.364001,-1.67431 1.891356,-1.70532 1.891356,-4.8059 0,-3.10058 -1.891356,-4.77489 -1.891353,-1.67432 -5.364001,-1.67432 z m 33.808711,-8.650612 h 11.93723 v 46.291642 h -11.93723 z m 22.83266,0 h 11.93723 v 37.268962 h 20.95991 v 9.02268 h -32.89714 z m 39.17271,11.565162 h 11.10008 v 34.72648 h -11.10008 z m 0,-13.518527 h 11.10008 v 9.053687 h -11.10008 z m 39.45177,41.082677 q 3.56567,0 5.42602,-2.60449 1.89135,-2.60449 1.89135,-7.56541 0,-4.96093 -1.89135,-7.56542 -1.86035,-2.60448 -5.42602,-2.60448 -3.56566,0 -5.48802,2.63549 -1.89135,2.60449 -1.89135,7.53441 0,4.92992 1.89135,7.56541 1.92236,2.60449 5.48802,2.60449 z m -7.37937,-22.4792 q 2.29443,-3.03857 5.08495,-4.46484 2.79052,-1.45727 6.4182,-1.45727 6.41819,0 10.54196,5.11596 4.12377,5.08495 4.12377,13.11545 0,8.0305 -4.12377,13.14645 -4.12377,5.08495 -10.54196,5.08495 -3.62768,0 -6.4182,-1.42627 -2.79052,-1.45727 -5.08495,-4.49584 v 5.02294 H 203.55418 V 92.393723 h 11.10008 z"
       id="text4529"
       aria-label="WPILib" />
    <g
       transform="translate(15.614844,-122.29229)"
       style="display:inline"
       id="g7">
      <path
         inkscape:connector-curvature="0"
         d="M 50.350001,69.576383 H 69.360568 L 82.652509,125.47466 95.841412,69.576383 h 19.113608 l 13.1889,55.898277 13.29194,-55.898277 h 18.85601 l -18.13474,76.918097 h -22.8745 L 105.32094,88.020239 91.513803,146.49448 H 68.6393 Z"
         style="font-weight:bold;fill:#a9b0b7;fill-opacity:1;stroke-width:1.0990752px"
         id="path4489" />
    </g>
    <text
       xml:space="preserve"
       style="font-style:normal;font-variant:normal;font-weight:normal;font-stretch:normal;font-size:25.4px;line-height:125%;font-family:sans-serif;-inkscape-font-specification:sans-serif;letter-spacing:0px;word-spacing:0px;fill:#000000;fill-opacity:1;stroke:none;stroke-width:0.264583px;stroke-linecap:butt;stroke-linejoin:miter;stroke-opacity:1"
       x="13.001038"
       y="83.777885"
       id="text19"><tspan
         sodipodi:role="line"
         x="13.001038"
         y="83.777885"
         style="font-weight:bold;stroke-width:0.264583px"
         id="tspan21" /></text>
    <text
       xml:space="preserve"
       style="font-style:normal;font-variant:normal;font-weight:normal;font-stretch:normal;font-size:25.4px;line-height:125%;font-family:sans-serif;-inkscape-font-specification:sans-serif;letter-spacing:0px;word-spacing:0px;fill:#000000;fill-opacity:1;stroke:none;stroke-width:0.264583px;stroke-linecap:butt;stroke-linejoin:miter;stroke-opacity:1"
       x="59.884418"
       y="89.9207"
       id="text29"><tspan
         sodipodi:role="line"
         id="tspan27"
         x="59.884418"
         y="89.9207"
         style="stroke-width:0.264583px" /></text>
    <text
       xml:space="preserve"
       style="font-style:normal;font-variant:normal;font-weight:normal;font-stretch:normal;font-size:25.4px;line-height:125%;font-family:sans-serif;-inkscape-font-specification:sans-serif;letter-spacing:0px;word-spacing:0px;fill:#000000;fill-opacity:1;stroke:none;stroke-width:0.264583px;stroke-linecap:butt;stroke-linejoin:miter;stroke-opacity:1"
       x="24.951841"
       y="71.622688"
       id="text35"><tspan
         sodipodi:role="line"
         id="tspan33"
         x="24.951841"
         y="71.622688"
         style="stroke-width:0.264583px" /></text>
    <text
       xml:space="preserve"
       style="font-style:normal;font-variant:normal;font-weight:bold;font-stretch:normal;font-size:25.3999px;line-height:125%;font-family:sans-serif;-inkscape-font-specification:'sans-serif Bold';letter-spacing:0px;word-spacing:0px;fill:#000000;fill-opacity:1;stroke:none;stroke-width:0.264583px;stroke-linecap:butt;stroke-linejoin:miter;stroke-opacity:1"
       x="3.4738271"
       y="84.370041"
       id="text52"><tspan
         sodipodi:role="line"
         id="tspan49"
         x="3.4738271"
         y="84.370041"
         style="font-style:normal;font-variant:normal;font-weight:bold;font-stretch:normal;font-family:sans-serif;-inkscape-font-specification:'sans-serif Bold';stroke-width:0.264583px" /></text>
    <flowRoot
       xml:space="preserve"
       id="flowRoot66"
       style="font-style:normal;font-variant:normal;font-weight:normal;font-stretch:normal;font-size:96px;line-height:125%;font-family:sans-serif;-inkscape-font-specification:sans-serif;letter-spacing:0px;word-spacing:0px;fill:#000000;fill-opacity:1;stroke:none;stroke-width:1px;stroke-linecap:butt;stroke-linejoin:miter;stroke-opacity:1"><flowRegion
         id="flowRegion68"><rect
           id="rect70"
           width="225.2869"
           height="291.31927"
           x="-421.44186"
           y="631.19177" /></flowRegion><flowPara
         id="flowPara72" /></flowRoot>
    <text
       xml:space="preserve"
       style="font-style:normal;font-variant:normal;font-weight:normal;font-stretch:normal;font-size:25.3999px;line-height:125%;font-family:sans-serif;-inkscape-font-specification:sans-serif;letter-spacing:0px;word-spacing:0px;fill:#000000;fill-opacity:1;stroke:none;stroke-width:0.264583px;stroke-linecap:butt;stroke-linejoin:miter;stroke-opacity:1"
       x="8.3889551"
       y="206.60857"
       id="text4514"><tspan
         sodipodi:role="line"
         id="tspan4512"
         x="8.3889551"
         y="206.60857"
         style="stroke-width:0.264583px" /></text>
    <path
       style="font-weight:bold;font-size:42.3332px;line-height:125%;-inkscape-font-specification:sans-serif;letter-spacing:-0.529166px;word-spacing:0px;fill:#262626;stroke-width:0.264583px"
       d="m 28.456967,170.03809 q 0,7.66232 -4.360323,11.55697 -4.31799,3.85233 -12.149639,3.85233 H 3.3956912 v -30.22593 h 9.4826448 q 4.741323,0 8.212648,1.69333 3.513659,1.69333 5.418654,4.99532 1.947329,3.25966 1.947329,8.12798 z m -6.646318,0.16933 q 0,-5.03765 -2.201328,-7.36598 -2.201328,-2.37066 -6.392319,-2.37066 H 9.7880099 v 19.68495 H 12.53967 q 9.270979,0 9.270979,-9.94831 z m 21.399442,-8.29731 q 4.783656,0 7.577649,2.75166 2.793994,2.70933 2.793994,7.74698 v 3.04799 H 38.680435 q 0.08467,2.667 1.56633,4.19099 1.523996,1.524 4.19099,1.524 2.243662,0 4.063991,-0.42333 1.820329,-0.46567 3.767658,-1.397 v 4.86832 q -1.69333,0.84667 -3.598325,1.22767 -1.862663,0.42333 -4.529657,0.42333 -3.471325,0 -6.138319,-1.27 -2.666994,-1.31233 -4.19099,-3.93699 -1.523997,-2.62466 -1.523997,-6.60398 0,-4.06399 1.354664,-6.73099 1.396996,-2.70932 3.852324,-4.06399 2.455328,-1.35466 5.714987,-1.35466 z m 0.04233,4.48732 q -1.820329,0 -3.047993,1.18533 -1.18533,1.18533 -1.396997,3.68299 h 8.847647 q -0.04233,-2.11666 -1.100664,-3.47132 -1.058331,-1.397 -3.301993,-1.397 z m 19.579084,19.04996 -8.805314,-23.11395 h 6.603985 l 4.44499,13.16564 q 0.380999,1.18533 0.592666,2.45532 0.253999,1.27 0.296332,2.286 H 66.1335 q 0.127,-2.286 0.931331,-4.74132 l 4.44499,-13.16564 h 6.603985 l -8.805313,23.11395 z m 27.580117,-23.53728 q 4.783656,0 7.57765,2.75166 2.793995,2.70933 2.793995,7.74698 v 3.04799 H 85.881969 q 0.08467,2.667 1.56633,4.19099 1.523996,1.524 4.19099,1.524 2.243662,0 4.063991,-0.42333 1.820329,-0.46567 3.767658,-1.397 v 4.86832 q -1.693329,0.84667 -3.598325,1.22767 -1.862663,0.42333 -4.529656,0.42333 -3.471326,0 -6.13832,-1.27 -2.666994,-1.31233 -4.19099,-3.93699 -1.523997,-2.62466 -1.523997,-6.60398 0,-4.06399 1.354664,-6.73099 1.396997,-2.70932 3.852324,-4.06399 2.455328,-1.35466 5.714987,-1.35466 z m 0.04233,4.48732 q -1.82033,0 -3.047993,1.18533 -1.185331,1.18533 -1.396997,3.68299 h 8.847646 q -0.04233,-2.11666 -1.100664,-3.47132 -1.058331,-1.397 -3.301992,-1.397 z m 21.230101,19.04996 h -6.30765 v -32.17326 h 6.30765 z m 27.07212,-11.59931 q 0,5.75732 -3.04799,8.88998 -3.00566,3.13266 -8.21265,3.13266 -3.21733,0 -5.75732,-1.397 -2.49766,-1.39699 -3.93699,-4.06399 -1.43933,-2.70932 -1.43933,-6.56165 0,-5.75732 3.00566,-8.84765 3.00566,-3.09032 8.25498,-3.09032 3.25966,0 5.75732,1.39699 2.49766,1.397 3.93699,4.064 1.43933,2.62466 1.43933,6.47698 z m -15.95963,0 q 0,3.42899 1.10066,5.20699 1.143,1.73566 3.68299,1.73566 2.49766,0 3.59833,-1.73566 1.143,-1.778 1.143,-5.20699 0,-3.42899 -1.143,-5.12232 -1.10067,-1.73566 -3.64066,-1.73566 -2.49766,0 -3.64066,1.73566 -1.10066,1.69333 -1.10066,5.12232 z m 33.50673,-11.93797 q 3.89465,0 6.30765,3.04799 2.41299,3.00566 2.41299,8.88998 0,5.88432 -2.49766,8.97465 -2.49766,3.04799 -6.39232,3.04799 -2.49766,0 -3.97932,-0.889 -1.48166,-0.93133 -2.413,-2.07433 h -0.33866 q 0.33866,1.778 0.33866,3.38666 v 9.31331 h -6.30765 v -33.27392 h 5.12232 l 0.889,3.00566 h 0.29633 q 0.93134,-1.397 2.49767,-2.41299 1.56633,-1.016 4.06399,-1.016 z m -2.032,5.03765 q -2.45533,0 -3.47132,1.524 -0.97367,1.524 -1.05834,4.65666 v 0.67733 q 0,3.34432 0.97367,5.16465 1.016,1.778 3.64066,1.778 2.15899,0 3.17499,-1.778 1.05833,-1.82033 1.05833,-5.20699 0,-6.81565 -4.31799,-6.81565 z m 24.95543,-5.03765 q 4.78366,0 7.57765,2.75166 2.79399,2.70933 2.79399,7.74698 v 3.04799 h -14.90129 q 0.0847,2.667 1.56633,4.19099 1.52399,1.524 4.19099,1.524 2.24366,0 4.06399,-0.42333 1.82033,-0.46567 3.76765,-1.397 v 4.86832 q -1.69333,0.84667 -3.59832,1.22767 -1.86266,0.42333 -4.52966,0.42333 -3.47132,0 -6.13832,-1.27 -2.66699,-1.31233 -4.19099,-3.93699 -1.52399,-2.62466 -1.52399,-6.60398 0,-4.06399 1.35466,-6.73099 1.397,-2.70932 3.85232,-4.06399 2.45533,-1.35466 5.71499,-1.35466 z m 0.0423,4.48732 q -1.82032,0 -3.04799,1.18533 -1.18533,1.18533 -1.39699,3.68299 h 8.84764 q -0.0423,-2.11666 -1.10066,-3.47132 -1.05833,-1.397 -3.302,-1.397 z m 27.83409,-4.48732 q 0.46567,0 1.10067,0.0423 0.63499,0.0423 1.01599,0.127 l -0.46566,5.92665 q -0.29633,-0.0847 -0.889,-0.127 -0.55033,-0.0847 -0.97366,-0.0847 -1.60867,0 -3.09033,0.59266 -1.48166,0.55034 -2.41299,1.82033 -0.889,1.27 -0.889,3.47133 v 11.76864 h -6.30766 v -23.11395 h 4.78366 l 0.93133,3.89466 h 0.29633 q 1.016,-1.778 2.794,-3.04799 1.77799,-1.27 4.10632,-1.27 z"
       id="text4518"
       aria-label="Developer" />
  </g>
</svg>
