<?xml version="1.0" encoding="UTF-8" standalone="no"?>
<svg
   xmlns:dc="http://purl.org/dc/elements/1.1/"
   xmlns:cc="http://creativecommons.org/ns#"
   xmlns:rdf="http://www.w3.org/1999/02/22-rdf-syntax-ns#"
   xmlns:svg="http://www.w3.org/2000/svg"
   xmlns="http://www.w3.org/2000/svg"
   xmlns:sodipodi="http://sodipodi.sourceforge.net/DTD/sodipodi-0.dtd"
   xmlns:inkscape="http://www.inkscape.org/namespaces/inkscape"
   width="1123.0781"
   height="898.95343"
   viewBox="0 0 297.14708 237.84725"
   version="1.1"
   id="svg8">
  <g
     style="display:inline"
     inkscape:label="Hexagon"
     inkscape:groupmode="layer"
     id="layer1"
     transform="translate(21.273474,-2.3895409)">
    <path
       d="m 176.7689,173.82025 -98.975642,-10e-6 -49.487815,-85.715417 49.487824,-85.7154156 98.975643,4.9e-6 49.48781,85.7154207 z"
       inkscape:transform-center-y="-6.945032e-06"
       inkscape:transform-center-x="1.0148083e-05"
       style="fill:#ac2b37;fill-opacity:1;stroke-width:0.278166"
       id="path32" />
  </g>
  <g
     transform="translate(21.273474,82.943736)"
     style="display:inline"
     inkscape:label="Gear"
     id="layer2"
     inkscape:groupmode="layer">
    <g
       transform="translate(127.28108,2.7714802)"
       inkscape:label="Gear30"
       id="g848">
      <path
         inkscape:connector-curvature="0"
         d="m 72.90834,-5.32467 5.30845,1.2255 5.3119,2.41189 v 3.37456 l -5.3119,2.41189 -5.30845,1.2255 -0.48616,4.62552 4.93765,2.3024 4.69437,3.46359 -0.70161,3.30082 -5.69729,1.25478 -5.44724,0.09503 -1.43724,4.42336 4.35105,3.27869 3.87167,4.36391 -1.37256,3.08282 -5.83367,0.04282 -5.34796,-1.03959 -2.3255,4.02788 3.57429,4.11168 2.87975,5.07352 -1.98352,2.73007 -5.71509,-1.171 -5.01495,-2.12878 -3.11213,3.45637 2.64132,4.76496 1.76198,5.56139 -2.50779,2.25802 -5.34674,-2.33365 -4.46277,-3.12493 -3.76273,2.73379 1.59291,5.21 0.5672,5.80619 -2.92246,1.68728 -4.74471,-3.3943 -3.71554,-3.9845 -4.24889,1.89173 0.47488,5.42733 -0.65237,5.79724 -3.2094,1.0428 -3.93531,-4.30661 -2.80592,-4.66994 -4.54937,0.967 -0.6639,5.40747 -1.84343,5.53492 -3.35607,0.35274 -2.95392,-5.0307 -1.77367,-5.15127 h -4.651 l -1.77367,5.15127 -2.95392,5.0307 -3.35607,-0.35274 -1.84343,-5.53492 -0.6639,-5.40747 -4.54937,-0.967 -2.80592,4.66994 -3.93531,4.30661 -3.2094,-1.0428 -0.65237,-5.79724 0.47488,-5.42733 -4.24889,-1.89173 -3.71554,3.9845 -4.74471,3.3943 -2.92246,-1.68728 0.5672,-5.80619 1.59291,-5.21 -3.76273,-2.73379 -4.46277,3.12493 -5.34674,2.33365 -2.50779,-2.25802 1.76198,-5.56139 2.64132,-4.76496 -3.11213,-3.45637 -5.01495,2.12878 -5.71509,1.171 -1.98352,-2.73007 2.87975,-5.07352 3.57429,-4.11168 -2.3255,-4.02788 -5.34796,1.03959 -5.83367,-0.04282 -1.37256,-3.08282 3.87167,-4.36391 4.35105,-3.27869 -1.43724,-4.42336 -5.44724,-0.09503 -5.69729,-1.25478 -0.70161,-3.30082 4.69437,-3.46359 4.93765,-2.3024 -0.48616,-4.62552 -5.30845,-1.2255 -5.3119,-2.41189 v -3.37456 l 5.3119,-2.41189 5.30845,-1.2255 0.48616,-4.62552 -4.93765,-2.3024 -4.69437,-3.46359 0.70161,-3.30082 5.69729,-1.25478 5.44724,-0.09503 1.43724,-4.42336 -4.35105,-3.27869 -3.87167,-4.36391 1.37256,-3.08282 5.83367,-0.04282 5.34796,1.03959 2.3255,-4.02788 -3.57429,-4.11168 -2.87975,-5.07352 1.98352,-2.73007 5.71509,1.171 5.01495,2.12878 3.11213,-3.45637 -2.64132,-4.76496 -1.76198,-5.56139 2.50779,-2.25802 5.34674,2.33365 4.46277,3.12493 3.76273,-2.73379 -1.59291,-5.21 -0.5672,-5.80619 2.92246,-1.68728 4.74471,3.3943 3.71554,3.9845 4.24889,-1.89173 -0.47488,-5.42733 0.65237,-5.79724 3.2094,-1.0428 3.93531,4.30661 2.80592,4.66994 4.54937,-0.967 0.6639,-5.40747 1.84343,-5.53492 3.35607,-0.35274 2.95392,5.0307 1.77367,5.15127 h 4.651 l 1.77367,-5.15127 2.95392,-5.0307 3.35607,0.35274 1.84343,5.53492 0.6639,5.40747 4.54937,0.967 2.80592,-4.66994 3.93531,-4.30661 3.2094,1.0428 0.65237,5.79724 -0.47488,5.42733 4.24889,1.89173 3.71554,-3.9845 4.74471,-3.3943 2.92246,1.68728 -0.5672,5.80619 -1.59291,5.21 3.76273,2.73379 4.46277,-3.12493 5.34674,-2.33365 2.50779,2.25802 -1.76198,5.56139 -2.64132,4.76496 3.11213,3.45637 5.01495,-2.12878 5.71509,-1.171 1.98352,2.73007 -2.87975,5.07352 -3.57429,4.11168 2.3255,4.02788 5.34796,-1.03959 5.83367,0.04282 1.37256,3.08282 -3.87167,4.36391 -4.35105,3.27869 1.43724,4.42336 5.44724,0.09503 5.69729,1.25478 0.70161,3.30082 -4.69437,3.46359 -4.93765,2.3024 z"
         style="fill:#262626;fill-opacity:1;stroke:#000000;stroke-width:0.264583"
         id="path844" />
    </g>
  </g>
  <g
     style="display:inline"
     transform="translate(27.618772,102.61877)"
     inkscape:label="Text"
     id="layer3"
     inkscape:groupmode="layer">
    <g
       style="font-style:normal;font-variant:normal;font-weight:normal;font-stretch:normal;font-size:25.3999px;line-height:125%;font-family:sans-serif;-inkscape-font-specification:sans-serif;letter-spacing:0px;word-spacing:0px;fill:#000000;fill-opacity:1;stroke:none;stroke-width:0.264583px;stroke-linecap:butt;stroke-linejoin:miter;stroke-opacity:1"
       id="text4529"
       aria-label="WPILib Development
Team">
      <path
         id="path33"
         style="font-style:normal;font-variant:normal;font-weight:bold;font-stretch:normal;font-size:25.3999px;font-family:'DejaVu Sans';-inkscape-font-specification:'DejaVu Sans Bold';text-align:center;text-anchor:middle;fill:#262626;fill-opacity:1;stroke-width:0.264583px"
         d="m -27.544113,84.60243 h 4.576447 l 3.199792,13.45649 3.174988,-13.45649 h 4.601251 l 3.1749879,13.45649 3.1997922,-13.45649 h 4.53924 l -4.3656079,18.51663 h -5.5066192 l -3.361022,-14.076608 -3.323815,14.076608 h -5.506619 z" />
      <path
         id="path35"
         style="font-style:normal;font-variant:normal;font-weight:bold;font-stretch:normal;font-size:25.3999px;font-family:'DejaVu Sans';-inkscape-font-specification:'DejaVu Sans Bold';text-align:center;text-anchor:middle;fill:#262626;fill-opacity:1;stroke-width:0.264583px"
         d="M 2.0477634,84.60243 H 9.97283 q 3.534654,0 5.419803,1.575092 1.897551,1.562689 1.897551,4.464826 0,2.914539 -1.897551,4.489631 -1.885149,1.562689 -5.419803,1.562689 H 6.822647 v 6.424392 H 2.0477634 Z m 4.7748836,3.46024 v 5.171757 h 2.6416889 q 1.3890571,0 2.1455971,-0.669723 0.75654,-0.682127 0.75654,-1.922356 0,-1.24023 -0.75654,-1.909954 -0.75654,-0.669724 -2.1455971,-0.669724 z" />
      <path
         id="path37"
         style="font-style:normal;font-variant:normal;font-weight:bold;font-stretch:normal;font-size:25.3999px;font-family:'DejaVu Sans';-inkscape-font-specification:'DejaVu Sans Bold';text-align:center;text-anchor:middle;fill:#262626;fill-opacity:1;stroke-width:0.264583px"
         d="m 20.663608,84.60243 h 4.774884 v 18.51663 h -4.774884 z" />
      <path
         id="path39"
         style="font-style:normal;font-variant:normal;font-weight:bold;font-stretch:normal;font-size:25.3999px;font-family:'DejaVu Sans';-inkscape-font-specification:'DejaVu Sans Bold';text-align:center;text-anchor:middle;fill:#262626;fill-opacity:1;stroke-width:0.264583px"
         d="m 30.114158,84.60243 h 4.774884 v 14.907559 h 8.383951 v 3.609071 H 30.114158 Z" />
      <path
         id="path41"
         style="font-style:normal;font-variant:normal;font-weight:bold;font-stretch:normal;font-size:25.3999px;font-family:'DejaVu Sans';-inkscape-font-specification:'DejaVu Sans Bold';text-align:center;text-anchor:middle;fill:#262626;fill-opacity:1;stroke-width:0.264583px"
         d="m 46.100715,89.228486 h 4.440022 v 13.890574 h -4.440022 z m 0,-5.407401 h 4.440022 v 3.621471 h -4.440022 z" />
      <path
         id="path43"
         style="font-style:normal;font-variant:normal;font-weight:bold;font-stretch:normal;font-size:25.3999px;font-family:'DejaVu Sans';-inkscape-font-specification:'DejaVu Sans Bold';text-align:center;text-anchor:middle;fill:#262626;fill-opacity:1;stroke-width:0.264583px"
         d="m 62.198896,100.25413 q 1.426264,0 2.170402,-1.041796 0.75654,-1.041793 0.75654,-3.02616 0,-1.984368 -0.75654,-3.02616 -0.744138,-1.041793 -2.170402,-1.041793 -1.426264,0 -2.195206,1.054195 -0.75654,1.041793 -0.75654,3.013758 0,1.971965 0.75654,3.02616 0.768942,1.041796 2.195206,1.041796 z M 59.24715,91.262463 q 0.91777,-1.215425 2.033977,-1.785931 1.116206,-0.582908 2.567275,-0.582908 2.567275,0 4.21678,2.046379 1.649505,2.033976 1.649505,5.246171 0,3.212194 -1.649505,5.258576 -1.649505,2.03397 -4.21678,2.03397 -1.451069,0 -2.567275,-0.5705 -1.116207,-0.58291 -2.033977,-1.79834 v 2.00918 H 54.807129 V 83.821085 h 4.440021 z" />
      <path
         id="path45"
         style="font-style:normal;font-variant:normal;font-weight:bold;font-stretch:normal;font-size:25.3999px;font-family:'DejaVu Sans';-inkscape-font-specification:'DejaVu Sans Bold';text-align:center;text-anchor:middle;fill:#262626;fill-opacity:1;stroke-width:0.264583px"
         d="m 86.805046,88.211498 v 11.298491 h 1.711517 q 2.926941,0 4.464826,-1.451069 1.550287,-1.451068 1.550287,-4.21678 0,-2.75331 -1.537885,-4.191976 -1.537884,-1.438666 -4.477228,-1.438666 z M 82.030162,84.60243 h 5.035332 q 4.216781,0 6.275562,0.607713 2.071183,0.59531 3.547056,2.033976 1.302241,1.252632 1.934758,2.889735 0.632517,1.637103 0.632517,3.708286 0,2.095988 -0.632517,3.745493 -0.632517,1.637103 -1.934758,2.889737 -1.488275,1.43866 -3.571861,2.04638 -2.083586,0.59531 -6.250757,0.59531 h -5.035332 z" />
      <path
         id="path47"
         style="font-style:normal;font-variant:normal;font-weight:bold;font-stretch:normal;font-size:25.3999px;font-family:'DejaVu Sans';-inkscape-font-specification:'DejaVu Sans Bold';text-align:center;text-anchor:middle;fill:#262626;fill-opacity:1;stroke-width:0.264583px"
         d="m 116.78139,96.136565 v 1.265034 h -10.38072 q 0.16123,1.562689 1.12861,2.344033 0.96738,0.781348 2.7037,0.781348 1.40146,0 2.86493,-0.40928 1.47587,-0.421677 3.02616,-1.265033 v 3.423033 q -1.57509,0.59531 -3.15018,0.89297 -1.57509,0.31005 -3.15019,0.31005 -3.77029,0 -5.86628,-1.90995 -2.08359,-1.922356 -2.08359,-5.382596 0,-3.398229 2.04638,-5.345389 2.05878,-1.947161 5.65545,-1.947161 3.2742,0 5.23377,1.971965 1.97196,1.971965 1.97196,5.270976 z m -4.56404,-1.475874 q 0,-1.265034 -0.74414,-2.033976 -0.73174,-0.781345 -1.92236,-0.781345 -1.28983,0 -2.09598,0.731736 -0.80615,0.719333 -1.00459,2.083585 z" />
      <path
         id="path49"
         style="font-style:normal;font-variant:normal;font-weight:bold;font-stretch:normal;font-size:25.3999px;font-family:'DejaVu Sans';-inkscape-font-specification:'DejaVu Sans Bold';text-align:center;text-anchor:middle;fill:#262626;fill-opacity:1;stroke-width:0.264583px"
         d="m 118.39369,89.228486 h 4.44003 l 3.46024,9.599377 3.44783,-9.599377 h 4.45243 l -5.46941,13.890574 h -4.87411 z" />
      <path
         id="path51"
         style="font-style:normal;font-variant:normal;font-weight:bold;font-stretch:normal;font-size:25.3999px;font-family:'DejaVu Sans';-inkscape-font-specification:'DejaVu Sans Bold';text-align:center;text-anchor:middle;fill:#262626;fill-opacity:1;stroke-width:0.264583px"
         d="m 150.56525,96.136565 v 1.265034 h -10.38072 q 0.16123,1.562689 1.12861,2.344033 0.96738,0.781348 2.7037,0.781348 1.40146,0 2.86493,-0.40928 1.47587,-0.421677 3.02616,-1.265033 v 3.423033 q -1.57509,0.59531 -3.15018,0.89297 -1.57509,0.31005 -3.15019,0.31005 -3.77029,0 -5.86628,-1.90995 -2.08359,-1.922356 -2.08359,-5.382596 0,-3.398229 2.04638,-5.345389 2.05878,-1.947161 5.65545,-1.947161 3.2742,0 5.23377,1.971965 1.97196,1.971965 1.97196,5.270976 z m -4.56404,-1.475874 q 0,-1.265034 -0.74414,-2.033976 -0.73174,-0.781345 -1.92236,-0.781345 -1.28984,0 -2.09598,0.731736 -0.80615,0.719333 -1.00459,2.083585 z" />
      <path
         id="path53"
         style="font-style:normal;font-variant:normal;font-weight:bold;font-stretch:normal;font-size:25.3999px;font-family:'DejaVu Sans';-inkscape-font-specification:'DejaVu Sans Bold';text-align:center;text-anchor:middle;fill:#262626;fill-opacity:1;stroke-width:0.264583px"
         d="m 153.92628,83.821085 h 4.44002 v 19.297975 h -4.44002 z" />
      <path
         id="path55"
         style="font-style:normal;font-variant:normal;font-weight:bold;font-stretch:normal;font-size:25.3999px;font-family:'DejaVu Sans';-inkscape-font-specification:'DejaVu Sans Bold';text-align:center;text-anchor:middle;fill:#262626;fill-opacity:1;stroke-width:0.264583px"
         d="m 169.24311,92.068612 q -1.47588,0 -2.25722,1.066597 -0.76894,1.054195 -0.76894,3.050965 0,1.996769 0.76894,3.063367 0.78134,1.054199 2.25722,1.054199 1.45106,0 2.22001,-1.054199 0.76894,-1.066598 0.76894,-3.063367 0,-1.99677 -0.76894,-3.050965 -0.76895,-1.066597 -2.22001,-1.066597 z m 0,-3.174988 q 3.58426,0 5.59343,1.934758 2.02157,1.934758 2.02157,5.357792 0,3.423033 -2.02157,5.357796 -2.00917,1.93475 -5.59343,1.93475 -3.59667,0 -5.63065,-1.93475 -2.02157,-1.934763 -2.02157,-5.357796 0,-3.423034 2.02157,-5.357792 2.03398,-1.934758 5.63065,-1.934758 z" />
      <path
         id="path57"
         style="font-style:normal;font-variant:normal;font-weight:bold;font-stretch:normal;font-size:25.3999px;font-family:'DejaVu Sans';-inkscape-font-specification:'DejaVu Sans Bold';text-align:center;text-anchor:middle;fill:#262626;fill-opacity:1;stroke-width:0.264583px"
         d="m 184.52273,101.10988 v 7.29255 h -4.44002 V 89.228486 h 4.44002 v 2.033977 q 0.91777,-1.215425 2.03398,-1.785931 1.1162,-0.582908 2.56727,-0.582908 2.56728,0 4.21678,2.046379 1.64951,2.033976 1.64951,5.246171 0,3.212194 -1.64951,5.258576 -1.6495,2.03397 -4.21678,2.03397 -1.45107,0 -2.56727,-0.5705 -1.11621,-0.58291 -2.03398,-1.79834 z m 2.95175,-8.991659 q -1.42627,0 -2.19521,1.054195 -0.75654,1.041793 -0.75654,3.013758 0,1.971965 0.75654,3.02616 0.76894,1.041796 2.19521,1.041796 1.42626,0 2.1704,-1.041796 0.75654,-1.041793 0.75654,-3.02616 0,-1.984368 -0.75654,-3.02616 -0.74414,-1.041793 -2.1704,-1.041793 z" />
      <path
         id="path59"
         style="font-style:normal;font-variant:normal;font-weight:bold;font-stretch:normal;font-size:25.3999px;font-family:'DejaVu Sans';-inkscape-font-specification:'DejaVu Sans Bold';text-align:center;text-anchor:middle;fill:#262626;fill-opacity:1;stroke-width:0.264583px"
         d="m 211.13805,91.535313 q 0.84336,-1.289839 1.99677,-1.959563 1.16582,-0.682126 2.55488,-0.682126 2.39364,0 3.64627,1.475873 1.25263,1.475873 1.25263,4.291194 v 8.458369 h -4.46482 v -7.242944 q 0.0124,-0.161229 0.0124,-0.334862 0.0124,-0.173632 0.0124,-0.496091 0,-1.475874 -0.43408,-2.133195 -0.43408,-0.669724 -1.40146,-0.669724 -1.26503,0 -1.95956,1.041793 -0.68213,1.041792 -0.70693,3.013757 v 6.821266 h -4.46483 v -7.242944 q 0,-2.306827 -0.39687,-2.964148 -0.39687,-0.669724 -1.41386,-0.669724 -1.27744,0 -1.97197,1.054195 -0.69453,1.041793 -0.69453,2.988953 v 6.833668 h -4.46482 V 89.228486 h 4.46482 v 2.033977 q 0.81856,-1.178218 1.87275,-1.773529 1.0666,-0.59531 2.34403,-0.59531 1.43867,0 2.54248,0.694529 1.1038,0.694528 1.6743,1.94716 z" />
      <path
         id="path61"
         style="font-style:normal;font-variant:normal;font-weight:bold;font-stretch:normal;font-size:25.3999px;font-family:'DejaVu Sans';-inkscape-font-specification:'DejaVu Sans Bold';text-align:center;text-anchor:middle;fill:#262626;fill-opacity:1;stroke-width:0.264583px"
         d="m 238.59675,96.136565 v 1.265034 h -10.38073 q 0.16123,1.562689 1.12861,2.344033 0.96738,0.781348 2.7037,0.781348 1.40146,0 2.86493,-0.40928 1.47588,-0.421677 3.02616,-1.265033 v 3.423033 q -1.57509,0.59531 -3.15018,0.89297 -1.57509,0.31005 -3.15018,0.31005 -3.7703,0 -5.86629,-1.90995 -2.08358,-1.922356 -2.08358,-5.382596 0,-3.398229 2.04638,-5.345389 2.05878,-1.947161 5.65544,-1.947161 3.27421,0 5.23377,1.971965 1.97197,1.971965 1.97197,5.270976 z m -4.56405,-1.475874 q 0,-1.265034 -0.74414,-2.033976 -0.73173,-0.781345 -1.92235,-0.781345 -1.28984,0 -2.09599,0.731736 -0.80615,0.719333 -1.00459,2.083585 z" />
      <path
         id="path63"
         style="font-style:normal;font-variant:normal;font-weight:bold;font-stretch:normal;font-size:25.3999px;font-family:'DejaVu Sans';-inkscape-font-specification:'DejaVu Sans Bold';text-align:center;text-anchor:middle;fill:#262626;fill-opacity:1;stroke-width:0.264583px"
         d="m 255.92274,94.660691 v 8.458369 h -4.46483 v -1.37666 -5.097341 q 0,-1.798333 -0.0868,-2.480459 -0.0744,-0.682127 -0.27285,-1.004586 -0.26045,-0.434081 -0.70693,-0.669724 -0.44649,-0.248046 -1.01699,-0.248046 -1.38906,0 -2.18281,1.079 -0.79374,1.066597 -0.79374,2.964148 v 6.833668 h -4.44002 V 89.228486 h 4.44002 v 2.033977 q 1.00458,-1.215425 2.13319,-1.785931 1.12861,-0.582908 2.49286,-0.582908 2.40605,0 3.64628,1.475873 1.25263,1.475873 1.25263,4.291194 z" />
      <path
         id="path65"
         style="font-style:normal;font-variant:normal;font-weight:bold;font-stretch:normal;font-size:25.3999px;font-family:'DejaVu Sans';-inkscape-font-specification:'DejaVu Sans Bold';text-align:center;text-anchor:middle;fill:#262626;fill-opacity:1;stroke-width:0.264583px"
         d="m 264.8896,85.284556 v 3.94393 h 4.57645 v 3.174988 h -4.57645 v 5.89109 q 0,0.967379 0.38447,1.314643 0.38448,0.334862 1.52549,0.334862 h 2.28202 v 3.174991 h -3.80751 q -2.62928,0 -3.73309,-1.09141 -1.0914,-1.1038 -1.0914,-3.733086 v -5.89109 h -2.20761 v -3.174988 h 2.20761 v -3.94393 z" />
      <path
         id="path67"
         style="font-style:normal;font-variant:normal;font-weight:bold;font-stretch:normal;font-size:25.3999px;font-family:'DejaVu Sans';-inkscape-font-specification:'DejaVu Sans Bold';text-align:center;text-anchor:middle;fill:#262626;fill-opacity:1;stroke-width:0.264583px"
         d="m 83.605256,116.35236 h 17.065554 v 3.60906 h -6.139132 v 14.90756 h -4.774883 v -14.90756 h -6.151539 z" />
      <path
         id="path69"
         style="font-style:normal;font-variant:normal;font-weight:bold;font-stretch:normal;font-size:25.3999px;font-family:'DejaVu Sans';-inkscape-font-specification:'DejaVu Sans Bold';text-align:center;text-anchor:middle;fill:#262626;fill-opacity:1;stroke-width:0.264583px"
         d="m 113.43278,127.88649 v 1.26504 h -10.38072 q 0.16123,1.56268 1.1286,2.34403 0.96738,0.78134 2.7037,0.78134 1.40146,0 2.86493,-0.40927 1.47588,-0.42168 3.02616,-1.26504 v 3.42304 q -1.57509,0.59531 -3.15018,0.89296 -1.57509,0.31006 -3.15018,0.31006 -3.7703,0 -5.86629,-1.90995 -2.083582,-1.92236 -2.083582,-5.3826 0,-3.39823 2.046382,-5.34539 2.05878,-1.94716 5.65544,-1.94716 3.27421,0 5.23377,1.97197 1.97197,1.97196 1.97197,5.27097 z m -4.56405,-1.47587 q 0,-1.26504 -0.74414,-2.03398 -0.73173,-0.78134 -1.92235,-0.78134 -1.28984,0 -2.09599,0.73173 -0.80615,0.71934 -1.00459,2.08359 z" />
      <path
         id="path71"
         style="font-style:normal;font-variant:normal;font-weight:bold;font-stretch:normal;font-size:25.3999px;font-family:'DejaVu Sans';-inkscape-font-specification:'DejaVu Sans Bold';text-align:center;text-anchor:middle;fill:#262626;fill-opacity:1;stroke-width:0.264583px"
         d="m 123.01975,128.61823 q -1.38906,0 -2.09599,0.47128 -0.69453,0.47129 -0.69453,1.38906 0,0.84336 0.55811,1.32705 0.5705,0.47128 1.57509,0.47128 1.25263,0 2.10839,-0.89296 0.85576,-0.90537 0.85576,-2.25722 v -0.50849 z m 6.78406,-1.67431 v 7.92506 h -4.47723 v -2.05878 q -0.89297,1.26504 -2.00917,1.84794 -1.11621,0.57051 -2.71611,0.57051 -2.158,0 -3.50985,-1.25263 -1.33944,-1.26504 -1.33944,-3.27421 0,-2.44325 1.67431,-3.58426 1.68671,-1.14101 5.28337,-1.14101 h 2.61689 v -0.34727 q 0,-1.05419 -0.83096,-1.53788 -0.83095,-0.49609 -2.59208,-0.49609 -1.42626,0 -2.65409,0.28525 -1.22782,0.28525 -2.28202,0.85576 v -3.38583 q 1.42627,-0.34726 2.86493,-0.52089 1.43867,-0.18604 2.87733,-0.18604 3.7579,0 5.41981,1.48828 1.67431,1.47587 1.67431,4.81209 z" />
      <path
         id="path73"
         style="font-style:normal;font-variant:normal;font-weight:bold;font-stretch:normal;font-size:25.3999px;font-family:'DejaVu Sans';-inkscape-font-specification:'DejaVu Sans Bold';text-align:center;text-anchor:middle;fill:#262626;fill-opacity:1;stroke-width:0.264583px"
         d="m 146.80735,123.28524 q 0.84336,-1.28984 1.99677,-1.95956 1.16582,-0.68213 2.55488,-0.68213 2.39364,0 3.64627,1.47587 1.25263,1.47588 1.25263,4.2912 v 8.45836 h -4.46482 v -7.24294 q 0.0124,-0.16123 0.0124,-0.33486 0.0124,-0.17363 0.0124,-0.49609 0,-1.47587 -0.43408,-2.1332 -0.43408,-0.66972 -1.40146,-0.66972 -1.26503,0 -1.95956,1.04179 -0.68213,1.0418 -0.70693,3.01376 v 6.82126 h -4.46483 v -7.24294 q 0,-2.30682 -0.39687,-2.96415 -0.39688,-0.66972 -1.41386,-0.66972 -1.27744,0 -1.97197,1.0542 -0.69453,1.04179 -0.69453,2.98895 v 6.83366 h -4.46482 v -13.89057 h 4.46482 v 2.03398 q 0.81855,-1.17822 1.87275,-1.77353 1.0666,-0.59531 2.34403,-0.59531 1.43867,0 2.54247,0.69453 1.10381,0.69453 1.67431,1.94716 z" />
    </g>
    <g
       id="g7"
       style="display:inline"
       transform="translate(15.614844,-122.29229)">
      <path
         id="path4489"
         style="font-weight:bold;fill:#a9b0b7;fill-opacity:1;stroke-width:1.09908px"
         d="M 50.350001,69.576383 H 69.360568 L 82.652509,125.47466 95.841412,69.576383 h 19.113608 l 13.1889,55.898277 13.29194,-55.898277 h 18.85601 l -18.13474,76.918097 h -22.8745 L 105.32094,88.020239 91.513803,146.49448 H 68.6393 Z"
         inkscape:connector-curvature="0" />
    </g>
    <g
       style="font-style:normal;font-variant:normal;font-weight:normal;font-stretch:normal;font-size:25.4px;line-height:125%;font-family:sans-serif;-inkscape-font-specification:sans-serif;letter-spacing:0px;word-spacing:0px;fill:#000000;fill-opacity:1;stroke:none;stroke-width:0.264583px;stroke-linecap:butt;stroke-linejoin:miter;stroke-opacity:1"
       id="text19" />
    <g
       style="font-style:normal;font-variant:normal;font-weight:normal;font-stretch:normal;font-size:25.4px;line-height:125%;font-family:sans-serif;-inkscape-font-specification:sans-serif;letter-spacing:0px;word-spacing:0px;fill:#000000;fill-opacity:1;stroke:none;stroke-width:0.264583px;stroke-linecap:butt;stroke-linejoin:miter;stroke-opacity:1"
       id="text29" />
    <g
       style="font-style:normal;font-variant:normal;font-weight:normal;font-stretch:normal;font-size:25.4px;line-height:125%;font-family:sans-serif;-inkscape-font-specification:sans-serif;letter-spacing:0px;word-spacing:0px;fill:#000000;fill-opacity:1;stroke:none;stroke-width:0.264583px;stroke-linecap:butt;stroke-linejoin:miter;stroke-opacity:1"
       id="text35" />
    <g
       style="font-style:normal;font-variant:normal;font-weight:bold;font-stretch:normal;font-size:25.3999px;line-height:125%;font-family:sans-serif;-inkscape-font-specification:'sans-serif Bold';letter-spacing:0px;word-spacing:0px;fill:#000000;fill-opacity:1;stroke:none;stroke-width:0.264583px;stroke-linecap:butt;stroke-linejoin:miter;stroke-opacity:1"
       id="text52" />
    <g
       style="font-style:normal;font-variant:normal;font-weight:normal;font-stretch:normal;font-size:96px;line-height:125%;font-family:sans-serif;-inkscape-font-specification:sans-serif;letter-spacing:0px;word-spacing:0px;fill:#000000;fill-opacity:1;stroke:none;stroke-width:1px;stroke-linecap:butt;stroke-linejoin:miter;stroke-opacity:1"
       id="flowRoot66" />
  </g>
</svg>
