<?xml version="1.0" encoding="UTF-8" standalone="no"?>
<svg
   id="svg8"
   version="1.1"
   viewBox="0 0 652.45161 171.43084"
   height="647.92755"
   width="2465.9614"
   xmlns:inkscape="http://www.inkscape.org/namespaces/inkscape"
   xmlns:sodipodi="http://sodipodi.sourceforge.net/DTD/sodipodi-0.dtd"
   xmlns="http://www.w3.org/2000/svg"
   xmlns:svg="http://www.w3.org/2000/svg">
  <g
     transform="translate(-6.3458626,-91.747318)"
     id="layer1"
     inkscape:groupmode="layer"
     inkscape:label="Hexagon"
     style="display:inline">
    <path
       inkscape:transform-center-y="-6.945032e-06"
       inkscape:transform-center-x="1.0148083e-05"
       d="m 154.80875,263.17816 -98.975636,-10e-6 -49.4878152,-85.71542 49.4878242,-85.715412 98.975637,4e-6 49.48782,85.715418 z"
       inkscape:randomized="0"
       inkscape:rounded="0"
       inkscape:flatsided="true"
       sodipodi:arg2="1.5707963"
       sodipodi:arg1="1.0471976"
       sodipodi:r2="85.715424"
       sodipodi:r1="98.975639"
       sodipodi:cy="177.46274"
       sodipodi:cx="105.32094"
       sodipodi:sides="6"
       id="path32"
       style="fill:#ac2b37;fill-opacity:1;stroke-width:0.27816623"
       sodipodi:type="star" />
  </g>
  <g
     inkscape:groupmode="layer"
     id="layer2"
     inkscape:label="Gear"
     style="display:inline"
     transform="translate(-6.3458626,-6.4139222)">
    <g
       id="g848"
       inkscape:label="Gear30"
       transform="translate(105.32094,92.129391)">
      <path
         id="path844"
         style="fill:#262626;fill-opacity:1;stroke:#000000;stroke-width:0.26458332"
         d="m 72.90834,-5.32467 5.30845,1.2255 5.3119,2.41189 v 3.37456 l -5.3119,2.41189 -5.30845,1.2255 -0.48616,4.62552 4.93765,2.3024 4.69437,3.46359 -0.70161,3.30082 -5.69729,1.25478 -5.44724,0.09503 -1.43724,4.42336 4.35105,3.27869 3.87167,4.36391 -1.37256,3.08282 -5.83367,0.04282 -5.34796,-1.03959 -2.3255,4.02788 3.57429,4.11168 2.87975,5.07352 -1.98352,2.73007 -5.71509,-1.171 -5.01495,-2.12878 -3.11213,3.45637 2.64132,4.76496 1.76198,5.56139 -2.50779,2.25802 -5.34674,-2.33365 -4.46277,-3.12493 -3.76273,2.73379 1.59291,5.21 0.5672,5.80619 -2.92246,1.68728 -4.74471,-3.3943 -3.71554,-3.9845 -4.24889,1.89173 0.47488,5.42733 -0.65237,5.79724 -3.2094,1.0428 -3.93531,-4.30661 -2.80592,-4.66994 -4.54937,0.967 -0.6639,5.40747 -1.84343,5.53492 -3.35607,0.35274 -2.95392,-5.0307 -1.77367,-5.15127 h -4.651 l -1.77367,5.15127 -2.95392,5.0307 -3.35607,-0.35274 -1.84343,-5.53492 -0.6639,-5.40747 -4.54937,-0.967 -2.80592,4.66994 -3.93531,4.30661 -3.2094,-1.0428 -0.65237,-5.79724 0.47488,-5.42733 -4.24889,-1.89173 -3.71554,3.9845 -4.74471,3.3943 -2.92246,-1.68728 0.5672,-5.80619 1.59291,-5.21 -3.76273,-2.73379 -4.46277,3.12493 -5.34674,2.33365 -2.50779,-2.25802 1.76198,-5.56139 2.64132,-4.76496 -3.11213,-3.45637 -5.01495,2.12878 -5.71509,1.171 -1.98352,-2.73007 2.87975,-5.07352 3.57429,-4.11168 -2.3255,-4.02788 -5.34796,1.03959 -5.83367,-0.04282 -1.37256,-3.08282 3.87167,-4.36391 4.35105,-3.27869 -1.43724,-4.42336 -5.44724,-0.09503 -5.69729,-1.25478 -0.70161,-3.30082 4.69437,-3.46359 4.93765,-2.3024 -0.48616,-4.62552 -5.30845,-1.2255 -5.3119,-2.41189 v -3.37456 l 5.3119,-2.41189 5.30845,-1.2255 0.48616,-4.62552 -4.93765,-2.3024 -4.69437,-3.46359 0.70161,-3.30082 5.69729,-1.25478 5.44724,-0.09503 1.43724,-4.42336 -4.35105,-3.27869 -3.87167,-4.36391 1.37256,-3.08282 5.83367,-0.04282 5.34796,1.03959 2.3255,-4.02788 -3.57429,-4.11168 -2.87975,-5.07352 1.98352,-2.73007 5.71509,1.171 5.01495,2.12878 3.11213,-3.45637 -2.64132,-4.76496 -1.76198,-5.56139 2.50779,-2.25802 5.34674,2.33365 4.46277,3.12493 3.76273,-2.73379 -1.59291,-5.21 -0.5672,-5.80619 2.92246,-1.68728 4.74471,3.3943 3.71554,3.9845 4.24889,-1.89173 -0.47488,-5.42733 0.65237,-5.79724 3.2094,-1.0428 3.93531,4.30661 2.80592,4.66994 4.54937,-0.967 0.6639,-5.40747 1.84343,-5.53492 3.35607,-0.35274 2.95392,5.0307 1.77367,5.15127 h 4.651 l 1.77367,-5.15127 2.95392,-5.0307 3.35607,0.35274 1.84343,5.53492 0.6639,5.40747 4.54937,0.967 2.80592,-4.66994 3.93531,-4.30661 3.2094,1.0428 0.65237,5.79724 -0.47488,5.42733 4.24889,1.89173 3.71554,-3.9845 4.74471,-3.3943 2.92246,1.68728 -0.5672,5.80619 -1.59291,5.21 3.76273,2.73379 4.46277,-3.12493 5.34674,-2.33365 2.50779,2.25802 -1.76198,5.56139 -2.64132,4.76496 3.11213,3.45637 5.01495,-2.12878 5.71509,-1.171 1.98352,2.73007 -2.87975,5.07352 -3.57429,4.11168 2.3255,4.02788 5.34796,-1.03959 5.83367,0.04282 1.37256,3.08282 -3.87167,4.36391 -4.35105,3.27869 1.43724,4.42336 5.44724,0.09503 5.69729,1.25478 0.70161,3.30082 -4.69437,3.46359 -4.93765,2.3024 z"
         inkscape:connector-curvature="0" />
    </g>
  </g>
  <g
     inkscape:groupmode="layer"
     id="layer3"
     inkscape:label="Text"
     transform="translate(-5.6377284e-4,13.260212)"
     style="display:inline">
    <g
       transform="translate(-6.3452965,-32.934384)"
       style="display:inline"
       id="g7">
      <path
         inkscape:connector-curvature="0"
         d="M 50.350001,69.576383 H 69.360568 L 82.652509,125.47466 95.841412,69.576383 h 19.113608 l 13.1889,55.898277 13.29194,-55.898277 h 18.85601 l -18.13474,76.918097 h -22.8745 L 105.32094,88.020239 91.513803,146.49448 H 68.6393 Z"
         style="font-weight:bold;fill:#a9b0b7;fill-opacity:1;stroke-width:1.0990752px"
         id="path4489" />
    </g>
    <g
       aria-label="WPILib Software Development"
       style="font-style:normal;font-variant:normal;font-weight:normal;font-stretch:normal;font-size:25.40000153px;line-height:125%;font-family:sans-serif;-inkscape-font-specification:sans-serif;letter-spacing:0px;word-spacing:0px;fill:#000000;fill-opacity:1;stroke:none;stroke-width:0.26458335px;stroke-linecap:butt;stroke-linejoin:miter;stroke-opacity:1"
       id="text3692"
       transform="matrix(2.8559643,0,0,2.8559643,-420.30366,58.191905)">
      <text
         xml:space="preserve"
         style="font-style:normal;font-variant:normal;font-weight:normal;font-stretch:normal;font-size:8.89367px;line-height:125%;font-family:sans-serif;-inkscape-font-specification:sans-serif;letter-spacing:0px;word-spacing:0px;fill:#000000;fill-opacity:1;stroke:none;stroke-width:0.0926424px;stroke-linecap:butt;stroke-linejoin:miter;stroke-opacity:1"
         x="215.29842"
         y="-23.878031"
         id="text45"><tspan
           sodipodi:role="line"
           id="tspan43"
           x="215.29842"
           y="-23.878031"
           style="stroke-width:0.0926424px" /></text>
      <g
         id="text49"
         style="font-size:8.89367px;line-height:125%;fill:#262626;stroke-width:0.0926424px"
         aria-label="WPILib&#10;Developer">
        <path
           style="font-weight:bold;font-size:26.681px;line-height:125%;font-family:'DejaVu Sans';-inkscape-font-specification:'DejaVu Sans Bold'"
           d="m 222.89422,-23.771244 h 4.80727 l 3.36118,14.1352022 3.33512,-14.1352022 h 4.83333 l 3.33513,14.1352022 3.36118,-14.1352022 h 4.76819 l -4.5858,19.4505591 h -5.78436 l -3.53054,-14.7865931 -3.49146,14.7865931 h -5.78436 z m 31.08441,0 h 8.32479 q 3.71293,0 5.69316,1.654536 1.99326,1.641507 1.99326,4.69002 0,3.061542 -1.99326,4.716077 -1.98023,1.641507 -5.69316,1.641507 h -3.30907 v 6.7484191 h -5.01572 z m 5.01572,3.634767 v 5.432607 h 2.77493 q 1.45911,0 2.25381,-0.703503 0.7947,-0.716531 0.7947,-2.019315 0,-1.302783 -0.7947,-2.006286 -0.7947,-0.703503 -2.25381,-0.703503 z m 14.53906,-3.634767 h 5.01572 v 19.4505591 h -5.01572 z m 9.92721,0 h 5.01572 v 15.6594589 h 8.80682 v 3.7911002 h -13.82254 z m 16.79289,4.859383 h 4.66396 v 14.5911761 h -4.66396 z m 0,-5.680136 h 4.66396 v 3.804128 h -4.66396 z m 16.91012,17.2618821 q 1.49821,0 2.27988,-1.0943382 0.79469,-1.0943382 0.79469,-3.1787919 0,-2.084454 -0.79469,-3.178792 -0.78167,-1.094338 -2.27988,-1.094338 -1.4982,0 -2.30592,1.107366 -0.7947,1.094338 -0.7947,3.165764 0,2.0714258 0.7947,3.1787919 0.80772,1.0943382 2.30592,1.0943382 z m -3.10062,-9.4451811 q 0.96406,-1.276728 2.13656,-1.876008 1.17251,-0.612308 2.69677,-0.612308 2.69676,0 4.42946,2.149592 1.7327,2.136566 1.7327,5.510775 0,3.3742094 -1.7327,5.5238023 -1.7327,2.136565 -4.42946,2.136565 -1.52426,0 -2.69677,-0.5992804 -1.1725,-0.6123083 -2.13656,-1.8890362 v 2.1105094 h -4.66397 V -24.591997 h 4.66397 z"
           id="path1" />
        <path
           style="font-weight:bold;font-size:26.681px;line-height:125%;font-family:'DejaVu Sans';-inkscape-font-specification:'DejaVu Sans Bold'"
           d="m 229.56447,13.371113 v 11.868358 h 1.79784 q 3.07457,0 4.69002,-1.524257 1.62848,-1.524257 1.62848,-4.429464 0,-2.892179 -1.61545,-4.403408 -1.61545,-1.511229 -4.70305,-1.511229 z m -5.01572,-3.7911005 h 5.2893 q 4.42947,0 6.59209,0.6383635 2.17565,0.625337 3.72596,2.136566 1.36792,1.315811 2.03234,3.035485 0.66442,1.719675 0.66442,3.895323 0,2.201704 -0.66442,3.934406 -0.66442,1.719675 -2.03234,3.035486 -1.56334,1.511229 -3.75202,2.149593 -2.18868,0.625336 -6.56603,0.625336 h -5.2893 z m 36.504,12.1158875 v 1.328839 h -10.9043 q 0.16936,1.641507 1.18553,2.462261 1.01617,0.820753 2.84007,0.820753 1.47214,0 3.00943,-0.429918 1.55031,-0.442946 3.17879,-1.328839 v 3.595682 q -1.65453,0.625336 -3.30907,0.938004 -1.65454,0.325696 -3.30907,0.325696 -3.96046,0 -6.16217,-2.006286 -2.18867,-2.019315 -2.18867,-5.654081 0,-3.569627 2.14959,-5.614997 2.16262,-2.04537 5.94069,-2.04537 3.43935,0 5.49775,2.071426 2.07143,2.071425 2.07143,5.53683 z m -4.79425,-1.550313 q 0,-1.328839 -0.78167,-2.136565 -0.76864,-0.820753 -2.01931,-0.820753 -1.3549,0 -2.20171,0.768642 -0.84681,0.755614 -1.05525,2.188676 z m 6.48786,-5.706192 h 4.66397 l 3.63476,10.083545 3.62174,-10.083545 h 4.67699 l -5.74527,14.591176 h -5.11994 z m 33.79421,7.256505 v 1.328839 h -10.9043 q 0.16936,1.641507 1.18553,2.462261 1.01617,0.820753 2.84007,0.820753 1.47215,0 3.00943,-0.429918 1.55031,-0.442946 3.17879,-1.328839 v 3.595682 q -1.65453,0.625336 -3.30907,0.938004 -1.65453,0.325696 -3.30907,0.325696 -3.96046,0 -6.16216,-2.006286 -2.18868,-2.019315 -2.18868,-5.654081 0,-3.569627 2.14959,-5.614997 2.16262,-2.04537 5.9407,-2.04537 3.43935,0 5.49774,2.071426 2.07143,2.071425 2.07143,5.53683 z m -4.79424,-1.550313 q 0,-1.328839 -0.78167,-2.136565 -0.76865,-0.820753 -2.01932,-0.820753 -1.35489,0 -2.2017,0.768642 -0.84681,0.755614 -1.05526,2.188676 z m 8.32478,-11.3863281 h 4.66397 V 29.030571 h -4.66397 z m 16.08937,8.6635111 q -1.55031,0 -2.37106,1.120393 -0.80773,1.107366 -0.80773,3.204848 0,2.097482 0.80773,3.217875 0.82075,1.107366 2.37106,1.107366 1.52426,0 2.33199,-1.107366 0.80772,-1.120393 0.80772,-3.217875 0,-2.097482 -0.80772,-3.204848 -0.80773,-1.120393 -2.33199,-1.120393 z m 0,-3.335126 q 3.76505,0 5.87556,2.032342 2.12354,2.032342 2.12354,5.628025 0,3.595683 -2.12354,5.628025 -2.11051,2.032342 -5.87556,2.032342 -3.77807,0 -5.91463,-2.032342 -2.12354,-2.032342 -2.12354,-5.628025 0,-3.595683 2.12354,-5.628025 2.13656,-2.032342 5.91463,-2.032342 z m 16.0503,12.832418 v 7.660367 h -4.66396 V 14.439395 h 4.66396 v 2.136565 q 0.96406,-1.276728 2.13657,-1.876008 1.1725,-0.612308 2.69676,-0.612308 2.69676,0 4.42946,2.149593 1.73271,2.136565 1.73271,5.510774 0,3.374209 -1.73271,5.523802 -1.7327,2.136565 -4.42946,2.136565 -1.52426,0 -2.69676,-0.59928 -1.17251,-0.612308 -2.13657,-1.889036 z m 3.10063,-9.445181 q -1.4982,0 -2.30593,1.107366 -0.7947,1.094338 -0.7947,3.165764 0,2.071426 0.7947,3.178792 0.80773,1.094338 2.30593,1.094338 1.4982,0 2.27987,-1.094338 0.7947,-1.094338 0.7947,-3.178792 0,-2.084454 -0.7947,-3.178792 -0.78167,-1.094338 -2.27987,-1.094338 z m 25.89933,4.221019 v 1.328839 h -10.9043 q 0.16936,1.641507 1.18553,2.462261 1.01617,0.820753 2.84007,0.820753 1.47215,0 3.00943,-0.429918 1.55031,-0.442946 3.17879,-1.328839 v 3.595682 q -1.65453,0.625336 -3.30907,0.938004 -1.65453,0.325696 -3.30907,0.325696 -3.96046,0 -6.16216,-2.006286 -2.18868,-2.019315 -2.18868,-5.654081 0,-3.569627 2.14959,-5.614997 2.16262,-2.04537 5.9407,-2.04537 3.43935,0 5.49774,2.071426 2.07143,2.071425 2.07143,5.53683 z m -4.79424,-1.550313 q 0,-1.328839 -0.78167,-2.136565 -0.76865,-0.820753 -2.01932,-0.820753 -1.35489,0 -2.2017,0.768642 -0.84681,0.755614 -1.05526,2.188676 z m 19.16395,-1.732702 q -0.61231,-0.286612 -1.22462,-0.416891 -0.59928,-0.143306 -1.21158,-0.143306 -1.79785,0 -2.77493,1.159478 -0.96406,1.146449 -0.96406,3.296042 v 6.722363 h -4.66397 V 14.439395 h 4.66397 v 2.397122 q 0.89892,-1.433062 2.05839,-2.084454 1.17251,-0.664419 2.80099,-0.664419 0.2345,0 0.50808,0.02606 0.27359,0.01303 0.7947,0.07817 z"
           id="path2" />
      </g>
    </g>
  </g>
</svg>
