<?xml version="1.0" encoding="UTF-8" standalone="no"?>
<svg
   xmlns:dc="http://purl.org/dc/elements/1.1/"
   xmlns:cc="http://creativecommons.org/ns#"
   xmlns:rdf="http://www.w3.org/1999/02/22-rdf-syntax-ns#"
   xmlns:svg="http://www.w3.org/2000/svg"
   xmlns="http://www.w3.org/2000/svg"
   xmlns:sodipodi="http://sodipodi.sourceforge.net/DTD/sodipodi-0.dtd"
   xmlns:inkscape="http://www.inkscape.org/namespaces/inkscape"
   id="svg8"
   version="1.1"
   viewBox="0 0 239.27168 296.87156"
   height="1122.0382"
   width="904.33594">
  <g
     transform="translate(-7.9122613,-2.3895986)"
     id="layer1"
     inkscape:groupmode="layer"
     inkscape:label="Hexagon"
     style="display:inline">
    <path
       inkscape:transform-center-y="-6.945032e-06"
       inkscape:transform-center-x="1.0148083e-05"
       d="m 176.7689,173.82025 -98.975642,-10e-6 -49.487815,-85.715417 49.487824,-85.7154156 98.975643,4.9e-6 49.48781,85.7154207 z"
       inkscape:randomized="0"
       inkscape:rounded="0"
       inkscape:flatsided="true"
       sodipodi:arg2="1.5707963"
       sodipodi:arg1="1.0471976"
       sodipodi:r2="85.715424"
       sodipodi:r1="98.975639"
       sodipodi:cy="88.104828"
       sodipodi:cx="127.28108"
       sodipodi:sides="6"
       id="path32"
       style="fill:#ac2b37;fill-opacity:1;stroke-width:0.27816623"
       sodipodi:type="star" />
  </g>
  <g
     inkscape:groupmode="layer"
     id="layer2"
     inkscape:label="Gear"
     style="display:inline"
     transform="translate(-7.9122613,82.94368)">
    <g
       id="g848"
       inkscape:label="Gear30"
       transform="translate(127.28108,2.7714802)">
      <path
         id="path844"
         style="fill:#262626;fill-opacity:1;stroke:#000000;stroke-width:0.26458332"
         d="m 72.90834,-5.32467 5.30845,1.2255 5.3119,2.41189 v 3.37456 l -5.3119,2.41189 -5.30845,1.2255 -0.48616,4.62552 4.93765,2.3024 4.69437,3.46359 -0.70161,3.30082 -5.69729,1.25478 -5.44724,0.09503 -1.43724,4.42336 4.35105,3.27869 3.87167,4.36391 -1.37256,3.08282 -5.83367,0.04282 -5.34796,-1.03959 -2.3255,4.02788 3.57429,4.11168 2.87975,5.07352 -1.98352,2.73007 -5.71509,-1.171 -5.01495,-2.12878 -3.11213,3.45637 2.64132,4.76496 1.76198,5.56139 -2.50779,2.25802 -5.34674,-2.33365 -4.46277,-3.12493 -3.76273,2.73379 1.59291,5.21 0.5672,5.80619 -2.92246,1.68728 -4.74471,-3.3943 -3.71554,-3.9845 -4.24889,1.89173 0.47488,5.42733 -0.65237,5.79724 -3.2094,1.0428 -3.93531,-4.30661 -2.80592,-4.66994 -4.54937,0.967 -0.6639,5.40747 -1.84343,5.53492 -3.35607,0.35274 -2.95392,-5.0307 -1.77367,-5.15127 h -4.651 l -1.77367,5.15127 -2.95392,5.0307 -3.35607,-0.35274 -1.84343,-5.53492 -0.6639,-5.40747 -4.54937,-0.967 -2.80592,4.66994 -3.93531,4.30661 -3.2094,-1.0428 -0.65237,-5.79724 0.47488,-5.42733 -4.24889,-1.89173 -3.71554,3.9845 -4.74471,3.3943 -2.92246,-1.68728 0.5672,-5.80619 1.59291,-5.21 -3.76273,-2.73379 -4.46277,3.12493 -5.34674,2.33365 -2.50779,-2.25802 1.76198,-5.56139 2.64132,-4.76496 -3.11213,-3.45637 -5.01495,2.12878 -5.71509,1.171 -1.98352,-2.73007 2.87975,-5.07352 3.57429,-4.11168 -2.3255,-4.02788 -5.34796,1.03959 -5.83367,-0.04282 -1.37256,-3.08282 3.87167,-4.36391 4.35105,-3.27869 -1.43724,-4.42336 -5.44724,-0.09503 -5.69729,-1.25478 -0.70161,-3.30082 4.69437,-3.46359 4.93765,-2.3024 -0.48616,-4.62552 -5.30845,-1.2255 -5.3119,-2.41189 v -3.37456 l 5.3119,-2.41189 5.30845,-1.2255 0.48616,-4.62552 -4.93765,-2.3024 -4.69437,-3.46359 0.70161,-3.30082 5.69729,-1.25478 5.44724,-0.09503 1.43724,-4.42336 -4.35105,-3.27869 -3.87167,-4.36391 1.37256,-3.08282 5.83367,-0.04282 5.34796,1.03959 2.3255,-4.02788 -3.57429,-4.11168 -2.87975,-5.07352 1.98352,-2.73007 5.71509,1.171 5.01495,2.12878 3.11213,-3.45637 -2.64132,-4.76496 -1.76198,-5.56139 2.50779,-2.25802 5.34674,2.33365 4.46277,3.12493 3.76273,-2.73379 -1.59291,-5.21 -0.5672,-5.80619 2.92246,-1.68728 4.74471,3.3943 3.71554,3.9845 4.24889,-1.89173 -0.47488,-5.42733 0.65237,-5.79724 3.2094,-1.0428 3.93531,4.30661 2.80592,4.66994 4.54937,-0.967 0.6639,-5.40747 1.84343,-5.53492 3.35607,-0.35274 2.95392,5.0307 1.77367,5.15127 h 4.651 l 1.77367,-5.15127 2.95392,-5.0307 3.35607,0.35274 1.84343,5.53492 0.6639,5.40747 4.54937,0.967 2.80592,-4.66994 3.93531,-4.30661 3.2094,1.0428 0.65237,5.79724 -0.47488,5.42733 4.24889,1.89173 3.71554,-3.9845 4.74471,-3.3943 2.92246,1.68728 -0.5672,5.80619 -1.59291,5.21 3.76273,2.73379 4.46277,-3.12493 5.34674,-2.33365 2.50779,2.25802 -1.76198,5.56139 -2.64132,4.76496 3.11213,3.45637 5.01495,-2.12878 5.71509,-1.171 1.98352,2.73007 -2.87975,5.07352 -3.57429,4.11168 2.3255,4.02788 5.34796,-1.03959 5.83367,0.04282 1.37256,3.08282 -3.87167,4.36391 -4.35105,3.27869 1.43724,4.42336 5.44724,0.09503 5.69729,1.25478 0.70161,3.30082 -4.69437,3.46359 -4.93765,2.3024 z"
         inkscape:connector-curvature="0" />
    </g>
  </g>
  <g
     inkscape:groupmode="layer"
     id="layer3"
     inkscape:label="Text"
     transform="translate(-1.5669633,102.61871)"
     style="display:inline">
    <text
       xml:space="preserve"
       style="font-style:normal;font-variant:normal;font-weight:normal;font-stretch:normal;font-size:25.3999424px;line-height:125%;font-family:sans-serif;-inkscape-font-specification:sans-serif;letter-spacing:0px;word-spacing:0px;fill:#000000;fill-opacity:1;stroke:none;stroke-width:0.26458272px;stroke-linecap:butt;stroke-linejoin:miter;stroke-opacity:1"
       x="121.7144"
       y="140.63873"
       id="text4529"><tspan
         sodipodi:role="line"
         x="121.31753"
         y="140.63873"
         style="font-style:normal;font-variant:normal;font-weight:bold;font-stretch:normal;font-size:63.49985886px;line-height:100%;font-family:'DejaVu Sans';-inkscape-font-specification:'DejaVu Sans Bold';text-align:center;letter-spacing:-0.79374826px;text-anchor:middle;fill:#262626;fill-opacity:1;stroke-width:0.26458272px"
         id="tspan4506">WPILib</tspan></text>
    <g
       transform="translate(15.614844,-122.29229)"
       style="display:inline"
       id="g7">
      <path
         inkscape:connector-curvature="0"
         d="M 50.350001,69.576383 H 69.360568 L 82.652509,125.47466 95.841412,69.576383 h 19.113608 l 13.1889,55.898277 13.29194,-55.898277 h 18.85601 l -18.13474,76.918097 h -22.8745 L 105.32094,88.020239 91.513803,146.49448 H 68.6393 Z"
         style="font-weight:bold;fill:#a9b0b7;fill-opacity:1;stroke-width:1.0990752px"
         id="path4489" />
    </g>
    <text
       xml:space="preserve"
       style="font-style:normal;font-variant:normal;font-weight:normal;font-stretch:normal;font-size:25.40000153px;line-height:125%;font-family:sans-serif;-inkscape-font-specification:sans-serif;letter-spacing:0px;word-spacing:0px;fill:#000000;fill-opacity:1;stroke:none;stroke-width:0.26458335px;stroke-linecap:butt;stroke-linejoin:miter;stroke-opacity:1"
       x="13.001038"
       y="83.777885"
       id="text19"><tspan
         sodipodi:role="line"
         x="13.001038"
         y="106.25093"
         style="font-weight:bold;stroke-width:0.26458335px"
         id="tspan21" /></text>
    <text
       xml:space="preserve"
       style="font-style:normal;font-variant:normal;font-weight:normal;font-stretch:normal;font-size:25.40000153px;line-height:125%;font-family:sans-serif;-inkscape-font-specification:sans-serif;letter-spacing:0px;word-spacing:0px;fill:#000000;fill-opacity:1;stroke:none;stroke-width:0.26458335px;stroke-linecap:butt;stroke-linejoin:miter;stroke-opacity:1"
       x="59.884418"
       y="89.9207"
       id="text29"><tspan
         sodipodi:role="line"
         id="tspan27"
         x="59.884418"
         y="112.39375"
         style="stroke-width:0.26458335px" /></text>
    <text
       xml:space="preserve"
       style="font-style:normal;font-variant:normal;font-weight:normal;font-stretch:normal;font-size:25.40000153px;line-height:125%;font-family:sans-serif;-inkscape-font-specification:sans-serif;letter-spacing:0px;word-spacing:0px;fill:#000000;fill-opacity:1;stroke:none;stroke-width:0.26458335px;stroke-linecap:butt;stroke-linejoin:miter;stroke-opacity:1"
       x="24.951841"
       y="71.622688"
       id="text35"><tspan
         sodipodi:role="line"
         id="tspan33"
         x="24.951841"
         y="94.095734"
         style="stroke-width:0.26458335px" /></text>
    <text
       xml:space="preserve"
       style="font-style:normal;font-variant:normal;font-weight:bold;font-stretch:normal;font-size:25.3999424px;line-height:125%;font-family:sans-serif;-inkscape-font-specification:'sans-serif Bold';letter-spacing:0px;word-spacing:0px;fill:#000000;fill-opacity:1;stroke:none;stroke-width:0.26458272px;stroke-linecap:butt;stroke-linejoin:miter;stroke-opacity:1"
       x="3.4738271"
       y="84.370041"
       id="text52"><tspan
         sodipodi:role="line"
         id="tspan49"
         x="3.4738271"
         y="106.84304"
         style="font-style:normal;font-variant:normal;font-weight:bold;font-stretch:normal;font-family:sans-serif;-inkscape-font-specification:'sans-serif Bold';stroke-width:0.26458272px" /></text>
    <flowRoot
       xml:space="preserve"
       id="flowRoot66"
       style="font-style:normal;font-variant:normal;font-weight:normal;font-stretch:normal;font-size:96px;line-height:125%;font-family:sans-serif;-inkscape-font-specification:sans-serif;letter-spacing:0px;word-spacing:0px;fill:#000000;fill-opacity:1;stroke:none;stroke-width:1px;stroke-linecap:butt;stroke-linejoin:miter;stroke-opacity:1"><flowRegion
         id="flowRegion68"><rect
           id="rect70"
           width="225.2869"
           height="291.31927"
           x="-421.44186"
           y="631.19177" /></flowRegion><flowPara
         id="flowPara72" /></flowRoot>    <text
       xml:space="preserve"
       style="font-style:normal;font-variant:normal;font-weight:normal;font-stretch:normal;font-size:25.3999424px;line-height:125%;font-family:sans-serif;-inkscape-font-specification:sans-serif;letter-spacing:0px;word-spacing:0px;fill:#000000;fill-opacity:1;stroke:none;stroke-width:0.26458272px;stroke-linecap:butt;stroke-linejoin:miter;stroke-opacity:1"
       x="8.3889551"
       y="206.60857"
       id="text4514"><tspan
         sodipodi:role="line"
         id="tspan4512"
         x="8.3889551"
         y="229.08156"
         style="stroke-width:0.26458272px"></tspan></text>
    <text
       xml:space="preserve"
       style="font-style:normal;font-variant:normal;font-weight:normal;font-stretch:normal;font-size:25.3999424px;line-height:125%;font-family:sans-serif;-inkscape-font-specification:sans-serif;letter-spacing:0px;word-spacing:0px;fill:#000000;fill-opacity:1;stroke:none;stroke-width:0.26458272px;stroke-linecap:butt;stroke-linejoin:miter;stroke-opacity:1"
       x="-0.41430011"
       y="185.44739"
       id="text4518"><tspan
         sodipodi:role="line"
         id="tspan4516"
         x="-0.41430011"
         y="185.44739"
         style="font-weight:bold;font-size:42.33323669px;letter-spacing:-0.52916551px;fill:#262626;fill-opacity:1;stroke-width:0.26458272px">Developer</tspan></text>
  </g>
</svg>
