<?xml version="1.0" encoding="UTF-8" standalone="no"?>
<svg
   xmlns:dc="http://purl.org/dc/elements/1.1/"
   xmlns:cc="http://creativecommons.org/ns#"
   xmlns:rdf="http://www.w3.org/1999/02/22-rdf-syntax-ns#"
   xmlns:svg="http://www.w3.org/2000/svg"
   xmlns="http://www.w3.org/2000/svg"
   xmlns:sodipodi="http://sodipodi.sourceforge.net/DTD/sodipodi-0.dtd"
   xmlns:inkscape="http://www.inkscape.org/namespaces/inkscape"
   id="svg8"
   version="1.1"
   viewBox="0 0 235.45796 242.53862"
   height="916.68463"
   width="889.92188">
  <g
     transform="translate(-9.8191259,-2.3895556)"
     id="layer1"
     inkscape:groupmode="layer"
     inkscape:label="Hexagon"
     style="display:inline">
    <path
       inkscape:transform-center-y="-6.945032e-06"
       inkscape:transform-center-x="1.0148083e-05"
       d="m 176.7689,173.82025 -98.975642,-10e-6 -49.487815,-85.715417 49.487824,-85.7154156 98.975643,4.9e-6 49.48781,85.7154207 z"
       inkscape:randomized="0"
       inkscape:rounded="0"
       inkscape:flatsided="true"
       sodipodi:arg2="1.5707963"
       sodipodi:arg1="1.0471976"
       sodipodi:r2="85.715424"
       sodipodi:r1="98.975639"
       sodipodi:cy="88.104828"
       sodipodi:cx="127.28108"
       sodipodi:sides="6"
       id="path32"
       style="fill:#ac2b37;fill-opacity:1;stroke-width:0.27816623"
       sodipodi:type="star" />
  </g>
  <g
     inkscape:groupmode="layer"
     id="layer2"
     inkscape:label="Gear"
     style="display:inline"
     transform="translate(-9.8191259,82.943722)">
    <g
       id="g848"
       inkscape:label="Gear30"
       transform="translate(127.28108,2.7714802)">
      <path
         id="path844"
         style="fill:#262626;fill-opacity:1;stroke:#000000;stroke-width:0.26458332"
         d="m 72.90834,-5.32467 5.30845,1.2255 5.3119,2.41189 v 3.37456 l -5.3119,2.41189 -5.30845,1.2255 -0.48616,4.62552 4.93765,2.3024 4.69437,3.46359 -0.70161,3.30082 -5.69729,1.25478 -5.44724,0.09503 -1.43724,4.42336 4.35105,3.27869 3.87167,4.36391 -1.37256,3.08282 -5.83367,0.04282 -5.34796,-1.03959 -2.3255,4.02788 3.57429,4.11168 2.87975,5.07352 -1.98352,2.73007 -5.71509,-1.171 -5.01495,-2.12878 -3.11213,3.45637 2.64132,4.76496 1.76198,5.56139 -2.50779,2.25802 -5.34674,-2.33365 -4.46277,-3.12493 -3.76273,2.73379 1.59291,5.21 0.5672,5.80619 -2.92246,1.68728 -4.74471,-3.3943 -3.71554,-3.9845 -4.24889,1.89173 0.47488,5.42733 -0.65237,5.79724 -3.2094,1.0428 -3.93531,-4.30661 -2.80592,-4.66994 -4.54937,0.967 -0.6639,5.40747 -1.84343,5.53492 -3.35607,0.35274 -2.95392,-5.0307 -1.77367,-5.15127 h -4.651 l -1.77367,5.15127 -2.95392,5.0307 -3.35607,-0.35274 -1.84343,-5.53492 -0.6639,-5.40747 -4.54937,-0.967 -2.80592,4.66994 -3.93531,4.30661 -3.2094,-1.0428 -0.65237,-5.79724 0.47488,-5.42733 -4.24889,-1.89173 -3.71554,3.9845 -4.74471,3.3943 -2.92246,-1.68728 0.5672,-5.80619 1.59291,-5.21 -3.76273,-2.73379 -4.46277,3.12493 -5.34674,2.33365 -2.50779,-2.25802 1.76198,-5.56139 2.64132,-4.76496 -3.11213,-3.45637 -5.01495,2.12878 -5.71509,1.171 -1.98352,-2.73007 2.87975,-5.07352 3.57429,-4.11168 -2.3255,-4.02788 -5.34796,1.03959 -5.83367,-0.04282 -1.37256,-3.08282 3.87167,-4.36391 4.35105,-3.27869 -1.43724,-4.42336 -5.44724,-0.09503 -5.69729,-1.25478 -0.70161,-3.30082 4.69437,-3.46359 4.93765,-2.3024 -0.48616,-4.62552 -5.30845,-1.2255 -5.3119,-2.41189 v -3.37456 l 5.3119,-2.41189 5.30845,-1.2255 0.48616,-4.62552 -4.93765,-2.3024 -4.69437,-3.46359 0.70161,-3.30082 5.69729,-1.25478 5.44724,-0.09503 1.43724,-4.42336 -4.35105,-3.27869 -3.87167,-4.36391 1.37256,-3.08282 5.83367,-0.04282 5.34796,1.03959 2.3255,-4.02788 -3.57429,-4.11168 -2.87975,-5.07352 1.98352,-2.73007 5.71509,1.171 5.01495,2.12878 3.11213,-3.45637 -2.64132,-4.76496 -1.76198,-5.56139 2.50779,-2.25802 5.34674,2.33365 4.46277,3.12493 3.76273,-2.73379 -1.59291,-5.21 -0.5672,-5.80619 2.92246,-1.68728 4.74471,3.3943 3.71554,3.9845 4.24889,-1.89173 -0.47488,-5.42733 0.65237,-5.79724 3.2094,-1.0428 3.93531,4.30661 2.80592,4.66994 4.54937,-0.967 0.6639,-5.40747 1.84343,-5.53492 3.35607,-0.35274 2.95392,5.0307 1.77367,5.15127 h 4.651 l 1.77367,-5.15127 2.95392,-5.0307 3.35607,0.35274 1.84343,5.53492 0.6639,5.40747 4.54937,0.967 2.80592,-4.66994 3.93531,-4.30661 3.2094,1.0428 0.65237,5.79724 -0.47488,5.42733 4.24889,1.89173 3.71554,-3.9845 4.74471,-3.3943 2.92246,1.68728 -0.5672,5.80619 -1.59291,5.21 3.76273,2.73379 4.46277,-3.12493 5.34674,-2.33365 2.50779,2.25802 -1.76198,5.56139 -2.64132,4.76496 3.11213,3.45637 5.01495,-2.12878 5.71509,-1.171 1.98352,2.73007 -2.87975,5.07352 -3.57429,4.11168 2.3255,4.02788 5.34796,-1.03959 5.83367,0.04282 1.37256,3.08282 -3.87167,4.36391 -4.35105,3.27869 1.43724,4.42336 5.44724,0.09503 5.69729,1.25478 0.70161,3.30082 -4.69437,3.46359 -4.93765,2.3024 z"
         inkscape:connector-curvature="0" />
    </g>
  </g>
  <g
     inkscape:groupmode="layer"
     id="layer3"
     inkscape:label="Text"
     transform="translate(-3.4738271,102.61876)"
     style="display:inline">
    <g
       transform="translate(15.614844,-122.29229)"
       style="display:inline"
       id="g7">
      <path
         inkscape:connector-curvature="0"
         d="M 50.350001,69.576383 H 69.360568 L 82.652509,125.47466 95.841412,69.576383 h 19.113608 l 13.1889,55.898277 13.29194,-55.898277 h 18.85601 l -18.13474,76.918097 h -22.8745 L 105.32094,88.020239 91.513803,146.49448 H 68.6393 Z"
         style="font-weight:bold;fill:#a9b0b7;fill-opacity:1;stroke-width:1.0990752px"
         id="path4489" />
    </g>
    <text
       xml:space="preserve"
       style="font-style:normal;font-variant:normal;font-weight:normal;font-stretch:normal;font-size:25.40000153px;line-height:125%;font-family:sans-serif;-inkscape-font-specification:sans-serif;letter-spacing:0px;word-spacing:0px;fill:#000000;fill-opacity:1;stroke:none;stroke-width:0.26458335px;stroke-linecap:butt;stroke-linejoin:miter;stroke-opacity:1"
       x="13.001038"
       y="83.777885"
       id="text19"><tspan
         sodipodi:role="line"
         x="13.001038"
         y="106.25093"
         style="font-weight:bold;stroke-width:0.26458335px"
         id="tspan21" /></text>
    <text
       xml:space="preserve"
       style="font-style:normal;font-variant:normal;font-weight:normal;font-stretch:normal;font-size:25.40000153px;line-height:125%;font-family:sans-serif;-inkscape-font-specification:sans-serif;letter-spacing:0px;word-spacing:0px;fill:#000000;fill-opacity:1;stroke:none;stroke-width:0.26458335px;stroke-linecap:butt;stroke-linejoin:miter;stroke-opacity:1"
       x="59.884418"
       y="89.9207"
       id="text29"><tspan
         sodipodi:role="line"
         id="tspan27"
         x="59.884418"
         y="112.39375"
         style="stroke-width:0.26458335px" /></text>
    <text
       xml:space="preserve"
       style="font-style:normal;font-variant:normal;font-weight:normal;font-stretch:normal;font-size:25.40000153px;line-height:125%;font-family:sans-serif;-inkscape-font-specification:sans-serif;letter-spacing:0px;word-spacing:0px;fill:#000000;fill-opacity:1;stroke:none;stroke-width:0.26458335px;stroke-linecap:butt;stroke-linejoin:miter;stroke-opacity:1"
       x="24.951841"
       y="71.622688"
       id="text35"><tspan
         sodipodi:role="line"
         id="tspan33"
         x="24.951841"
         y="94.095734"
         style="stroke-width:0.26458335px" /></text>
    <g
       aria-label="WPILib Software
Development"
       style="font-style:normal;font-variant:normal;font-weight:normal;font-stretch:normal;font-size:25.3999424px;line-height:125%;font-family:sans-serif;-inkscape-font-specification:sans-serif;letter-spacing:0px;word-spacing:0px;fill:#000000;fill-opacity:1;stroke:none;stroke-width:0.26458272px;stroke-linecap:butt;stroke-linejoin:miter;stroke-opacity:1"
       id="text51">
      <path
         d="m 3.4738271,84.370046 h 4.5764544 l 3.1997975,13.456513 3.174993,-13.456513 h 4.601259 l 3.174993,13.456513 3.199797,-13.456513 h 4.539248 L 25.574754,102.8867 H 20.068125 L 16.707098,88.810075 13.383277,102.8867 H 7.8766491 Z"
         style="font-style:normal;font-variant:normal;font-weight:bold;font-stretch:normal;font-size:25.3999424px;font-family:sans-serif;-inkscape-font-specification:'sans-serif, Bold';font-variant-ligatures:normal;font-variant-caps:normal;font-variant-numeric:normal;font-feature-settings:normal;text-align:center;writing-mode:lr-tb;text-anchor:middle;fill:#a9b0b7;fill-opacity:1;stroke-width:0.26458272px"
         id="path860" />
      <path
         d="m 33.078155,84.370046 h 7.92508 q 3.53466,0 5.419812,1.575094 1.897554,1.562692 1.897554,4.464834 0,2.914544 -1.897554,4.489638 -1.885152,1.562692 -5.419812,1.562692 h -3.150188 v 6.424396 h -4.774892 z m 4.774892,3.460246 v 5.171766 h 2.641693 q 1.389059,0 2.1456,-0.669725 0.756542,-0.682127 0.756542,-1.922359 0,-1.240232 -0.756542,-1.909957 -0.756541,-0.669725 -2.1456,-0.669725 z"
         style="font-style:normal;font-variant:normal;font-weight:bold;font-stretch:normal;font-size:25.3999424px;font-family:sans-serif;-inkscape-font-specification:'sans-serif, Bold';font-variant-ligatures:normal;font-variant-caps:normal;font-variant-numeric:normal;font-feature-settings:normal;text-align:center;writing-mode:lr-tb;text-anchor:middle;fill:#a9b0b7;fill-opacity:1;stroke-width:0.26458272px"
         id="path862" />
      <path
         d="m 51.681627,84.370046 h 4.774891 V 102.8867 h -4.774891 z"
         style="font-style:normal;font-variant:normal;font-weight:bold;font-stretch:normal;font-size:25.3999424px;font-family:sans-serif;-inkscape-font-specification:'sans-serif, Bold';font-variant-ligatures:normal;font-variant-caps:normal;font-variant-numeric:normal;font-feature-settings:normal;text-align:center;writing-mode:lr-tb;text-anchor:middle;fill:#a9b0b7;fill-opacity:1;stroke-width:0.26458272px"
         id="path864" />
      <path
         d="m 61.156999,84.370046 h 4.774892 V 99.27763 h 8.383965 v 3.60907 H 61.156999 Z"
         style="font-style:normal;font-variant:normal;font-weight:bold;font-stretch:normal;font-size:25.3999424px;font-family:sans-serif;-inkscape-font-specification:'sans-serif, Bold';font-variant-ligatures:normal;font-variant-caps:normal;font-variant-numeric:normal;font-feature-settings:normal;text-align:center;writing-mode:lr-tb;text-anchor:middle;fill:#a9b0b7;fill-opacity:1;stroke-width:0.26458272px"
         id="path866" />
      <path
         d="m 77.131177,88.99611 h 4.440029 v 13.89059 h -4.440029 z m 0,-5.40741 h 4.440029 v 3.621477 h -4.440029 z"
         style="font-style:normal;font-variant:normal;font-weight:bold;font-stretch:normal;font-size:25.3999424px;font-family:sans-serif;-inkscape-font-specification:'sans-serif, Bold';font-variant-ligatures:normal;font-variant-caps:normal;font-variant-numeric:normal;font-feature-settings:normal;text-align:center;writing-mode:lr-tb;text-anchor:middle;fill:#a9b0b7;fill-opacity:1;stroke-width:0.26458272px"
         id="path868" />
      <path
         d="m 93.254189,100.02177 q 1.426266,0 2.170405,-1.041796 0.756541,-1.041794 0.756541,-3.026165 0,-1.98437 -0.756541,-3.026165 -0.744139,-1.041794 -2.170405,-1.041794 -1.426266,0 -2.19521,1.054196 -0.756541,1.041795 -0.756541,3.013763 0,1.971968 0.756541,3.026165 0.768944,1.041796 2.19521,1.041796 z m -2.951751,-8.99168 q 0.917771,-1.215427 2.03398,-1.785934 1.116208,-0.582909 2.567279,-0.582909 2.567279,0 4.216787,2.046383 1.649506,2.033979 1.649506,5.246179 0,3.2122 -1.649506,5.258581 -1.649508,2.03398 -4.216787,2.03398 -1.451071,0 -2.567279,-0.57051 -1.116209,-0.5829 -2.03398,-1.79833 v 2.00917 h -4.440029 v -19.298 h 4.440029 z"
         style="font-style:normal;font-variant:normal;font-weight:bold;font-stretch:normal;font-size:25.3999424px;font-family:sans-serif;-inkscape-font-specification:'sans-serif, Bold';font-variant-ligatures:normal;font-variant-caps:normal;font-variant-numeric:normal;font-feature-settings:normal;text-align:center;writing-mode:lr-tb;text-anchor:middle;fill:#a9b0b7;fill-opacity:1;stroke-width:0.26458272px"
         id="path870" />
      <path
         d="m 125.9839,84.952955 v 3.919132 q -1.52548,-0.682128 -2.97656,-1.029392 -1.45107,-0.347265 -2.74091,-0.347265 -1.71152,0 -2.53007,0.471288 -0.81855,0.471288 -0.81855,1.463473 0,0.744139 0.5457,1.165818 0.5581,0.409276 2.00917,0.706932 l 2.03398,0.409276 q 3.08818,0.620116 4.39042,1.885152 1.30225,1.265036 1.30225,3.596672 0,3.063369 -1.82314,4.564049 -1.81074,1.48828 -5.54384,1.48828 -1.76113,0 -3.53466,-0.33486 -1.77353,-0.33486 -3.54706,-0.99219 v -4.03075 q 1.77353,0.942576 3.42304,1.426267 1.66191,0.471288 3.1998,0.471288 1.56269,0 2.39364,-0.520898 0.83096,-0.520897 0.83096,-1.488278 0,-0.868162 -0.57051,-1.33945 -0.5581,-0.471288 -2.24482,-0.843357 l -1.84794,-0.409277 q -2.77812,-0.595311 -4.06796,-1.897554 -1.27744,-1.302243 -1.27744,-3.509855 0,-2.765717 1.78593,-4.253994 1.78594,-1.488278 5.13456,-1.488278 1.52549,0 3.13779,0.235644 1.6123,0.223241 3.33622,0.682127 z"
         style="font-style:normal;font-variant:normal;font-weight:bold;font-stretch:normal;font-size:25.3999424px;font-family:sans-serif;-inkscape-font-specification:'sans-serif, Bold';font-variant-ligatures:normal;font-variant-caps:normal;font-variant-numeric:normal;font-feature-settings:normal;text-align:center;writing-mode:lr-tb;text-anchor:middle;fill:#a9b0b7;fill-opacity:1;stroke-width:0.26458272px"
         id="path872" />
      <path
         d="m 137.81572,91.83624 q -1.47588,0 -2.25723,1.066599 -0.76894,1.054197 -0.76894,3.05097 0,1.996773 0.76894,3.063372 0.78135,1.054199 2.25723,1.054199 1.45107,0 2.22001,-1.054199 0.76894,-1.066599 0.76894,-3.063372 0,-1.996773 -0.76894,-3.05097 -0.76894,-1.066599 -2.22001,-1.066599 z m 0,-3.174993 q 3.58426,0 5.59344,1.934762 2.02158,1.934761 2.02158,5.3578 0,3.423039 -2.02158,5.357801 -2.00918,1.93476 -5.59344,1.93476 -3.59668,0 -5.63066,-1.93476 -2.02157,-1.934762 -2.02157,-5.357801 0,-3.423039 2.02157,-5.3578 2.03398,-1.934762 5.63066,-1.934762 z"
         style="font-style:normal;font-variant:normal;font-weight:bold;font-stretch:normal;font-size:25.3999424px;font-family:sans-serif;-inkscape-font-specification:'sans-serif, Bold';font-variant-ligatures:normal;font-variant-caps:normal;font-variant-numeric:normal;font-feature-settings:normal;text-align:center;writing-mode:lr-tb;text-anchor:middle;fill:#a9b0b7;fill-opacity:1;stroke-width:0.26458272px"
         id="path874" />
      <path
         d="m 157.80825,83.5887 v 2.914545 h -2.45566 q -0.94257,0 -1.31464,0.347264 -0.37207,0.334863 -0.37207,1.17822 v 0.967381 h 3.79511 v 3.174993 h -3.79511 V 102.8867 h -4.44003 V 92.171103 h -2.20761 V 88.99611 h 2.20761 v -0.967381 q 0,-2.269623 1.26504,-3.348625 1.26503,-1.091404 3.91913,-1.091404 z"
         style="font-style:normal;font-variant:normal;font-weight:bold;font-stretch:normal;font-size:25.3999424px;font-family:sans-serif;-inkscape-font-specification:'sans-serif, Bold';font-variant-ligatures:normal;font-variant-caps:normal;font-variant-numeric:normal;font-feature-settings:normal;text-align:center;writing-mode:lr-tb;text-anchor:middle;fill:#a9b0b7;fill-opacity:1;stroke-width:0.26458272px"
         id="path876" />
      <path
         d="m 164.5799,85.052174 v 3.943936 h 4.57646 v 3.174993 h -4.57646 v 5.8911 q 0,0.96738 0.38447,1.314645 0.38447,0.334863 1.52549,0.334863 h 2.28202 v 3.174989 h -3.80751 q -2.62929,0 -3.73309,-1.0914 -1.09141,-1.10381 -1.09141,-3.733097 v -5.8911 h -2.20761 V 88.99611 h 2.20761 v -3.943936 z"
         style="font-style:normal;font-variant:normal;font-weight:bold;font-stretch:normal;font-size:25.3999424px;font-family:sans-serif;-inkscape-font-specification:'sans-serif, Bold';font-variant-ligatures:normal;font-variant-caps:normal;font-variant-numeric:normal;font-feature-settings:normal;text-align:center;writing-mode:lr-tb;text-anchor:middle;fill:#a9b0b7;fill-opacity:1;stroke-width:0.26458272px"
         id="path878" />
      <path
         d="m 170.64465,88.99611 h 4.316 l 2.33164,9.574588 2.34403,-9.574588 h 3.7083 l 2.33163,9.475369 2.34404,-9.475369 h 4.31601 l -3.65869,13.89059 h -4.8493 l -2.34404,-9.54978 -2.33164,9.54978 h -4.8493 z"
         style="font-style:normal;font-variant:normal;font-weight:bold;font-stretch:normal;font-size:25.3999424px;font-family:sans-serif;-inkscape-font-specification:'sans-serif, Bold';font-variant-ligatures:normal;font-variant-caps:normal;font-variant-numeric:normal;font-feature-settings:normal;text-align:center;writing-mode:lr-tb;text-anchor:middle;fill:#a9b0b7;fill-opacity:1;stroke-width:0.26458272px"
         id="path880" />
      <path
         d="m 201.57602,96.635936 q -1.38906,0 -2.09599,0.471288 -0.69453,0.471288 -0.69453,1.38906 0,0.843357 0.5581,1.327048 0.57051,0.471288 1.5751,0.471288 1.25263,0 2.10839,-0.892967 0.85576,-0.905369 0.85576,-2.257222 v -0.508495 z m 6.78407,-1.674312 v 7.925076 h -4.47724 v -2.05878 q -0.89297,1.26504 -2.00918,1.84794 -1.1162,0.57051 -2.7161,0.57051 -2.15801,0 -3.50986,-1.25263 -1.33945,-1.26504 -1.33945,-3.274215 0,-2.443256 1.67431,-3.584269 1.68672,-1.141013 5.28339,-1.141013 h 2.61689 v -0.347265 q 0,-1.054196 -0.83096,-1.537887 -0.83095,-0.496092 -2.59208,-0.496092 -1.42627,0 -2.65409,0.285253 -1.22783,0.285253 -2.28203,0.85576 v -3.385833 q 1.42627,-0.347264 2.86493,-0.520897 1.43867,-0.186035 2.87734,-0.186035 3.7579,0 5.41981,1.488278 1.67432,1.475876 1.67432,4.812099 z"
         style="font-style:normal;font-variant:normal;font-weight:bold;font-stretch:normal;font-size:25.3999424px;font-family:sans-serif;-inkscape-font-specification:'sans-serif, Bold';font-variant-ligatures:normal;font-variant-caps:normal;font-variant-numeric:normal;font-feature-settings:normal;text-align:center;writing-mode:lr-tb;text-anchor:middle;fill:#a9b0b7;fill-opacity:1;stroke-width:0.26458272px"
         id="path882" />
      <path
         d="m 222.83358,92.778816 q -0.58291,-0.272851 -1.16582,-0.396874 -0.57051,-0.136425 -1.15341,-0.136425 -1.71152,0 -2.6417,1.103806 -0.91777,1.091404 -0.91777,3.137786 v 6.399591 h -4.44003 V 88.99611 h 4.44003 v 2.282026 q 0.85576,-1.364255 1.95957,-1.98437 1.11621,-0.632519 2.66649,-0.632519 0.22325,0 0.48369,0.02481 0.26045,0.0124 0.75655,0.07441 z"
         style="font-style:normal;font-variant:normal;font-weight:bold;font-stretch:normal;font-size:25.3999424px;font-family:sans-serif;-inkscape-font-specification:'sans-serif, Bold';font-variant-ligatures:normal;font-variant-caps:normal;font-variant-numeric:normal;font-feature-settings:normal;text-align:center;writing-mode:lr-tb;text-anchor:middle;fill:#a9b0b7;fill-opacity:1;stroke-width:0.26458272px"
         id="path884" />
      <path
         d="m 238.93179,95.9042 v 1.265036 h -10.38074 q 0.16123,1.562692 1.12861,2.344038 0.96738,0.781346 2.70371,0.781346 1.40146,0 2.86493,-0.409277 1.47588,-0.421679 3.02617,-1.265036 v 3.423043 q -1.5751,0.59531 -3.15019,0.89296 -1.5751,0.31006 -3.15019,0.31006 -3.7703,0 -5.8663,-1.90996 -2.08359,-1.922355 -2.08359,-5.382601 0,-3.398234 2.04639,-5.345398 2.05878,-1.947164 5.65545,-1.947164 3.27421,0 5.23378,1.971969 1.97197,1.971968 1.97197,5.270984 z m -4.56405,-1.475876 q 0,-1.265036 -0.74414,-2.03398 -0.73174,-0.781345 -1.92236,-0.781345 -1.28984,0 -2.09599,0.731736 -0.80615,0.719335 -1.00459,2.083589 z"
         style="font-style:normal;font-variant:normal;font-weight:bold;font-stretch:normal;font-size:25.3999424px;font-family:sans-serif;-inkscape-font-specification:'sans-serif, Bold';font-variant-ligatures:normal;font-variant-caps:normal;font-variant-numeric:normal;font-feature-settings:normal;text-align:center;writing-mode:lr-tb;text-anchor:middle;fill:#a9b0b7;fill-opacity:1;stroke-width:0.26458272px"
         id="path886" />
      <path
         d="m 33.313798,119.72905 v 11.29851 h 1.71152 q 2.926947,0 4.464834,-1.45107 1.550289,-1.45107 1.550289,-4.21679 0,-2.75331 -1.537887,-4.19198 -1.537887,-1.43867 -4.477236,-1.43867 z m -4.774891,-3.60908 h 5.03534 q 4.216787,0 6.275572,0.60772 2.071187,0.59531 3.547062,2.03398 1.302243,1.25263 1.934761,2.88974 0.632518,1.6371 0.632518,3.70829 0,2.09599 -0.632518,3.7455 -0.632518,1.6371 -1.934761,2.88974 -1.488278,1.43867 -3.571867,2.04638 -2.083589,0.59531 -6.250767,0.59531 h -5.03534 z"
         style="font-style:normal;font-variant:normal;font-weight:bold;font-stretch:normal;font-size:25.3999424px;font-family:sans-serif;-inkscape-font-specification:'sans-serif, Bold';font-variant-ligatures:normal;font-variant-caps:normal;font-variant-numeric:normal;font-feature-settings:normal;text-align:center;writing-mode:lr-tb;text-anchor:middle;fill:#a9b0b7;fill-opacity:1;stroke-width:0.26458272px"
         id="path888" />
      <path
         d="m 63.290195,127.65413 v 1.26503 H 52.909457 q 0.16123,1.5627 1.128611,2.34404 0.967381,0.78135 2.703705,0.78135 1.401461,0 2.864935,-0.40928 1.475875,-0.42168 3.026165,-1.26504 v 3.42304 q -1.575094,0.59532 -3.150188,0.89297 -1.575095,0.31006 -3.150189,0.31006 -3.770304,0 -5.866295,-1.90996 -2.083589,-1.92236 -2.083589,-5.3826 0,-3.39824 2.046382,-5.3454 2.058785,-1.94716 5.655456,-1.94716 3.274211,0 5.233777,1.97196 1.971968,1.97197 1.971968,5.27099 z m -4.564052,-1.47588 q 0,-1.26503 -0.744139,-2.03398 -0.731736,-0.78134 -1.922359,-0.78134 -1.28984,0 -2.095991,0.73173 -0.80615,0.71934 -1.004587,2.08359 z"
         style="font-style:normal;font-variant:normal;font-weight:bold;font-stretch:normal;font-size:25.3999424px;font-family:sans-serif;-inkscape-font-specification:'sans-serif, Bold';font-variant-ligatures:normal;font-variant-caps:normal;font-variant-numeric:normal;font-feature-settings:normal;text-align:center;writing-mode:lr-tb;text-anchor:middle;fill:#a9b0b7;fill-opacity:1;stroke-width:0.26458272px"
         id="path890" />
      <path
         d="m 64.890095,120.74604 h 4.440029 l 3.460246,9.59939 3.447843,-9.59939 h 4.452432 l -5.469421,13.89059 h -4.87411 z"
         style="font-style:normal;font-variant:normal;font-weight:bold;font-stretch:normal;font-size:25.3999424px;font-family:sans-serif;-inkscape-font-specification:'sans-serif, Bold';font-variant-ligatures:normal;font-variant-caps:normal;font-variant-numeric:normal;font-feature-settings:normal;text-align:center;writing-mode:lr-tb;text-anchor:middle;fill:#a9b0b7;fill-opacity:1;stroke-width:0.26458272px"
         id="path892" />
      <path
         d="m 97.074102,127.65413 v 1.26503 H 86.693364 q 0.16123,1.5627 1.128611,2.34404 0.967381,0.78135 2.703705,0.78135 1.401461,0 2.864935,-0.40928 1.475875,-0.42168 3.026165,-1.26504 v 3.42304 q -1.575094,0.59532 -3.150188,0.89297 -1.575095,0.31006 -3.150189,0.31006 -3.770304,0 -5.866295,-1.90996 -2.083589,-1.92236 -2.083589,-5.3826 0,-3.39824 2.046382,-5.3454 2.058784,-1.94716 5.655456,-1.94716 3.274211,0 5.233777,1.97196 1.971968,1.97197 1.971968,5.27099 z m -4.564052,-1.47588 q 0,-1.26503 -0.744139,-2.03398 -0.731736,-0.78134 -1.922359,-0.78134 -1.28984,0 -2.095991,0.73173 -0.80615,0.71934 -1.004588,2.08359 z"
         style="font-style:normal;font-variant:normal;font-weight:bold;font-stretch:normal;font-size:25.3999424px;font-family:sans-serif;-inkscape-font-specification:'sans-serif, Bold';font-variant-ligatures:normal;font-variant-caps:normal;font-variant-numeric:normal;font-feature-settings:normal;text-align:center;writing-mode:lr-tb;text-anchor:middle;fill:#a9b0b7;fill-opacity:1;stroke-width:0.26458272px"
         id="path894" />
      <path
         d="m 100.42273,115.33863 h 4.44003 v 19.298 h -4.44003 z"
         style="font-style:normal;font-variant:normal;font-weight:bold;font-stretch:normal;font-size:25.3999424px;font-family:sans-serif;-inkscape-font-specification:'sans-serif, Bold';font-variant-ligatures:normal;font-variant-caps:normal;font-variant-numeric:normal;font-feature-settings:normal;text-align:center;writing-mode:lr-tb;text-anchor:middle;fill:#a9b0b7;fill-opacity:1;stroke-width:0.26458272px"
         id="path896" />
      <path
         d="m 115.7644,123.58617 q -1.47588,0 -2.25723,1.0666 -0.76894,1.05419 -0.76894,3.05097 0,1.99677 0.76894,3.06337 0.78135,1.0542 2.25723,1.0542 1.45107,0 2.22001,-1.0542 0.76894,-1.0666 0.76894,-3.06337 0,-1.99678 -0.76894,-3.05097 -0.76894,-1.0666 -2.22001,-1.0666 z m 0,-3.17499 q 3.58427,0 5.59344,1.93476 2.02158,1.93476 2.02158,5.3578 0,3.42304 -2.02158,5.3578 -2.00917,1.93476 -5.59344,1.93476 -3.59668,0 -5.63066,-1.93476 -2.02157,-1.93476 -2.02157,-5.3578 0,-3.42304 2.02157,-5.3578 2.03398,-1.93476 5.63066,-1.93476 z"
         style="font-style:normal;font-variant:normal;font-weight:bold;font-stretch:normal;font-size:25.3999424px;font-family:sans-serif;-inkscape-font-specification:'sans-serif, Bold';font-variant-ligatures:normal;font-variant-caps:normal;font-variant-numeric:normal;font-feature-settings:normal;text-align:center;writing-mode:lr-tb;text-anchor:middle;fill:#a9b0b7;fill-opacity:1;stroke-width:0.26458272px"
         id="path898" />
      <path
         d="m 131.05645,132.62746 v 7.29256 h -4.44003 v -19.17398 h 4.44003 v 2.03398 q 0.91777,-1.21543 2.03398,-1.78594 1.1162,-0.5829 2.56728,-0.5829 2.56727,0 4.21678,2.04638 1.64951,2.03398 1.64951,5.24618 0,3.2122 -1.64951,5.25858 -1.64951,2.03398 -4.21678,2.03398 -1.45108,0 -2.56728,-0.57051 -1.11621,-0.58291 -2.03398,-1.79833 z m 2.95175,-8.99168 q -1.42627,0 -2.19521,1.05419 -0.75654,1.0418 -0.75654,3.01377 0,1.97197 0.75654,3.02616 0.76894,1.0418 2.19521,1.0418 1.42626,0 2.1704,-1.0418 0.75654,-1.04179 0.75654,-3.02616 0,-1.98437 -0.75654,-3.02617 -0.74414,-1.04179 -2.1704,-1.04179 z"
         style="font-style:normal;font-variant:normal;font-weight:bold;font-stretch:normal;font-size:25.3999424px;font-family:sans-serif;-inkscape-font-specification:'sans-serif, Bold';font-variant-ligatures:normal;font-variant-caps:normal;font-variant-numeric:normal;font-feature-settings:normal;text-align:center;writing-mode:lr-tb;text-anchor:middle;fill:#a9b0b7;fill-opacity:1;stroke-width:0.26458272px"
         id="path900" />
      <path
         d="m 157.69663,123.05287 q 0.84335,-1.28984 1.99677,-1.95957 1.16582,-0.68212 2.55487,-0.68212 2.39365,0 3.64629,1.47587 1.25263,1.47588 1.25263,4.2912 v 8.45838 h -4.46483 v -7.24295 q 0.0124,-0.16123 0.0124,-0.33486 0.0124,-0.17364 0.0124,-0.4961 0,-1.47587 -0.43408,-2.13319 -0.43408,-0.66973 -1.40146,-0.66973 -1.26504,0 -1.95957,1.0418 -0.68213,1.04179 -0.70693,3.01376 v 6.82127 h -4.46483 v -7.24295 q 0,-2.30683 -0.39688,-2.96415 -0.39687,-0.66973 -1.41386,-0.66973 -1.27744,0 -1.97197,1.0542 -0.69453,1.04179 -0.69453,2.98896 v 6.83367 h -4.46483 v -13.89059 h 4.46483 v 2.03398 q 0.81855,-1.17822 1.87275,-1.77353 1.0666,-0.59531 2.34404,-0.59531 1.43867,0 2.54247,0.69453 1.10381,0.69452 1.67432,1.94716 z"
         style="font-style:normal;font-variant:normal;font-weight:bold;font-stretch:normal;font-size:25.3999424px;font-family:sans-serif;-inkscape-font-specification:'sans-serif, Bold';font-variant-ligatures:normal;font-variant-caps:normal;font-variant-numeric:normal;font-feature-settings:normal;text-align:center;writing-mode:lr-tb;text-anchor:middle;fill:#a9b0b7;fill-opacity:1;stroke-width:0.26458272px"
         id="path902" />
      <path
         d="m 185.18015,127.65413 v 1.26503 h -10.38074 q 0.16123,1.5627 1.12861,2.34404 0.96738,0.78135 2.70371,0.78135 1.40146,0 2.86493,-0.40928 1.47588,-0.42168 3.02617,-1.26504 v 3.42304 q -1.5751,0.59532 -3.15019,0.89297 -1.57509,0.31006 -3.15019,0.31006 -3.7703,0 -5.86629,-1.90996 -2.08359,-1.92236 -2.08359,-5.3826 0,-3.39824 2.04638,-5.3454 2.05878,-1.94716 5.65546,-1.94716 3.27421,0 5.23377,1.97196 1.97197,1.97197 1.97197,5.27099 z m -4.56405,-1.47588 q 0,-1.26503 -0.74414,-2.03398 -0.73174,-0.78134 -1.92236,-0.78134 -1.28984,0 -2.09599,0.73173 -0.80615,0.71934 -1.00459,2.08359 z"
         style="font-style:normal;font-variant:normal;font-weight:bold;font-stretch:normal;font-size:25.3999424px;font-family:sans-serif;-inkscape-font-specification:'sans-serif, Bold';font-variant-ligatures:normal;font-variant-caps:normal;font-variant-numeric:normal;font-feature-settings:normal;text-align:center;writing-mode:lr-tb;text-anchor:middle;fill:#a9b0b7;fill-opacity:1;stroke-width:0.26458272px"
         id="path904" />
      <path
         d="m 202.49379,126.17825 v 8.45838 h -4.46484 v -1.37666 -5.09735 q 0,-1.79833 -0.0868,-2.48046 -0.0744,-0.68213 -0.27285,-1.00459 -0.26045,-0.43408 -0.70694,-0.66972 -0.44648,-0.24805 -1.01699,-0.24805 -1.38906,0 -2.1828,1.079 -0.79375,1.0666 -0.79375,2.96416 v 6.83367 h -4.44003 v -13.89059 h 4.44003 v 2.03398 q 1.00459,-1.21543 2.1332,-1.78594 1.12861,-0.5829 2.49286,-0.5829 2.40605,0 3.64628,1.47587 1.25264,1.47588 1.25264,4.2912 z"
         style="font-style:normal;font-variant:normal;font-weight:bold;font-stretch:normal;font-size:25.3999424px;font-family:sans-serif;-inkscape-font-specification:'sans-serif, Bold';font-variant-ligatures:normal;font-variant-caps:normal;font-variant-numeric:normal;font-feature-settings:normal;text-align:center;writing-mode:lr-tb;text-anchor:middle;fill:#a9b0b7;fill-opacity:1;stroke-width:0.26458272px"
         id="path906" />
      <path
         d="m 211.48546,116.8021 v 3.94394 h 4.57645 v 3.17499 h -4.57645 v 5.8911 q 0,0.96738 0.38447,1.31465 0.38447,0.33486 1.52549,0.33486 h 2.28202 v 3.17499 h -3.80751 q -2.62929,0 -3.7331,-1.0914 -1.0914,-1.10381 -1.0914,-3.7331 v -5.8911 h -2.20761 v -3.17499 h 2.20761 v -3.94394 z"
         style="font-style:normal;font-variant:normal;font-weight:bold;font-stretch:normal;font-size:25.3999424px;font-family:sans-serif;-inkscape-font-specification:'sans-serif, Bold';font-variant-ligatures:normal;font-variant-caps:normal;font-variant-numeric:normal;font-feature-settings:normal;text-align:center;writing-mode:lr-tb;text-anchor:middle;fill:#a9b0b7;fill-opacity:1;stroke-width:0.26458272px"
         id="path908" />
    </g>
  </g>
</svg>
