<?xml version="1.0" encoding="UTF-8" standalone="no"?>
<svg
   width="900"
   height="900"
   viewBox="0 0 238.12447 238.12416"
   version="1.1"
   id="svg8"
   sodipodi:docname="wpilib-icon.svg"
   inkscape:version="1.3.2 (091e20e, 2023-11-25, custom)"
   inkscape:export-filename="24wpilib-vert-indiv.png"
   inkscape:export-xdpi="96"
   inkscape:export-ydpi="96"
   xmlns:inkscape="http://www.inkscape.org/namespaces/inkscape"
   xmlns:sodipodi="http://sodipodi.sourceforge.net/DTD/sodipodi-0.dtd"
   xmlns="http://www.w3.org/2000/svg"
   xmlns:svg="http://www.w3.org/2000/svg">
  <defs
     id="defs1" />
  <sodipodi:namedview
     id="namedview1"
     pagecolor="#ffffff"
     bordercolor="#000000"
     borderopacity="0.25"
     inkscape:showpageshadow="2"
     inkscape:pageopacity="0.0"
     inkscape:pagecheckerboard="0"
     inkscape:deskcolor="#d1d1d1"
     inkscape:zoom="0.77091849"
     inkscape:cx="452.05817"
     inkscape:cy="563.61341"
     inkscape:window-width="3200"
     inkscape:window-height="1721"
     inkscape:window-x="1911"
     inkscape:window-y="-9"
     inkscape:window-maximized="1"
     inkscape:current-layer="svg8" />
  <g
     id="text19"
     style="font-style:normal;font-variant:normal;font-weight:normal;font-stretch:normal;font-size:25.4px;line-height:125%;font-family:sans-serif;-inkscape-font-specification:sans-serif;letter-spacing:0px;word-spacing:0px;fill:#000000;fill-opacity:1;stroke:none;stroke-width:0.264583px;stroke-linecap:butt;stroke-linejoin:miter;stroke-opacity:1"
     transform="translate(-1.5669633,102.61871)" />
  <g
     id="text29"
     style="font-style:normal;font-variant:normal;font-weight:normal;font-stretch:normal;font-size:25.4px;line-height:125%;font-family:sans-serif;-inkscape-font-specification:sans-serif;letter-spacing:0px;word-spacing:0px;fill:#000000;fill-opacity:1;stroke:none;stroke-width:0.264583px;stroke-linecap:butt;stroke-linejoin:miter;stroke-opacity:1"
     transform="translate(-1.5669633,102.61871)" />
  <g
     id="text35"
     style="font-style:normal;font-variant:normal;font-weight:normal;font-stretch:normal;font-size:25.4px;line-height:125%;font-family:sans-serif;-inkscape-font-specification:sans-serif;letter-spacing:0px;word-spacing:0px;fill:#000000;fill-opacity:1;stroke:none;stroke-width:0.264583px;stroke-linecap:butt;stroke-linejoin:miter;stroke-opacity:1"
     transform="translate(-1.5669633,102.61871)" />
  <g
     id="text52"
     style="font-style:normal;font-variant:normal;font-weight:bold;font-stretch:normal;font-size:25.3999px;line-height:125%;font-family:sans-serif;-inkscape-font-specification:'sans-serif Bold';letter-spacing:0px;word-spacing:0px;fill:#000000;fill-opacity:1;stroke:none;stroke-width:0.264583px;stroke-linecap:butt;stroke-linejoin:miter;stroke-opacity:1"
     transform="translate(-1.5669633,102.61871)" />
  <g
     id="flowRoot66"
     style="font-style:normal;font-variant:normal;font-weight:normal;font-stretch:normal;font-size:96px;line-height:125%;font-family:sans-serif;-inkscape-font-specification:sans-serif;letter-spacing:0px;word-spacing:0px;fill:#000000;fill-opacity:1;stroke:none;stroke-width:1px;stroke-linecap:butt;stroke-linejoin:miter;stroke-opacity:1"
     transform="translate(-1.5669633,102.61871)" />
  <g
     id="text4514"
     style="font-style:normal;font-variant:normal;font-weight:normal;font-stretch:normal;font-size:25.3999px;line-height:125%;font-family:sans-serif;-inkscape-font-specification:sans-serif;letter-spacing:0px;word-spacing:0px;fill:#000000;fill-opacity:1;stroke:none;stroke-width:0.264583px;stroke-linecap:butt;stroke-linejoin:miter;stroke-opacity:1"
     transform="translate(-1.5669633,102.61871)" />
  <g
     id="g11"
     transform="matrix(1.7999091,0,0,1.7999091,10.151939,29.632044)"
     style="display:inline">
    <g
       id="g3">
      <path
         class="st0"
         d="m 116.49,2.66 0.26,-0.02 V 0 H 97.44 v 2.64 l 0.26,0.02 c 4.82,0.44 5.35,0.67 5.35,6.11 v 25.45 c 0,5.44 -0.53,5.67 -5.35,6.11 l -0.26,0.02 V 43 h 19.31 v -2.64 l -0.26,-0.02 C 111.65,39.9 111.2,39.7 111.2,34.23 V 8.77 c 0,-5.47 0.45,-5.67 5.29,-6.11 z"
         id="path1"
         style="fill:#aa182c" />
      <g
         id="g2">
        <path
           class="st0"
           d="M 91.04,2.6 C 88.51,0.83 84.87,0 79.58,0 H 47.05 v 2.64 c 2.76,0.13 4.94,1.5 4.94,3.17 0,0.16 -0.01,0.3 -0.05,0.44 -0.06,0.43 -0.17,0.93 -0.3,1.49 -0.92,3.82 -3.8,14.57 -6.4,22.87 L 34.3,0.46 H 31.13 L 21.51,30.42 14.3,5.83 c 0,0 -1.05,-2.83 4.35,-3.2 V 0 H 0 v 2.62 c 0,0 4.43,-0.14 5.72,3.69 l 11.45,37.4 h 3.36 l 9.92,-29.9 10.81,29.9 h 3.36 C 50.27,24.63 54.1,13.04 55.45,9.31 56.3,6.79 56.92,5.29 57.81,4.36 c 0.98,-1.01 2.42,-1.64 4.03,-1.64 2.93,0 5.31,1.85 5.31,4.19 v 27.31 c 0,5.44 -0.53,5.67 -5.35,6.11 l -0.26,0.03 V 43 H 81.5 v -2.64 l -0.27,-0.03 c -5.49,-0.44 -5.99,-0.65 -5.99,-6.11 v -8.36 c 0.48,0.09 0.96,0.17 1.45,0.22 0.98,0.14 2.05,0.14 2.83,0.14 0.79,0 1.85,0 2.84,-0.14 C 88.86,25.33 95.8,21.33 95.8,12.36 95.8,8.18 94.19,4.9 91.04,2.6 Z m -12.1,20.18 c -1.69,0 -3.01,-0.32 -3.69,-0.62 V 5.77 c 0,-1.2 0.17,-1.86 0.57,-2.21 0.31,-0.31 1.16,-0.63 2.67,-0.63 5.28,0 8.45,3.6 8.45,9.64 -0.01,9.72 -6.67,10.21 -8,10.21 z"
           id="path2"
           style="fill:#aa182c" />
      </g>
    </g>
    <g
       id="g6">
      <g
         id="g5">
        <path
           class="st1"
           d="M 66.36,94.17 V 65.56 h -4.43 v 32.1 h 19.02 v -3.5 H 66.36 Z"
           id="path3"
           style="fill:#4d4e4e" />
        <path
           class="st1"
           d="m 85.7,74.64 v 23.03 h 4.43 V 74.64 Z m 2.23,-9.13 c -1.64,0 -2.77,1.17 -2.77,2.61 0,1.42 1.07,2.6 2.69,2.6 1.77,0 2.83,-1.18 2.83,-2.6 -0.02,-1.47 -1.09,-2.61 -2.75,-2.61 z"
           id="path4"
           style="fill:#4d4e4e" />
        <path
           class="st1"
           d="m 110.42,74.11 c -3.95,0 -6.79,1.63 -8.35,4.22 h -0.11 V 65.51 h -4.43 v 26.22 c 0,2.05 -0.08,4.35 -0.21,5.94 h 3.84 l 0.22,-3.78 h 0.13 c 1.84,3 4.67,4.31 8.2,4.31 5.46,0 11.03,-4.09 11.03,-12.36 0.03,-6.98 -4.24,-11.73 -10.32,-11.73 z m -1.59,20.75 c -3.22,0 -5.85,-1.99 -6.68,-4.91 -0.13,-0.47 -0.19,-1 -0.19,-1.51 V 84.3 c 0,-0.67 0.12,-1.23 0.26,-1.74 0.89,-3.16 3.72,-5.15 6.74,-5.15 4.76,0 7.3,3.96 7.3,8.59 0.01,5.29 -2.75,8.86 -7.43,8.86 z"
           id="path5"
           style="fill:#4d4e4e" />
      </g>
    </g>
    <g
       id="g10">
      <polygon
         class="st0"
         points="24.44,97.67 12.55,97.67 0.04,81.59 12.55,65.51 23.79,65.51 23.79,68.54 14.04,68.54 3.89,81.59 14.04,94.63 22.01,94.63 24.6,83.14 27.71,83.14 "
         id="polygon6"
         style="fill:#aa182c" />
      <polygon
         class="st1"
         points="40.44,97.67 29.2,97.67 29.2,94.63 38.95,94.63 49.1,81.59 38.95,68.54 30.99,68.54 28.4,80.04 25.29,80.04 28.56,65.51 40.44,65.51 52.94,81.59 "
         id="polygon7"
         style="fill:#4d4e4e" />
      <g
         id="g9">
        <polygon
           class="st0"
           points="7.82,81.59 15.51,71.64 19.34,71.64 11.66,81.59 19.23,91.38 19.04,91.53 15.51,91.53 "
           id="polygon8"
           style="fill:#aa182c" />
        <polygon
           class="st1"
           points="45.17,81.59 37.48,71.64 33.66,71.64 41.34,81.59 33.76,91.38 33.96,91.53 37.48,91.53 "
           id="polygon9"
           style="fill:#4d4e4e" />
      </g>
    </g>
  </g>
</svg>
