<?xml version="1.0" encoding="UTF-8" standalone="no"?>
<svg
   width="2465.9614"
   height="647.92755"
   viewBox="0 0 652.45161 171.43084"
   version="1.1"
   id="svg8"
   sodipodi:docname="wpilib-polo.svg"
   inkscape:version="1.3.2 (091e20e, 2023-11-25, custom)"
   xmlns:inkscape="http://www.inkscape.org/namespaces/inkscape"
   xmlns:sodipodi="http://sodipodi.sourceforge.net/DTD/sodipodi-0.dtd"
   xmlns="http://www.w3.org/2000/svg"
   xmlns:svg="http://www.w3.org/2000/svg">
  <defs
     id="defs1">
    <clipPath
       clipPathUnits="userSpaceOnUse"
       id="clipPath2">
      <rect
         style="fill:#000000;stroke-width:0.119705"
         id="rect2"
         width="172.35596"
         height="32.280434"
         x="220.77309"
         y="7.9257421" />
    </clipPath>
  </defs>
  <sodipodi:namedview
     id="namedview1"
     pagecolor="#ffffff"
     bordercolor="#000000"
     borderopacity="0.25"
     inkscape:showpageshadow="2"
     inkscape:pageopacity="0.0"
     inkscape:pagecheckerboard="0"
     inkscape:deskcolor="#d1d1d1"
     showgrid="false"
     inkscape:zoom="1.1164003"
     inkscape:cx="1232.9807"
     inkscape:cy="324.70432"
     inkscape:window-width="3200"
     inkscape:window-height="1721"
     inkscape:window-x="1911"
     inkscape:window-y="-9"
     inkscape:window-maximized="1"
     inkscape:current-layer="svg8" />
  <g
     id="text45"
     style="font-style:normal;font-variant:normal;font-weight:normal;font-stretch:normal;font-size:8.89367px;line-height:125%;font-family:sans-serif;-inkscape-font-specification:sans-serif;letter-spacing:0px;word-spacing:0px;fill:#000000;fill-opacity:1;stroke:none;stroke-width:0.0926424px;stroke-linecap:butt;stroke-linejoin:miter;stroke-opacity:1"
     transform="matrix(2.8559643,0,0,2.8559643,-560.13237,74.533075)" />
  <g
     id="g10"
     transform="matrix(1.578066,0,0,1.578066,112.02364,23.174224)">
    <g
       id="g3">
      <path
         class="st0"
         d="m 102.35,2.34 0.23,-0.02 V 0 H 85.62 v 2.32 l 0.23,0.02 c 4.24,0.39 4.7,0.59 4.7,5.37 v 22.36 c 0,4.78 -0.47,4.98 -4.7,5.37 l -0.23,0.02 v 2.32 h 16.96 v -2.32 l -0.23,-0.02 C 98.1,35.05 97.7,34.88 97.7,30.07 V 7.71 c 0.01,-4.81 0.4,-4.98 4.65,-5.37 z"
         id="path1"
         style="fill:#aa182c" />
      <g
         id="g2">
        <path
           class="st0"
           d="M 79.99,2.29 C 77.77,0.73 74.57,0 69.92,0 H 41.34 v 2.32 c 2.43,0.11 4.34,1.32 4.34,2.78 0,0.14 -0.02,0.26 -0.05,0.38 -0.06,0.37 -0.15,0.82 -0.27,1.31 -0.8,3.36 -3.33,12.81 -5.61,20.1 L 30.14,0.4 H 27.36 L 18.9,26.73 12.56,5.13 c 0,0 -0.92,-2.49 3.83,-2.81 V 0 H 0 v 2.31 c 0,0 3.89,-0.13 5.03,3.24 l 10.06,32.87 h 2.95 l 8.72,-26.27 9.5,26.27 h 2.95 C 44.17,21.65 47.55,11.47 48.72,8.19 49.47,5.97 50.02,4.66 50.8,3.84 51.66,2.95 52.93,2.4 54.34,2.4 56.91,2.4 59,4.02 59,6.08 v 24 c 0,4.78 -0.47,4.99 -4.7,5.37 l -0.23,0.02 v 2.32 h 17.54 v -2.32 l -0.24,-0.02 c -4.83,-0.38 -5.26,-0.57 -5.26,-5.37 v -7.35 c 0.42,0.08 0.83,0.15 1.27,0.2 0.86,0.12 1.8,0.12 2.49,0.12 0.7,0 1.62,0 2.5,-0.12 5.7,-0.66 11.8,-4.18 11.8,-12.06 0,-3.68 -1.41,-6.56 -4.18,-8.58 z M 69.36,20.02 c -1.48,0 -2.65,-0.29 -3.24,-0.55 V 5.07 c 0,-1.06 0.15,-1.64 0.5,-1.94 0.28,-0.28 1.02,-0.56 2.35,-0.56 4.64,0 7.42,3.17 7.42,8.46 -0.01,8.55 -5.86,8.99 -7.03,8.99 z"
           id="path2"
           style="fill:#aa182c" />
      </g>
    </g>
    <g
       id="g6">
      <g
         id="g5">
        <path
           class="st1"
           d="M 188.71,33.91 V 1.92 h -4.96 v 35.91 h 21.28 v -3.92 z"
           id="path3"
           style="fill:#4d4e4e" />
        <path
           class="st1"
           d="m 212.82,1.87 c -1.83,0 -3.1,1.3 -3.1,2.91 -0.01,1.59 1.21,2.91 3.01,2.91 1.98,0 3.17,-1.32 3.17,-2.91 -0.01,-1.64 -1.22,-2.91 -3.08,-2.91 z m -2.48,10.2 v 25.76 h 4.96 V 12.07 Z"
           id="path4"
           style="fill:#4d4e4e" />
        <path
           class="st1"
           d="m 237.98,11.48 c -4.42,0 -7.59,1.82 -9.34,4.72 h -0.11 V 0 h -4.96 v 31.18 c 0,2.29 -0.09,4.88 -0.22,6.65 h 4.3 l 0.25,-4.24 h 0.13 c 2.06,3.36 5.23,4.83 9.18,4.83 6.11,0 12.33,-4.57 12.33,-13.82 0.03,-7.8 -4.75,-13.12 -11.56,-13.12 z m -1.77,23.21 c -3.6,0 -6.54,-2.23 -7.47,-5.48 -0.14,-0.54 -0.21,-1.12 -0.21,-1.7 v -4.63 c 0,-0.74 0.13,-1.38 0.28,-1.95 1,-3.53 4.17,-5.76 7.54,-5.76 5.33,0 8.17,4.44 8.17,9.62 0.01,5.9 -3.07,9.9 -8.31,9.9 z"
           id="path5"
           style="fill:#4d4e4e" />
      </g>
    </g>
    <polygon
       class="st0"
       points="109.45,19.21 124.39,0 137.82,0 137.82,3.62 126.17,3.62 114.04,19.21 126.17,34.79 135.68,34.79 138.78,21.06 142.5,21.06 138.59,38.42 124.39,38.42 "
       id="polygon6"
       style="fill:#aa182c" />
    <polygon
       class="st1"
       points="144.28,34.79 155.92,34.79 168.05,19.21 155.92,3.62 146.41,3.62 143.32,17.36 139.61,17.36 143.51,0 157.71,0 172.64,19.21 157.71,38.42 144.28,38.42 "
       id="polygon7"
       style="fill:#4d4e4e" />
    <g
       id="g9">
      <polygon
         class="st0"
         points="132.37,30.91 132.13,31.09 127.93,31.09 118.74,19.21 127.93,7.33 132.5,7.33 123.32,19.21 "
         id="polygon8"
         style="fill:#aa182c" />
      <polygon
         class="st1"
         points="149.73,30.91 149.96,31.09 154.17,31.09 163.36,19.21 154.17,7.33 149.6,7.33 158.78,19.21 "
         id="polygon9"
         style="fill:#4d4e4e" />
    </g>
  </g>
  <g
     id="text49"
     style="font-style:normal;font-variant:normal;font-weight:normal;font-stretch:normal;font-size:8.89367px;line-height:125%;font-family:sans-serif;-inkscape-font-specification:sans-serif;letter-spacing:0px;word-spacing:0px;fill:#4d4e4e;fill-opacity:1;stroke:none;stroke-width:0.0926424px;stroke-linecap:butt;stroke-linejoin:miter;stroke-opacity:1"
     aria-label="WPILib Developer"
     transform="matrix(2.8559643,0,0,2.8559643,-541.17261,72.715464)"
     clip-path="url(#clipPath2)">
    <path
       id="path25"
       style="font-style:normal;font-variant:normal;font-weight:bold;font-stretch:normal;font-size:26.681px;line-height:125%;font-family:'DejaVu Sans';-inkscape-font-specification:'DejaVu Sans Bold';fill:#4d4e4e;fill-opacity:1;stroke-width:0.0926424px"
       d="m 222.89422,-23.771244 h 4.80727 l 3.36118,14.1352022 3.33512,-14.1352022 h 4.83333 l 3.33513,14.1352022 3.36118,-14.1352022 h 4.76819 l -4.5858,19.4505591 h -5.78436 l -3.53054,-14.7865931 -3.49146,14.7865931 h -5.78436 z" />
    <path
       id="path27"
       style="font-style:normal;font-variant:normal;font-weight:bold;font-stretch:normal;font-size:26.681px;line-height:125%;font-family:'DejaVu Sans';-inkscape-font-specification:'DejaVu Sans Bold';fill:#4d4e4e;fill-opacity:1;stroke-width:0.0926424px"
       d="m 253.99166,-23.771244 h 8.32479 q 3.71293,0 5.69316,1.654536 1.99326,1.641507 1.99326,4.69002 0,3.061542 -1.99326,4.716077 -1.98023,1.641507 -5.69316,1.641507 h -3.30907 v 6.7484191 h -5.01572 z m 5.01572,3.634767 v 5.432607 h 2.77493 q 1.45911,0 2.25381,-0.703503 0.7947,-0.716531 0.7947,-2.019315 0,-1.302783 -0.7947,-2.006286 -0.7947,-0.703503 -2.25381,-0.703503 z" />
    <path
       id="path29"
       style="font-style:normal;font-variant:normal;font-weight:bold;font-stretch:normal;font-size:26.681px;line-height:125%;font-family:'DejaVu Sans';-inkscape-font-specification:'DejaVu Sans Bold';fill:#4d4e4e;fill-opacity:1;stroke-width:0.0926424px"
       d="m 273.53342,-23.771244 h 5.01571 v 19.4505591 h -5.01571 z" />
    <path
       id="path31"
       style="font-style:normal;font-variant:normal;font-weight:bold;font-stretch:normal;font-size:26.681px;line-height:125%;font-family:'DejaVu Sans';-inkscape-font-specification:'DejaVu Sans Bold';fill:#4d4e4e;fill-opacity:1;stroke-width:0.0926424px"
       d="m 283.48668,-23.771244 h 5.01571 v 15.6594589 h 8.80682 v 3.7911002 h -13.82253 z" />
    <path
       id="path33"
       style="font-style:normal;font-variant:normal;font-weight:bold;font-stretch:normal;font-size:26.681px;line-height:125%;font-family:'DejaVu Sans';-inkscape-font-specification:'DejaVu Sans Bold';fill:#4d4e4e;fill-opacity:1;stroke-width:0.0926424px"
       d="m 300.26653,-18.911861 h 4.66396 v 14.5911761 h -4.66396 z m 0,-5.680136 h 4.66396 v 3.804128 h -4.66396 z" />
    <path
       id="path35"
       style="font-style:normal;font-variant:normal;font-weight:bold;font-stretch:normal;font-size:26.681px;line-height:125%;font-family:'DejaVu Sans';-inkscape-font-specification:'DejaVu Sans Bold';fill:#4d4e4e;fill-opacity:1;stroke-width:0.0926424px"
       d="m 317.20272,-7.3301149 q 1.4982,0 2.27987,-1.0943382 0.7947,-1.0943382 0.7947,-3.1787919 0,-2.084454 -0.7947,-3.178792 -0.78167,-1.094338 -2.27987,-1.094338 -1.4982,0 -2.30593,1.107366 -0.7947,1.094338 -0.7947,3.165764 0,2.0714258 0.7947,3.1787919 0.80773,1.0943382 2.30593,1.0943382 z m -3.10063,-9.4451811 q 0.96406,-1.276728 2.13657,-1.876008 1.17251,-0.612308 2.69676,-0.612308 2.69676,0 4.42947,2.149592 1.7327,2.136566 1.7327,5.510775 0,3.3742094 -1.7327,5.5238023 -1.73271,2.136565 -4.42947,2.136565 -1.52425,0 -2.69676,-0.5992804 -1.17251,-0.6123083 -2.13657,-1.8890362 v 2.1105094 h -4.66396 V -24.591997 h 4.66396 z" />
    <path
       id="path37"
       style="font-style:normal;font-variant:normal;font-weight:bold;font-stretch:normal;font-size:26.681px;line-height:125%;font-family:'DejaVu Sans';-inkscape-font-specification:'DejaVu Sans Bold';fill:#4d4e4e;fill-opacity:1;stroke-width:0.0926424px"
       d="m 229.56447,13.371113 v 11.868358 h 1.79784 q 3.07457,0 4.69002,-1.524257 1.62848,-1.524257 1.62848,-4.429464 0,-2.892179 -1.61545,-4.403408 -1.61545,-1.511229 -4.70305,-1.511229 z m -5.01572,-3.7911005 h 5.2893 q 4.42947,0 6.59209,0.6383635 2.17565,0.625337 3.72596,2.136566 1.36792,1.315811 2.03234,3.035485 0.66442,1.719675 0.66442,3.895323 0,2.201704 -0.66442,3.934406 -0.66442,1.719675 -2.03234,3.035486 -1.56334,1.511229 -3.75202,2.149593 -2.18868,0.625336 -6.56603,0.625336 h -5.2893 z" />
    <path
       id="path39"
       style="font-style:normal;font-variant:normal;font-weight:bold;font-stretch:normal;font-size:26.681px;line-height:125%;font-family:'DejaVu Sans';-inkscape-font-specification:'DejaVu Sans Bold';fill:#4d4e4e;fill-opacity:1;stroke-width:0.0926424px"
       d="m 261.05275,21.6959 v 1.328839 h -10.9043 q 0.16936,1.641507 1.18553,2.462261 1.01617,0.820753 2.84007,0.820753 1.47214,0 3.00943,-0.429918 1.55031,-0.442946 3.17879,-1.328839 v 3.595682 q -1.65453,0.625336 -3.30907,0.938004 -1.65454,0.325696 -3.30907,0.325696 -3.96046,0 -6.16217,-2.006286 -2.18867,-2.019315 -2.18867,-5.654081 0,-3.569627 2.14959,-5.614997 2.16262,-2.04537 5.94069,-2.04537 3.43935,0 5.49775,2.071426 2.07143,2.071425 2.07143,5.53683 z m -4.79425,-1.550313 q 0,-1.328839 -0.78167,-2.136565 -0.76864,-0.820753 -2.01931,-0.820753 -1.3549,0 -2.20171,0.768642 -0.84681,0.755614 -1.05525,2.188676 z" />
    <path
       id="path41"
       style="font-style:normal;font-variant:normal;font-weight:bold;font-stretch:normal;font-size:26.681px;line-height:125%;font-family:'DejaVu Sans';-inkscape-font-specification:'DejaVu Sans Bold';fill:#4d4e4e;fill-opacity:1;stroke-width:0.0926424px"
       d="m 262.73334,14.439395 h 4.66396 l 3.63477,10.083545 3.62174,-10.083545 h 4.67699 l -5.74527,14.591176 h -5.11994 z" />
    <path
       id="path43"
       style="font-style:normal;font-variant:normal;font-weight:bold;font-stretch:normal;font-size:26.681px;line-height:125%;font-family:'DejaVu Sans';-inkscape-font-specification:'DejaVu Sans Bold';fill:#4d4e4e;fill-opacity:1;stroke-width:0.0926424px"
       d="m 296.54057,21.6959 v 1.328839 h -10.9043 q 0.16936,1.641507 1.18553,2.462261 1.01617,0.820753 2.84007,0.820753 1.47215,0 3.00943,-0.429918 1.55031,-0.442946 3.17879,-1.328839 v 3.595682 q -1.65453,0.625336 -3.30907,0.938004 -1.65453,0.325696 -3.30907,0.325696 -3.96046,0 -6.16216,-2.006286 -2.18868,-2.019315 -2.18868,-5.654081 0,-3.569627 2.14959,-5.614997 2.16262,-2.04537 5.9407,-2.04537 3.43935,0 5.49774,2.071426 2.07143,2.071425 2.07143,5.53683 z m -4.79424,-1.550313 q 0,-1.328839 -0.78167,-2.136565 -0.76865,-0.820753 -2.01932,-0.820753 -1.35489,0 -2.2017,0.768642 -0.84681,0.755614 -1.05526,2.188676 z" />
    <path
       id="path45"
       style="font-style:normal;font-variant:normal;font-weight:bold;font-stretch:normal;font-size:26.681px;line-height:125%;font-family:'DejaVu Sans';-inkscape-font-specification:'DejaVu Sans Bold';fill:#4d4e4e;fill-opacity:1;stroke-width:0.0926424px"
       d="m 300.05809,8.7592589 h 4.66396 V 29.030571 h -4.66396 z" />
    <path
       id="path47"
       style="font-style:normal;font-variant:normal;font-weight:bold;font-stretch:normal;font-size:26.681px;line-height:125%;font-family:'DejaVu Sans';-inkscape-font-specification:'DejaVu Sans Bold';fill:#4d4e4e;fill-opacity:1;stroke-width:0.0926424px"
       d="m 316.17352,17.42277 q -1.55032,0 -2.37107,1.120393 -0.80773,1.107366 -0.80773,3.204848 0,2.097482 0.80773,3.217875 0.82075,1.107366 2.37107,1.107366 1.52425,0 2.33198,-1.107366 0.80772,-1.120393 0.80772,-3.217875 0,-2.097482 -0.80772,-3.204848 -0.80773,-1.120393 -2.33198,-1.120393 z m 0,-3.335126 q 3.76504,0 5.87555,2.032342 2.12354,2.032342 2.12354,5.628025 0,3.595683 -2.12354,5.628025 -2.11051,2.032342 -5.87555,2.032342 -3.77808,0 -5.91464,-2.032342 -2.12354,-2.032342 -2.12354,-5.628025 0,-3.595683 2.12354,-5.628025 2.13656,-2.032342 5.91464,-2.032342 z" />
    <path
       id="path49"
       style="font-style:normal;font-variant:normal;font-weight:bold;font-stretch:normal;font-size:26.681px;line-height:125%;font-family:'DejaVu Sans';-inkscape-font-specification:'DejaVu Sans Bold';fill:#4d4e4e;fill-opacity:1;stroke-width:0.0926424px"
       d="m 332.23684,26.920062 v 7.660367 h -4.66397 V 14.439395 h 4.66397 v 2.136565 q 0.96406,-1.276728 2.13656,-1.876008 1.17251,-0.612308 2.69676,-0.612308 2.69677,0 4.42947,2.149593 1.7327,2.136565 1.7327,5.510774 0,3.374209 -1.7327,5.523802 -1.7327,2.136565 -4.42947,2.136565 -1.52425,0 -2.69676,-0.59928 -1.1725,-0.612308 -2.13656,-1.889036 z m 3.10062,-9.445181 q -1.4982,0 -2.30592,1.107366 -0.7947,1.094338 -0.7947,3.165764 0,2.071426 0.7947,3.178792 0.80772,1.094338 2.30592,1.094338 1.4982,0 2.27987,-1.094338 0.7947,-1.094338 0.7947,-3.178792 0,-2.084454 -0.7947,-3.178792 -0.78167,-1.094338 -2.27987,-1.094338 z" />
    <path
       id="path51"
       style="font-style:normal;font-variant:normal;font-weight:bold;font-stretch:normal;font-size:26.681px;line-height:125%;font-family:'DejaVu Sans';-inkscape-font-specification:'DejaVu Sans Bold';fill:#4d4e4e;fill-opacity:1;stroke-width:0.0926424px"
       d="m 361.26286,21.6959 v 1.328839 h -10.9043 q 0.16936,1.641507 1.18553,2.462261 1.01617,0.820753 2.84007,0.820753 1.47214,0 3.00943,-0.429918 1.55031,-0.442946 3.17879,-1.328839 v 3.595682 q -1.65454,0.625336 -3.30907,0.938004 -1.65454,0.325696 -3.30907,0.325696 -3.96046,0 -6.16217,-2.006286 -2.18867,-2.019315 -2.18867,-5.654081 0,-3.569627 2.14959,-5.614997 2.16262,-2.04537 5.94069,-2.04537 3.43935,0 5.49775,2.071426 2.07143,2.071425 2.07143,5.53683 z m -4.79425,-1.550313 q 0,-1.328839 -0.78167,-2.136565 -0.76864,-0.820753 -2.01931,-0.820753 -1.3549,0 -2.20171,0.768642 -0.84681,0.755614 -1.05525,2.188676 z" />
    <path
       id="path53"
       style="font-style:normal;font-variant:normal;font-weight:bold;font-stretch:normal;font-size:26.681px;line-height:125%;font-family:'DejaVu Sans';-inkscape-font-specification:'DejaVu Sans Bold';fill:#4d4e4e;fill-opacity:1;stroke-width:0.0926424px"
       d="m 375.61953,18.412885 q -0.61231,-0.286612 -1.22462,-0.416891 -0.59928,-0.143306 -1.21159,-0.143306 -1.79784,0 -2.77493,1.159478 -0.96406,1.146449 -0.96406,3.296042 v 6.722363 h -4.66396 V 14.439395 h 4.66396 v 2.397122 q 0.89892,-1.433062 2.0584,-2.084454 1.17251,-0.664419 2.80099,-0.664419 0.2345,0 0.50808,0.02606 0.27359,0.01303 0.7947,0.07817 z" />
  </g>
</svg>
